<svg xmlns="http://www.w3.org/2000/svg" xmlns:xlink="http://www.w3.org/1999/xlink" x="0" y="0" style="         width:701.1904907226562px;         height:301.1904602050781px;         background: transparent;         fill: none; " viewBox="204.51 53.32 231.99 121.14">
        
        
        <svg xmlns="http://www.w3.org/2000/svg" class="role-diagram-draw-area" style="overflow: visible;"><g class="shapes-region" style="stroke: black; fill: none;"><g class="composite-shape"><g class="real" style="stroke-width: 2; stroke: rgb(0, 0, 0); fill: none; fill-opacity: 1;"><path d=" M342,64.57 L362,64.57 C375.95,64.94 388.42,73.02 394,85.29 C388.42,97.56 375.95,105.63 362,106 L342,106 C350.57,93.18 350.57,77.39 342,64.57 Z"/><path d=" M330,71.48 L346,71.48" style="fill: none;"/><path d=" M330,99.1 L346,99.1" style="fill: none;"/><path d=" M394,85.29 L410,85.29" style="fill: none;"/></g></g><g class="composite-shape"><g class="real" style="stroke-width: 2; stroke: rgb(0, 0, 0); fill: none; fill-opacity: 1;"><path d=" M342,122.57 L362,122.57 C375.95,122.94 388.42,131.02 394,143.29 C388.42,155.56 375.95,163.63 362,164 L342,164 C350.57,151.18 350.57,135.39 342,122.57 Z"/><path d=" M330,129.48 L346,129.48" style="fill: none;"/><path d=" M330,157.1 L346,157.1" style="fill: none;"/><path d=" M394,143.29 L410,143.29" style="fill: none;"/></g></g><g class="arrow-line"><path class="connection real" stroke-dasharray="" d="  M227.05,71.48 L260.64,71.48" style="stroke: rgb(0, 0, 0); stroke-width: 2; fill: none; fill-opacity: 1;"/><g stroke="#000" fill="#000" transform="matrix(1,0,0,1,260.6350450515747,71.47588348388672)" style="stroke: rgb(0, 0, 0); fill: rgb(0, 0, 0); stroke-width: 2;"><circle cx="0" cy="0" r="4.355"/></g></g><g class="arrow-line"><path class="connection real" stroke-dasharray="" d="  M227.05,157.1 L330,157.1" style="stroke: rgb(0, 0, 0); stroke-width: 2; fill: none; fill-opacity: 1;"/></g><g class="arrow-line"><path class="connection real" stroke-dasharray="" d="  M227.05,99.1 L330,99.1" style="stroke: rgb(0, 0, 0); stroke-width: 2; fill: none; fill-opacity: 1;"/></g><g class="arrow-line"><path class="connection real" stroke-dasharray="" d="  M227.05,129.48 L330,129.48" style="stroke: rgb(0, 0, 0); stroke-width: 2; fill: none; fill-opacity: 1;"/></g><g class="arrow-line"><path class="connection real" stroke-dasharray="" d="  M290.05,71.48 L290.05,157.1" style="stroke: rgb(0, 0, 0); stroke-width: 2; fill: none; fill-opacity: 1;"/><g stroke="#000" fill="#000" transform="matrix(6.123233995736766e-17,1,-1,6.123233995736766e-17,290.046875,157.09517669677734)" style="stroke: rgb(0, 0, 0); fill: rgb(0, 0, 0); stroke-width: 2;"><circle cx="0" cy="0" r="4.355"/></g></g><g class="arrow-line"><path class="connection real" stroke-dasharray="" d="  M290.05,71.48 L330,71.48" style="stroke: rgb(0, 0, 0); stroke-width: 2; fill: none; fill-opacity: 1;"/><g stroke="#000" fill="#000" transform="matrix(1,0,0,1,290.046875,71.47588348388672)" style="stroke: rgb(0, 0, 0); fill: rgb(0, 0, 0); stroke-width: 2;"><circle cx="0" cy="0" r="4.355"/></g></g><g class="composite-shape"><path class="real" d=" M240.96,54.32 L402.45,54.32 L402.45,173.46 L240.96,173.46 Z" style="stroke-width: 2; stroke: rgb(155, 155, 155); fill: none; fill-opacity: 1; stroke-opacity: 1; stroke-dasharray: 2.25, 3.685;"/></g><g/></g><g/><g/><g/></svg>
        <svg xmlns="http://www.w3.org/2000/svg" xmlns:xlink="http://www.w3.org/1999/xlink" width="700" height="300" style="width:700px;height:300px;font-family:LatinModern-Math, LatinModern, Asana-Math, Asana;background:transparent;"><g><g><g><g transform="matrix(1,0,0,1,413.22543811798096,90.42819595336914)"><path transform="matrix(0.017,0,0,-0.017,0,0)" d="M740 436C740 597 634 705 485 705C269 705 49 478 49 245C49 79 161 -22 305 -22C517 -22 740 197 740 436ZM651 475C651 403 624 247 525 124C477 63 395 4 311 4C212 4 142 85 142 217C142 261 156 407 233 524C302 628 400 680 479 680C561 680 651 624 651 475Z" stroke="rgb(0,0,0)" stroke-opacity="1" stroke-width="8" fill="rgb(0,0,0)" fill-opacity="1"/></g></g><g><g><g><g><g transform="matrix(1,0,0,1,426.70200061798096,94.02425613403321)"><path transform="matrix(0.0119,0,0,-0.0119,0,0)" d="M460 320C460 400 455 480 420 554C374 650 292 666 250 666C190 666 117 640 76 547C44 478 39 400 39 320C39 245 43 155 84 79C127 -2 200 -22 249 -22C303 -22 379 -1 423 94C455 163 460 241 460 320ZM377 332C377 257 377 189 366 125C351 30 294 0 249 0C210 0 151 25 133 121C122 181 122 273 122 332C122 396 122 462 130 516C149 635 224 644 249 644C282 644 348 626 367 527C377 471 377 395 377 332Z" stroke="rgb(0,0,0)" stroke-opacity="1" stroke-width="8" fill="rgb(0,0,0)" fill-opacity="1"/></g></g></g></g></g></g></g><g><g><g><g transform="matrix(1,0,0,1,414.0345811843872,148.04539108276367)"><path transform="matrix(0.017,0,0,-0.017,0,0)" d="M740 436C740 597 634 705 485 705C269 705 49 478 49 245C49 79 161 -22 305 -22C517 -22 740 197 740 436ZM651 475C651 403 624 247 525 124C477 63 395 4 311 4C212 4 142 85 142 217C142 261 156 407 233 524C302 628 400 680 479 680C561 680 651 624 651 475Z" stroke="rgb(0,0,0)" stroke-opacity="1" stroke-width="8" fill="rgb(0,0,0)" fill-opacity="1"/></g></g><g><g><g><g><g transform="matrix(1,0,0,1,427.5111436843872,151.64143600463868)"><path transform="matrix(0.0119,0,0,-0.0119,0,0)" d="M419 0L419 31L387 31C297 31 294 42 294 79L294 640C294 664 294 666 271 666C209 602 121 602 89 602L89 571C109 571 168 571 220 597L220 79C220 43 217 31 127 31L95 31L95 0C130 3 217 3 257 3C297 3 384 3 419 0Z" stroke="rgb(0,0,0)" stroke-opacity="1" stroke-width="8" fill="rgb(0,0,0)" fill-opacity="1"/></g></g></g></g></g></g></g><g><g><g><g transform="matrix(1,0,0,1,207.93340015411377,104.09077072143555)"><path transform="matrix(0.017,0,0,-0.017,0,0)" d="M497 671C497 683 486 683 482 683L350 680L217 683C210 683 197 683 197 663C197 652 206 652 225 652C267 652 294 652 294 633C294 628 294 626 292 617L157 78C148 41 145 31 66 31C43 31 34 31 34 11C34 0 46 0 49 0L180 3L314 0C322 0 334 0 334 19C334 31 326 31 304 31C286 31 281 31 261 33C240 35 236 39 236 50C236 58 238 66 240 73L374 606C383 642 386 652 465 652C489 652 497 652 497 671Z" stroke="rgb(0,0,0)" stroke-opacity="1" stroke-width="8" fill="rgb(0,0,0)" fill-opacity="1"/></g></g><g><g><g><g><g transform="matrix(1,0,0,1,215.92261219024658,107.68683090209962)"><path transform="matrix(0.0119,0,0,-0.0119,0,0)" d="M419 0L419 31L387 31C297 31 294 42 294 79L294 640C294 664 294 666 271 666C209 602 121 602 89 602L89 571C109 571 168 571 220 597L220 79C220 43 217 31 127 31L95 31L95 0C130 3 217 3 257 3C297 3 384 3 419 0Z" stroke="rgb(0,0,0)" stroke-opacity="1" stroke-width="8" fill="rgb(0,0,0)" fill-opacity="1"/></g></g></g></g></g></g></g><g><g><g><g transform="matrix(1,0,0,1,207.93340015411377,162.08929061889648)"><path transform="matrix(0.017,0,0,-0.017,0,0)" d="M497 671C497 683 486 683 482 683L350 680L217 683C210 683 197 683 197 663C197 652 206 652 225 652C267 652 294 652 294 633C294 628 294 626 292 617L157 78C148 41 145 31 66 31C43 31 34 31 34 11C34 0 46 0 49 0L180 3L314 0C322 0 334 0 334 19C334 31 326 31 304 31C286 31 281 31 261 33C240 35 236 39 236 50C236 58 238 66 240 73L374 606C383 642 386 652 465 652C489 652 497 652 497 671Z" stroke="rgb(0,0,0)" stroke-opacity="1" stroke-width="8" fill="rgb(0,0,0)" fill-opacity="1"/></g></g><g><g><g><g><g transform="matrix(1,0,0,1,215.92261219024658,165.6853355407715)"><path transform="matrix(0.0119,0,0,-0.0119,0,0)" d="M457 171C457 253 394 331 290 352C372 379 430 449 430 528C430 610 342 666 246 666C145 666 69 606 69 530C69 497 91 478 120 478C151 478 171 500 171 529C171 579 124 579 109 579C140 628 206 641 242 641C283 641 338 619 338 529C338 517 336 459 310 415C280 367 246 364 221 363C213 362 189 360 182 360C174 359 167 358 167 348C167 337 174 337 191 337L235 337C317 337 354 269 354 171C354 35 285 6 241 6C198 6 123 23 88 82C123 77 154 99 154 137C154 173 127 193 98 193C74 193 42 179 42 135C42 44 135 -22 244 -22C366 -22 457 69 457 171Z" stroke="rgb(0,0,0)" stroke-opacity="1" stroke-width="8" fill="rgb(0,0,0)" fill-opacity="1"/></g></g></g></g></g></g></g><g><g><g><g transform="matrix(1,0,0,1,207.93340015411377,76.4680061340332)"><path transform="matrix(0.017,0,0,-0.017,0,0)" d="M497 671C497 683 486 683 482 683L350 680L217 683C210 683 197 683 197 663C197 652 206 652 225 652C267 652 294 652 294 633C294 628 294 626 292 617L157 78C148 41 145 31 66 31C43 31 34 31 34 11C34 0 46 0 49 0L180 3L314 0C322 0 334 0 334 19C334 31 326 31 304 31C286 31 281 31 261 33C240 35 236 39 236 50C236 58 238 66 240 73L374 606C383 642 386 652 465 652C489 652 497 652 497 671Z" stroke="rgb(0,0,0)" stroke-opacity="1" stroke-width="8" fill="rgb(0,0,0)" fill-opacity="1"/></g></g><g><g><g><g><g transform="matrix(1,0,0,1,215.92261219024658,80.06405868530274)"><path transform="matrix(0.0119,0,0,-0.0119,0,0)" d="M460 320C460 400 455 480 420 554C374 650 292 666 250 666C190 666 117 640 76 547C44 478 39 400 39 320C39 245 43 155 84 79C127 -2 200 -22 249 -22C303 -22 379 -1 423 94C455 163 460 241 460 320ZM377 332C377 257 377 189 366 125C351 30 294 0 249 0C210 0 151 25 133 121C122 181 122 273 122 332C122 396 122 462 130 516C149 635 224 644 249 644C282 644 348 626 367 527C377 471 377 395 377 332Z" stroke="rgb(0,0,0)" stroke-opacity="1" stroke-width="8" fill="rgb(0,0,0)" fill-opacity="1"/></g></g></g></g></g></g></g><g><g><g><g transform="matrix(1,0,0,1,207.93340015411377,134.47581100463867)"><path transform="matrix(0.017,0,0,-0.017,0,0)" d="M497 671C497 683 486 683 482 683L350 680L217 683C210 683 197 683 197 663C197 652 206 652 225 652C267 652 294 652 294 633C294 628 294 626 292 617L157 78C148 41 145 31 66 31C43 31 34 31 34 11C34 0 46 0 49 0L180 3L314 0C322 0 334 0 334 19C334 31 326 31 304 31C286 31 281 31 261 33C240 35 236 39 236 50C236 58 238 66 240 73L374 606C383 642 386 652 465 652C489 652 497 652 497 671Z" stroke="rgb(0,0,0)" stroke-opacity="1" stroke-width="8" fill="rgb(0,0,0)" fill-opacity="1"/></g></g><g><g><g><g><g transform="matrix(1,0,0,1,215.92261219024658,138.07187118530274)"><path transform="matrix(0.0119,0,0,-0.0119,0,0)" d="M449 174L424 174C419 144 412 100 402 85C395 77 329 77 307 77L127 77L233 180C389 318 449 372 449 472C449 586 359 666 237 666C124 666 50 574 50 485C50 429 100 429 103 429C120 429 155 441 155 482C155 508 137 534 102 534C94 534 92 534 89 533C112 598 166 635 224 635C315 635 358 554 358 472C358 392 308 313 253 251L61 37C50 26 50 24 50 0L421 0Z" stroke="rgb(0,0,0)" stroke-opacity="1" stroke-width="8" fill="rgb(0,0,0)" fill-opacity="1"/></g></g></g></g></g></g></g></svg>
</svg>