<svg xmlns="http://www.w3.org/2000/svg" xmlns:xlink="http://www.w3.org/1999/xlink" x="0" y="0" style="         width:701.1904907226562px;         height:301.1904602050781px;         background: transparent;         fill: none; " viewBox="248.64 3.49 441.58 180.29">
        
        
        <svg xmlns="http://www.w3.org/2000/svg" class="role-diagram-draw-area" style="overflow: visible;"><g class="shapes-region" style="stroke: black; fill: none;"><g class="arrow-line"><path class="connection real" stroke-dasharray="" d="  M329.76,157.1 L306.18,157.1 L306.18,99.12" style="stroke: rgb(0, 0, 0); stroke-width: 2; fill: none; fill-opacity: 1;"/><g stroke="#000" fill="#000" transform="matrix(-1.8369701987210297e-16,-1,1,-1.8369701987210297e-16,306.17678833007795,99.11594645182294)" style="stroke: rgb(0, 0, 0); fill: rgb(0, 0, 0); stroke-width: 2;"><circle cx="0" cy="0" r="4.355"/></g></g><g class="arrow-line"><path class="connection real" stroke-dasharray="" d="  M271.48,99.1 L330,99.1" style="stroke: rgb(0, 0, 0); stroke-width: 2; fill: none; fill-opacity: 1;"/></g><g class="arrow-line"><path class="connection real" stroke-dasharray="" d="  M271.48,71.48 L330,71.48" style="stroke: rgb(0, 0, 0); stroke-width: 2; fill: none; fill-opacity: 1;"/></g><g class="composite-shape"><g class="real" style="stroke-width: 2; stroke: rgb(0, 0, 0); fill: none; fill-opacity: 1;"><path d=" M345.81,122.57 L369.9,122.57 C383.19,122.57 393.98,131.85 393.98,143.29 C393.98,154.72 383.19,164 369.9,164 L345.81,164 L345.81,122.57 Z"/><path d=" M329.76,129.48 L345.81,129.48" style="fill: none;"/><path d=" M329.76,157.1 L345.81,157.1" style="fill: none;"/><path d=" M393.98,143.29 L410.04,143.29" style="fill: none;"/></g></g><g class="composite-shape"><g class="real" style="stroke-width: 2; stroke: rgb(0, 0, 0); fill: none; fill-opacity: 1;"><path d=" M342,64.57 L362,64.57 C375.95,64.94 388.42,73.02 394,85.29 C388.42,97.56 375.95,105.63 362,106 L342,106 C350.57,93.18 350.57,77.39 342,64.57 Z"/><path d=" M330,71.48 L346,71.48" style="fill: none;"/><path d=" M330,99.1 L346,99.1" style="fill: none;"/><path d=" M394,85.29 L410,85.29" style="fill: none;"/><path d=" M338,64.57 C346.57,77.39 346.57,93.18 338,106" style="fill: none;"/></g></g><g class="arrow-line"><path class="connection real" stroke-dasharray="" d="  M342.32,129.48 L321.76,129.48 L321.76,71.5" style="stroke: rgb(0, 0, 0); stroke-width: 2; fill: none; fill-opacity: 1;"/><g stroke="#000" fill="#000" transform="matrix(-1.8369701987210297e-16,-1,1,-1.8369701987210297e-16,321.76242428734184,71.49665323893231)" style="stroke: rgb(0, 0, 0); fill: rgb(0, 0, 0); stroke-width: 2;"><circle cx="0" cy="0" r="4.355"/></g></g><g class="arrow-line"><path class="connection real" stroke-dasharray="" d="  M478.26,143.1 L454.68,143.1 L454.68,85.12" style="stroke: rgb(0, 0, 0); stroke-width: 2; fill: none; fill-opacity: 1;"/><g stroke="#000" fill="#000" transform="matrix(-1.8369701987210297e-16,-1,1,-1.8369701987210297e-16,454.67678833007795,85.11594645182294)" style="stroke: rgb(0, 0, 0); fill: rgb(0, 0, 0); stroke-width: 2;"><circle cx="0" cy="0" r="4.355"/></g></g><g class="arrow-line"><path class="connection real" stroke-dasharray="" d="  M410,85.1 L478.5,85.1" style="stroke: rgb(0, 0, 0); stroke-width: 2; fill: none; fill-opacity: 1;"/></g><g class="composite-shape"><g class="real" style="stroke-width: 2; stroke: rgb(0, 0, 0); fill: none; fill-opacity: 1;"><path d=" M494.31,108.57 L518.4,108.57 C531.69,108.57 542.48,117.85 542.48,129.29 C542.48,140.72 531.69,150 518.4,150 L494.31,150 L494.31,108.57 Z"/><path d=" M478.26,115.48 L494.31,115.48" style="fill: none;"/><path d=" M478.26,143.1 L494.31,143.1" style="fill: none;"/><path d=" M542.48,129.29 L558.54,129.29" style="fill: none;"/></g></g><g class="composite-shape"><g class="real" style="stroke-width: 2; stroke: rgb(0, 0, 0); fill: none; fill-opacity: 1;"><path d=" M490.5,50.57 L510.5,50.57 C524.45,50.94 536.92,59.02 542.5,71.29 C536.92,83.56 524.45,91.63 510.5,92 L490.5,92 C499.07,79.18 499.07,63.39 490.5,50.57 Z"/><path d=" M478.5,57.48 L494.5,57.48" style="fill: none;"/><path d=" M478.5,85.1 L494.5,85.1" style="fill: none;"/><path d=" M542.5,71.29 L558.5,71.29" style="fill: none;"/><path d=" M486.5,50.57 C495.07,63.39 495.07,79.18 486.5,92" style="fill: none;"/></g></g><g class="arrow-line"><path class="connection real" stroke-dasharray="" d="  M490.82,115.48 L470.26,115.48 L470.26,57.5" style="stroke: rgb(0, 0, 0); stroke-width: 2; fill: none; fill-opacity: 1;"/><g stroke="#000" fill="#000" transform="matrix(-1.8369701987210297e-16,-1,1,-1.8369701987210297e-16,470.26242428734184,57.49665323893231)" style="stroke: rgb(0, 0, 0); fill: rgb(0, 0, 0); stroke-width: 2;"><circle cx="0" cy="0" r="4.355"/></g></g><g class="composite-shape"><path class="real" d=" M287.05,50.5 L404.05,50.5 L404.05,175.23 L287.05,175.23 Z" style="stroke-width: 2; stroke: rgb(0, 0, 0); fill: rgb(0, 0, 0); fill-opacity: 0.1; stroke-opacity: 0.2;"/></g><g class="arrow-line"><path class="connection real" stroke-dasharray="" d="  M478.26,57.5 L419.36,57.5 L419.36,27.89" style="stroke: rgb(0, 0, 0); stroke-width: 2; fill: none; fill-opacity: 1;"/></g><g class="composite-shape"><g class="real" style="stroke-width: 2; stroke: rgb(0, 0, 0); fill: none; fill-opacity: 1;"><path d=" M585.08,122.38 L605.08,122.38 C619.03,122.75 631.5,130.83 637.08,143.1 C631.5,155.37 619.03,163.44 605.08,163.81 L585.08,163.81 C593.65,150.99 593.65,135.2 585.08,122.38 Z"/><path d=" M573.08,129.29 L589.08,129.29" style="fill: none;"/><path d=" M573.08,156.9 L589.08,156.9" style="fill: none;"/><path d=" M637.08,143.1 L653.08,143.1" style="fill: none;"/></g></g><g class="arrow-line"><path class="connection real" stroke-dasharray="" d="  M558.54,129.29 L589.09,129.29" style="stroke: rgb(0, 0, 0); stroke-width: 2; fill: none; fill-opacity: 1;"/></g><g class="arrow-line"><path class="connection real" stroke-dasharray="" d="  M574.08,156.9 L574.08,182.78 L420.09,182.78 L420.09,143.28 L410.04,143.29" style="stroke: rgb(0, 0, 0); stroke-width: 2; fill: none; fill-opacity: 1;"/></g><g class="arrow-line"><path class="connection real" stroke-dasharray="" d="  M558.5,71.29 L653.08,71.29" style="stroke: rgb(0, 0, 0); stroke-width: 2; fill: none; fill-opacity: 1;"/></g><g class="composite-shape"><path class="real" d=" M445.05,39.36 L551.05,39.36 L551.05,161.36 L445.05,161.36 Z" style="stroke-width: 2; stroke: rgb(0, 0, 0); stroke-opacity: 0.2; fill: rgb(0, 0, 0); fill-opacity: 0.1;"/></g><g/></g><g/><g/><g/></svg>
        <svg xmlns="http://www.w3.org/2000/svg" xmlns:xlink="http://www.w3.org/1999/xlink" width="700" height="300" style="width:700px;height:300px;font-family:LatinModern-Math, LatinModern, Asana-Math, Asana;background:transparent;"><g><g><g><g transform="matrix(1,0,0,1,657.7287750244141,77.43526458740234)"><path transform="matrix(0.017,0,0,-0.017,0,0)" d="M645 695C645 698 643 705 634 705C629 705 628 704 616 690L568 633C542 680 490 705 425 705C298 705 178 590 178 469C178 388 231 342 282 327L389 299C426 290 481 275 481 193C481 103 399 9 301 9C237 9 126 31 126 155C126 179 131 203 132 209C133 213 134 216 134 216C134 226 127 227 122 227C117 227 115 226 112 223C108 219 52 -9 52 -12C52 -18 57 -22 63 -22C68 -22 69 -21 81 -7L130 50C173 -8 241 -22 299 -22C435 -22 553 111 553 235C553 304 519 338 504 352C481 375 466 379 377 402L310 420C283 429 249 458 249 511C249 592 329 677 424 677C507 677 568 634 568 522C568 490 564 472 564 466C564 466 564 456 576 456C586 456 587 459 591 476Z" stroke="rgb(0,0,0)" stroke-opacity="1" stroke-width="8" fill="rgb(0,0,0)" fill-opacity="1"/></g></g></g></g><g><g><g><g transform="matrix(1,0,0,1,657.0405426025391,147.2827377319336)"><path transform="matrix(0.017,0,0,-0.017,0,0)" d="M760 695C760 698 758 705 749 705C746 705 745 704 734 693L664 616C655 630 609 705 498 705C275 705 50 484 50 252C50 87 168 -22 321 -22C408 -22 484 18 537 64C630 146 647 237 647 240C647 250 635 250 635 250C629 250 624 248 622 240C613 211 590 140 521 82C452 26 389 9 337 9C247 9 141 61 141 217C141 274 162 436 262 553C323 624 417 674 506 674C608 674 667 597 667 481C667 441 664 440 664 430C664 420 675 420 679 420C692 420 692 422 697 440Z" stroke="rgb(0,0,0)" stroke-opacity="1" stroke-width="8" fill="rgb(0,0,0)" fill-opacity="1"/></g></g><g><g><g><g><g transform="matrix(1,0,0,1,669.6986236572266,150.28355255126954)"><path transform="matrix(0.0119,0,0,-0.0119,0,0)" d="M471 214C471 342 371 448 250 448C125 448 28 339 28 214C28 85 132 -11 249 -11C370 -11 471 87 471 214ZM388 222C388 186 388 132 366 88C344 43 300 14 250 14C207 14 163 35 136 81C111 125 111 186 111 222C111 261 111 315 135 359C162 405 209 426 249 426C293 426 336 404 362 361C388 318 388 260 388 222ZM1035 0L1035 31C965 31 957 38 957 87L957 442L810 431L810 400C880 400 888 393 888 344L888 166C888 79 840 11 767 11C683 11 679 58 679 110L679 442L532 431L532 400C610 400 610 397 610 308L610 158C610 80 610 -11 762 -11C818 -11 862 17 891 79L891 -11ZM1388 124L1388 181L1363 181L1363 126C1363 52 1333 14 1296 14C1229 14 1229 105 1229 122L1229 400L1372 400L1372 431L1229 431L1229 615L1204 615C1203 533 1173 426 1075 422L1075 400L1160 400L1160 124C1160 1 1253 -11 1289 -11C1360 -11 1388 60 1388 124Z" stroke="rgb(0,0,0)" stroke-opacity="1" stroke-width="8" fill="rgb(0,0,0)" fill-opacity="1"/></g></g></g></g></g></g></g><g><g><g><g transform="matrix(1,0,0,1,252.59486389160156,77.47246551513672)"><path transform="matrix(0.017,0,0,-0.017,0,0)" d="M721 20C721 31 711 31 698 31C636 31 636 38 633 67L572 692C570 712 570 716 553 716C537 716 533 709 527 699L179 115C139 48 100 34 56 31C44 30 35 30 35 11C35 5 40 0 48 0C75 0 106 3 134 3C167 3 202 0 234 0C240 0 253 0 253 19C253 30 244 31 237 31C214 33 190 41 190 66C190 78 196 89 204 103C211 115 212 115 280 231L531 231C533 210 547 74 547 64C547 34 495 31 475 31C461 31 451 31 451 11C451 0 465 0 465 0C506 0 549 3 590 3C615 3 678 0 703 0C709 0 721 0 721 20ZM528 262L299 262L496 592Z" stroke="rgb(0,0,0)" stroke-opacity="1" stroke-width="8" fill="rgb(0,0,0)" fill-opacity="1"/></g></g></g></g><g><g><g><g transform="matrix(1,0,0,1,251.9252166748047,105.80208587646484)"><path transform="matrix(0.017,0,0,-0.017,0,0)" d="M756 545C756 619 690 683 570 683L234 683C215 683 205 683 205 663C205 652 214 652 233 652C233 652 254 652 271 650C289 648 298 647 298 634C298 630 297 627 294 615L160 78C150 39 148 31 69 31C52 31 42 31 42 11C42 0 51 0 69 0L426 0C584 0 702 118 702 216C702 288 644 346 547 357C651 376 756 450 756 545ZM665 549C665 461 579 366 457 366L311 366L373 614C382 649 384 652 427 652L556 652C644 652 665 593 665 549ZM609 227C609 128 520 31 402 31L266 31C252 31 250 31 244 32C234 33 231 34 231 42C231 45 231 47 236 65L305 344L494 344C590 344 609 270 609 227Z" stroke="rgb(0,0,0)" stroke-opacity="1" stroke-width="8" fill="rgb(0,0,0)" fill-opacity="1"/></g></g></g></g><g><g><g><g transform="matrix(1,0,0,1,408.59376525878906,19.473953247070312)"><path transform="matrix(0.017,0,0,-0.017,0,0)" d="M760 695C760 698 758 705 749 705C746 705 745 704 734 693L664 616C655 630 609 705 498 705C275 705 50 484 50 252C50 87 168 -22 321 -22C408 -22 484 18 537 64C630 146 647 237 647 240C647 250 635 250 635 250C629 250 624 248 622 240C613 211 590 140 521 82C452 26 389 9 337 9C247 9 141 61 141 217C141 274 162 436 262 553C323 624 417 674 506 674C608 674 667 597 667 481C667 441 664 440 664 430C664 420 675 420 679 420C692 420 692 422 697 440Z" stroke="rgb(0,0,0)" stroke-opacity="1" stroke-width="8" fill="rgb(0,0,0)" fill-opacity="1"/></g></g><g><g><g><g><g transform="matrix(1,0,0,1,421.25184631347656,22.47477569580078)"><path transform="matrix(0.0119,0,0,-0.0119,0,0)" d="M247 0L247 31C181 31 177 36 177 75L177 442L37 431L37 400C102 400 111 394 111 345L111 76C111 31 100 31 33 31L33 0L143 3C178 3 213 1 247 0ZM192 604C192 631 169 657 139 657C105 657 85 629 85 604C85 577 108 551 138 551C172 551 192 579 192 604ZM813 0L813 31C761 31 736 31 735 61L735 252C735 338 735 369 704 405C690 422 657 442 599 442C526 442 479 399 451 337L451 442L310 431L310 400C380 400 388 393 388 344L388 76C388 31 377 31 310 31L310 0L423 3L535 0L535 31C468 31 457 31 457 76L457 260C457 364 528 420 592 420C655 420 666 366 666 309L666 76C666 31 655 31 588 31L588 0L701 3Z" stroke="rgb(0,0,0)" stroke-opacity="1" stroke-width="8" fill="rgb(0,0,0)" fill-opacity="1"/></g></g></g></g></g></g></g></svg>
</svg>