<?xml version="1.0" encoding="UTF-8" standalone="no"?><!DOCTYPE svg PUBLIC "-//W3C//DTD SVG 1.1//EN" "http://www.w3.org/Graphics/SVG/1.1/DTD/svg11.dtd"><!-- Generated by graphviz version 2.40.1 (20161225.0304)
 --><!-- Title: G Pages: 1 --><svg xmlns="http://www.w3.org/2000/svg" xmlns:xlink="http://www.w3.org/1999/xlink" width="241pt" height="441pt" viewBox="0.00 0.00 240.92 440.80">
<g id="graph0" class="graph" transform="scale(1 1) rotate(0) translate(4 436.8)">
<title>G</title>
<polygon fill="#ffffff" stroke="transparent" points="-4,4 -4,-436.8 236.923,-436.8 236.923,4 -4,4"/>
<text text-anchor="middle" x="116.4615" y="-416.2" font-family="Times,serif" font-size="14.00" fill="#000000">Outermost Lexical, Innermost Reverse</text>
<!-- u -->
<g id="node1" class="node">
<title>u</title>
<ellipse fill="none" stroke="#000000" cx="108.4892" cy="-373.2" rx="18" ry="18"/>
<text text-anchor="middle" x="108.4892" y="-369" font-family="Times,serif" font-size="14.00" fill="#000000">u</text>
<text text-anchor="middle" x="73.5786" y="-395.4" font-family="Times,serif" font-size="14.00" fill="#000000">(1,10)</text>
</g>
<!-- y -->
<g id="node2" class="node">
<title>y</title>
<ellipse fill="none" stroke="#000000" cx="106.4892" cy="-106.8" rx="18" ry="18"/>
<text text-anchor="middle" x="106.4892" y="-102.6" font-family="Times,serif" font-size="14.00" fill="#000000">y</text>
<text text-anchor="middle" x="75.0786" y="-129" font-family="Times,serif" font-size="14.00" fill="#000000">(2,5)</text>
</g>
<!-- u&#45;&gt;y -->
<g id="edge1" class="edge">
<title>u-&gt;y</title>
<path fill="none" stroke="#00ff00" d="M94.3368,-361.9524C79.6524,-349.2869 57.5872,-327.2078 48.4892,-302.4 26.0599,-241.2411 65.7926,-167.0042 89.9473,-130.0454"/>
<polygon fill="#00ff00" stroke="#00ff00" points="93.0294,-131.7342 95.7054,-121.4829 87.2206,-127.8279 93.0294,-131.7342"/>
<text text-anchor="middle" x="58.3104" y="-235.8" font-family="Times,serif" font-size="14.00" fill="#00ff00">Tree</text>
</g>
<!-- x -->
<g id="node4" class="node">
<title>x</title>
<ellipse fill="none" stroke="#000000" cx="75.4892" cy="-284.4" rx="18" ry="18"/>
<text text-anchor="middle" x="75.4892" y="-280.2" font-family="Times,serif" font-size="14.00" fill="#000000">x</text>
<text text-anchor="middle" x="44.0786" y="-306.6" font-family="Times,serif" font-size="14.00" fill="#000000">(6,9)</text>
</g>
<!-- u&#45;&gt;x -->
<g id="edge4" class="edge">
<title>u-&gt;x</title>
<path fill="none" stroke="#00ff00" d="M99.3886,-357.4098C96.0803,-351.2402 92.5051,-344.0201 89.8468,-337.2 86.7419,-329.2341 84.0456,-320.3434 81.8543,-312.1626"/>
<polygon fill="#00ff00" stroke="#00ff00" points="85.2051,-311.1371 79.3561,-302.3031 78.4196,-312.8565 85.2051,-311.1371"/>
<text text-anchor="middle" x="102.3104" y="-324.6" font-family="Times,serif" font-size="14.00" fill="#00ff00">Tree</text>
</g>
<!-- v -->
<g id="node5" class="node">
<title>v</title>
<ellipse fill="none" stroke="#000000" cx="106.4892" cy="-195.6" rx="18" ry="18"/>
<text text-anchor="middle" x="106.4892" y="-191.4" font-family="Times,serif" font-size="14.00" fill="#000000">v</text>
<text text-anchor="middle" x="75.0786" y="-217.8" font-family="Times,serif" font-size="14.00" fill="#000000">(7,8)</text>
</g>
<!-- u&#45;&gt;v -->
<g id="edge7" class="edge">
<title>u-&gt;v</title>
<path fill="none" stroke="#0000ff" d="M112.6616,-355.3538C113.8192,-349.5937 114.9154,-343.1575 115.4892,-337.2 119.989,-290.4829 121.2237,-278.1817 115.4892,-231.6 115.135,-228.7227 114.6272,-225.7445 114.0308,-222.7899"/>
<polygon fill="#0000ff" stroke="#0000ff" points="117.4318,-221.9623 111.756,-213.016 110.614,-223.5491 117.4318,-221.9623"/>
<text text-anchor="middle" x="142.2017" y="-280.2" font-family="Times,serif" font-size="14.00" fill="#0000ff">Forward</text>
</g>
<!-- y&#45;&gt;u -->
<g id="edge3" class="edge">
<title>y-&gt;u</title>
<path fill="none" stroke="#ff0000" d="M121.1398,-117.9727C128.6218,-124.436 137.2324,-133.1828 142.4892,-142.8 160.1197,-175.0546 185.7215,-258.6915 169.4892,-302.4 161.7455,-323.2515 144.8018,-342.0744 130.7325,-355.0616"/>
<polygon fill="#ff0000" stroke="#ff0000" points="128.0496,-352.7615 122.8721,-362.0051 132.6839,-358.0078 128.0496,-352.7615"/>
<text text-anchor="middle" x="187.8721" y="-235.8" font-family="Times,serif" font-size="14.00" fill="#ff0000">Back</text>
</g>
<!-- z -->
<g id="node3" class="node">
<title>z</title>
<ellipse fill="none" stroke="#000000" cx="106.4892" cy="-18" rx="18" ry="18"/>
<text text-anchor="middle" x="106.4892" y="-13.8" font-family="Times,serif" font-size="14.00" fill="#000000">z</text>
<text text-anchor="middle" x="75.0786" y="-40.2" font-family="Times,serif" font-size="14.00" fill="#000000">(3,4)</text>
</g>
<!-- y&#45;&gt;z -->
<g id="edge2" class="edge">
<title>y-&gt;z</title>
<path fill="none" stroke="#00ff00" d="M106.4892,-88.4006C106.4892,-76.2949 106.4892,-60.2076 106.4892,-46.4674"/>
<polygon fill="#00ff00" stroke="#00ff00" points="109.9893,-46.072 106.4892,-36.072 102.9893,-46.0721 109.9893,-46.072"/>
<text text-anchor="middle" x="119.3104" y="-58.2" font-family="Times,serif" font-size="14.00" fill="#00ff00">Tree</text>
</g>
<!-- x&#45;&gt;v -->
<g id="edge5" class="edge">
<title>x-&gt;v</title>
<path fill="none" stroke="#00ff00" d="M79.5472,-266.5689C82.0964,-256.2253 85.6858,-243.0253 89.8468,-231.6 91.0861,-228.1973 92.5185,-224.6732 94.0126,-221.2213"/>
<polygon fill="#00ff00" stroke="#00ff00" points="97.323,-222.3965 98.2767,-211.8446 90.951,-219.4987 97.323,-222.3965"/>
<text text-anchor="middle" x="102.3104" y="-235.8" font-family="Times,serif" font-size="14.00" fill="#00ff00">Tree</text>
</g>
<!-- v&#45;&gt;y -->
<g id="edge6" class="edge">
<title>v-&gt;y</title>
<path fill="none" stroke="#c0c0c0" d="M106.4892,-177.2006C106.4892,-165.0949 106.4892,-149.0076 106.4892,-135.2674"/>
<polygon fill="#c0c0c0" stroke="#c0c0c0" points="109.9893,-134.872 106.4892,-124.872 102.9893,-134.8721 109.9893,-134.872"/>
<text text-anchor="middle" x="122.4324" y="-147" font-family="Times,serif" font-size="14.00" fill="#c0c0c0">Cross</text>
</g>
</g>
</svg>