<?xml version="1.0" encoding="UTF-8" standalone="no"?><!DOCTYPE svg PUBLIC "-//W3C//DTD SVG 1.1//EN" "http://www.w3.org/Graphics/SVG/1.1/DTD/svg11.dtd"><!-- Generated by graphviz version 2.40.1 (20161225.0304)
 --><!-- Title: G Pages: 1 --><svg xmlns="http://www.w3.org/2000/svg" xmlns:xlink="http://www.w3.org/1999/xlink" width="219pt" height="352pt" viewBox="0.00 0.00 218.59 352.00">
<g id="graph0" class="graph" transform="scale(1 1) rotate(0) translate(4 348)">
<title>G</title>
<polygon fill="#ffffff" stroke="transparent" points="-4,4 -4,-348 214.587,-348 214.587,4 -4,4"/>
<text text-anchor="middle" x="105.2935" y="-327.4" font-family="Times,serif" font-size="14.00" fill="#000000">Reverse</text>
<!-- y -->
<g id="node1" class="node">
<title>y</title>
<ellipse fill="none" stroke="#000000" cx="123.8212" cy="-284.4" rx="18" ry="18"/>
<text text-anchor="middle" x="123.8212" y="-280.2" font-family="Times,serif" font-size="14.00" fill="#000000">y</text>
<text text-anchor="middle" x="88.9106" y="-306.6" font-family="Times,serif" font-size="14.00" fill="#000000">(3,10)</text>
</g>
<!-- z -->
<g id="node2" class="node">
<title>z</title>
<ellipse fill="none" stroke="#000000" cx="44.8212" cy="-195.6" rx="18" ry="18"/>
<text text-anchor="middle" x="44.8212" y="-191.4" font-family="Times,serif" font-size="14.00" fill="#000000">z</text>
<text text-anchor="middle" x="13.4106" y="-217.8" font-family="Times,serif" font-size="14.00" fill="#000000">(1,2)</text>
</g>
<!-- y&#45;&gt;z -->
<g id="edge1" class="edge">
<title>y-&gt;z</title>
<path fill="none" stroke="#c0c0c0" d="M106.9292,-277.9872C93.5748,-272.1305 75.3413,-262.2646 63.9348,-248.4 58.0585,-241.2574 53.9126,-232.157 51.0216,-223.5309"/>
<polygon fill="#c0c0c0" stroke="#c0c0c0" points="54.3345,-222.3892 48.1757,-213.7683 47.6142,-224.3482 54.3345,-222.3892"/>
<text text-anchor="middle" x="80.7644" y="-235.8" font-family="Times,serif" font-size="14.00" fill="#c0c0c0">Cross</text>
</g>
<!-- u -->
<g id="node3" class="node">
<title>u</title>
<ellipse fill="none" stroke="#000000" cx="108.8212" cy="-195.6" rx="18" ry="18"/>
<text text-anchor="middle" x="108.8212" y="-191.4" font-family="Times,serif" font-size="14.00" fill="#000000">u</text>
<text text-anchor="middle" x="77.4106" y="-217.8" font-family="Times,serif" font-size="14.00" fill="#000000">(4,9)</text>
</g>
<!-- y&#45;&gt;u -->
<g id="edge2" class="edge">
<title>y-&gt;u</title>
<path fill="none" stroke="#00ff00" d="M112.3233,-270.2429C107.9258,-263.948 103.4289,-256.2039 101.1788,-248.4 98.8333,-240.2652 99.137,-231.2081 100.4972,-222.9245"/>
<polygon fill="#00ff00" stroke="#00ff00" points="103.9562,-223.4891 102.6652,-212.9732 97.1167,-221.9989 103.9562,-223.4891"/>
<text text-anchor="middle" x="114.6424" y="-235.8" font-family="Times,serif" font-size="14.00" fill="#00ff00">Tree</text>
</g>
<!-- u&#45;&gt;y -->
<g id="edge3" class="edge">
<title>u-&gt;y</title>
<path fill="none" stroke="#ff0000" d="M118.5569,-211.1228C121.8678,-217.2596 125.1515,-224.5272 126.8212,-231.6 128.6986,-239.5529 128.9081,-248.3577 128.3824,-256.4609"/>
<polygon fill="#ff0000" stroke="#ff0000" points="124.8833,-256.2738 127.3463,-266.5784 131.8469,-256.987 124.8833,-256.2738"/>
<text text-anchor="middle" x="143.2041" y="-235.8" font-family="Times,serif" font-size="14.00" fill="#ff0000">Back</text>
</g>
<!-- x -->
<g id="node4" class="node">
<title>x</title>
<ellipse fill="none" stroke="#000000" cx="63.8212" cy="-106.8" rx="18" ry="18"/>
<text text-anchor="middle" x="63.8212" y="-102.6" font-family="Times,serif" font-size="14.00" fill="#000000">x</text>
<text text-anchor="middle" x="32.4106" y="-129" font-family="Times,serif" font-size="14.00" fill="#000000">(5,8)</text>
</g>
<!-- u&#45;&gt;x -->
<g id="edge4" class="edge">
<title>u-&gt;x</title>
<path fill="none" stroke="#00ff00" d="M95.6469,-182.9628C89.5603,-176.4844 82.6969,-168.1664 78.1788,-159.6 74.083,-151.8343 71.0732,-142.7939 68.8992,-134.4115"/>
<polygon fill="#00ff00" stroke="#00ff00" points="72.3039,-133.5998 66.6449,-124.6429 65.4832,-135.1738 72.3039,-133.5998"/>
<text text-anchor="middle" x="91.6424" y="-147" font-family="Times,serif" font-size="14.00" fill="#00ff00">Tree</text>
</g>
<!-- v -->
<g id="node5" class="node">
<title>v</title>
<ellipse fill="none" stroke="#000000" cx="117.8212" cy="-18" rx="18" ry="18"/>
<text text-anchor="middle" x="117.8212" y="-13.8" font-family="Times,serif" font-size="14.00" fill="#000000">v</text>
<text text-anchor="middle" x="86.4106" y="-40.2" font-family="Times,serif" font-size="14.00" fill="#000000">(6,7)</text>
</g>
<!-- u&#45;&gt;v -->
<g id="edge7" class="edge">
<title>u-&gt;v</title>
<path fill="none" stroke="#0000ff" d="M109.7337,-177.5934C111.3037,-146.612 114.527,-83.006 116.3955,-46.1346"/>
<polygon fill="#0000ff" stroke="#0000ff" points="119.8956,-46.2186 116.9063,-36.0543 112.9046,-45.8643 119.8956,-46.2186"/>
<text text-anchor="middle" x="138.5337" y="-102.6" font-family="Times,serif" font-size="14.00" fill="#0000ff">Forward</text>
</g>
<!-- x&#45;&gt;v -->
<g id="edge5" class="edge">
<title>x-&gt;v</title>
<path fill="none" stroke="#00ff00" d="M66.1445,-88.6723C68.1274,-77.9825 71.7291,-64.5313 78.1788,-54 82.5487,-46.8647 88.7456,-40.297 94.9449,-34.7796"/>
<polygon fill="#00ff00" stroke="#00ff00" points="97.192,-37.4631 102.6612,-28.389 92.727,-32.0719 97.192,-37.4631"/>
<text text-anchor="middle" x="91.6424" y="-58.2" font-family="Times,serif" font-size="14.00" fill="#00ff00">Tree</text>
</g>
<!-- v&#45;&gt;y -->
<g id="edge6" class="edge">
<title>v-&gt;y</title>
<path fill="none" stroke="#ff0000" d="M130.288,-31.0693C142.053,-44.3831 158.891,-66.2281 165.8212,-88.8 186.6471,-156.6305 190.9085,-183.6804 161.8212,-248.4 158.5429,-255.6943 153.0282,-262.2277 147.202,-267.6614"/>
<polygon fill="#ff0000" stroke="#ff0000" points="144.6426,-265.2407 139.2448,-274.3574 149.1498,-270.5966 144.6426,-265.2407"/>
<text text-anchor="middle" x="196.2041" y="-147" font-family="Times,serif" font-size="14.00" fill="#ff0000">Back</text>
</g>
</g>
</svg>