<svg xmlns="http://www.w3.org/2000/svg" xmlns:xlink="http://www.w3.org/1999/xlink" x="0" y="0" style="         width:701.1904296875px;         height:301.1904703776042px;         background: transparent;         fill: none; " viewBox="202.84 64.68 176.33 82.85">
        
        
        <svg xmlns="http://www.w3.org/2000/svg" class="role-diagram-draw-area" style="overflow: visible;"><g class="shapes-region" style="stroke: black; fill: none;"><g class="composite-shape"><g class="real" style="stroke-width: 1; stroke: rgb(0, 0, 0); fill: none; fill-opacity: 1;"><path d=" M223.02,91.58 L230.53,91.58 L232.2,85.87 L235.53,97.28 L238.87,85.87 L242.2,97.28 L245.54,85.87 L248.88,97.28 L252.21,85.87 L255.55,97.28 L257.22,91.58 L264.73,91.58" style="fill: none;"/></g></g><g class="composite-shape"><g class="real" style="stroke-width: 1; stroke: rgb(0, 0, 0); fill: none; fill-opacity: 1;"><path d=" M317.02,91.58 L324.53,91.58 L326.2,85.87 L329.53,97.28 L332.87,85.87 L336.2,97.28 L339.54,85.87 L342.88,97.28 L346.21,85.87 L349.55,97.28 L351.22,91.58 L358.73,91.58" style="fill: none;"/></g></g><g class="arrow-line"><path class="connection real" stroke-dasharray="1.125 3.35" d="  M264.73,91.58 L317.02,91.58" style="stroke: rgb(0, 0, 0); stroke-width: 1; fill: none; fill-opacity: 1;"/></g><g class="composite-shape"><g class="real" style="stroke-width: 1; stroke: rgb(0, 0, 0); fill: rgb(0, 0, 0); fill-opacity: 1;"><path d=" M309,121.24 L292.8,121.24" style="fill: none;"/><path d=" M289.2,130.15 L289.2,112.34" style="fill: none;"/><path d=" M289.2,121.24 L273,121.24" style="fill: none;"/><path d=" M294.24,125.69 L292.8,125.69 L292.8,116.79 L294.24,116.79 L294.24,125.69 Z"/></g></g><g class="arrow-line"><path class="connection real" stroke-dasharray="" d="  M223.02,91.58 L203.34,91.58" style="stroke: rgb(0, 0, 0); stroke-width: 1; fill: none; fill-opacity: 1;"/></g><g class="arrow-line"><path class="connection real" stroke-dasharray="" d="  M203.34,91.58 L203.34,121.24" style="stroke: rgb(0, 0, 0); stroke-width: 1; fill: none; fill-opacity: 1;"/></g><g class="arrow-line"><path class="connection real" stroke-dasharray="" d="  M378.41,91.58 L378.41,121.24" style="stroke: rgb(0, 0, 0); stroke-width: 1; fill: none; fill-opacity: 1;"/></g><g class="arrow-line"><path class="connection real" stroke-dasharray="" d="  M378.41,91.58 L358.73,91.58" style="stroke: rgb(0, 0, 0); stroke-width: 1; fill: none; fill-opacity: 1;"/></g><g class="arrow-line"><path class="connection real" stroke-dasharray="" d="  M273,121.24 L203.34,121.24" style="stroke: rgb(0, 0, 0); stroke-width: 1; fill: none; fill-opacity: 1;"/></g><g class="arrow-line"><path class="connection real" stroke-dasharray="" d="  M378.67,121.24 L309,121.24" style="stroke: rgb(0, 0, 0); stroke-width: 1; fill: none; fill-opacity: 1;"/></g><g/></g><g/><g/><g/></svg>
        <svg xmlns="http://www.w3.org/2000/svg" xmlns:xlink="http://www.w3.org/1999/xlink" width="700" height="300" style="width:700px;height:300px;font-family:LatinModern-Math, LatinModern, Asana-Math, Asana;background:transparent;"><g><g><g><g transform="matrix(1,0,0,1,235.50965372721356,76.80885416666666)"><path transform="matrix(0.0119,0,0,-0.0119,0,0)" d="M646 553C646 519 630 450 591 411C565 385 512 353 422 353L310 353L375 614C381 638 384 648 403 651C412 652 444 652 464 652C535 652 646 652 646 553ZM755 93C755 105 743 105 743 105C734 105 732 98 730 91C705 17 662 0 639 0C606 0 599 22 599 61C599 92 605 143 609 175C611 189 613 208 613 222C613 299 546 330 519 340C620 362 739 432 739 533C739 619 649 683 518 683L233 683C213 683 204 683 204 663C204 652 213 652 232 652C232 652 253 652 270 650C288 648 297 647 297 634C297 630 296 627 293 615L159 78C149 39 147 31 68 31C50 31 41 31 41 11C41 0 55 0 55 0L181 3L308 0C316 0 328 0 328 20C328 31 319 31 300 31C263 31 235 31 235 49C235 55 237 60 238 66L304 331L423 331C514 331 532 275 532 240C532 225 524 194 518 171C511 143 502 106 502 86C502 -22 622 -22 635 -22C720 -22 755 79 755 93Z" stroke="rgb(0,0,0)" stroke-opacity="1" stroke-width="8" fill="rgb(0,0,0)" fill-opacity="1"/></g></g><g><g><g><g><g transform="matrix(1,0,0,1,244.9032491048177,79.50745971679687)"><path transform="matrix(0.00833,0,0,-0.00833,0,0)" d="M419 0L419 31L387 31C297 31 294 42 294 79L294 640C294 664 294 666 271 666C209 602 121 602 89 602L89 571C109 571 168 571 220 597L220 79C220 43 217 31 127 31L95 31L95 0C130 3 217 3 257 3C297 3 384 3 419 0Z" stroke="rgb(0,0,0)" stroke-opacity="1" stroke-width="8" fill="rgb(0,0,0)" fill-opacity="1"/></g></g></g></g></g></g></g><g><g><g><g transform="matrix(1,0,0,1,330.5059509277344,76.80885416666666)"><path transform="matrix(0.0119,0,0,-0.0119,0,0)" d="M646 553C646 519 630 450 591 411C565 385 512 353 422 353L310 353L375 614C381 638 384 648 403 651C412 652 444 652 464 652C535 652 646 652 646 553ZM755 93C755 105 743 105 743 105C734 105 732 98 730 91C705 17 662 0 639 0C606 0 599 22 599 61C599 92 605 143 609 175C611 189 613 208 613 222C613 299 546 330 519 340C620 362 739 432 739 533C739 619 649 683 518 683L233 683C213 683 204 683 204 663C204 652 213 652 232 652C232 652 253 652 270 650C288 648 297 647 297 634C297 630 296 627 293 615L159 78C149 39 147 31 68 31C50 31 41 31 41 11C41 0 55 0 55 0L181 3L308 0C316 0 328 0 328 20C328 31 319 31 300 31C263 31 235 31 235 49C235 55 237 60 238 66L304 331L423 331C514 331 532 275 532 240C532 225 524 194 518 171C511 143 502 106 502 86C502 -22 622 -22 635 -22C720 -22 755 79 755 93Z" stroke="rgb(0,0,0)" stroke-opacity="1" stroke-width="8" fill="rgb(0,0,0)" fill-opacity="1"/></g></g><g><g><g><g><g transform="matrix(1,0,0,1,339.89954630533856,79.50745971679687)"><path transform="matrix(0.00833,0,0,-0.00833,0,0)" d="M571 143C571 153 562 153 559 153C549 153 549 150 544 135C524 67 491 11 442 11C425 11 418 21 418 44C418 69 427 93 436 115C455 168 497 278 497 335C497 402 454 442 382 442C292 442 243 378 226 355C221 411 180 442 134 442C88 442 69 403 59 385C43 351 29 292 29 288C29 278 41 278 41 278C51 278 52 279 58 301C75 372 95 420 131 420C151 420 162 407 162 374C162 353 159 342 146 290L88 59C85 44 79 21 79 16C79 -2 93 -11 108 -11C120 -11 138 -3 145 17C146 19 158 66 164 91L186 181C192 203 198 225 203 248L216 298C231 329 284 420 379 420C424 420 433 383 433 350C433 288 384 160 368 117C359 94 358 82 358 71C358 24 393 -11 440 -11C534 -11 571 135 571 143Z" stroke="rgb(0,0,0)" stroke-opacity="1" stroke-width="8" fill="rgb(0,0,0)" fill-opacity="1"/></g></g></g></g></g></g></g><g><g><g><g transform="matrix(1,0,0,1,286.8396504720052,143.27091064453126)"><path transform="matrix(0.0119,0,0,-0.0119,0,0)" d="M769 671C769 679 764 683 756 683C730 683 701 680 674 680C641 680 607 683 575 683C569 683 556 683 556 664C556 653 565 652 572 652C599 650 618 640 618 619C618 604 603 581 603 581L296 93L228 622C228 639 251 652 297 652C311 652 322 652 322 672C322 681 314 683 308 683C268 683 225 680 184 680C166 680 147 681 129 681C111 681 92 683 75 683C68 683 56 683 56 664C56 652 65 652 81 652C137 652 138 643 141 618L220 1C223 -19 227 -22 240 -22C256 -22 260 -17 268 -4L628 569C677 647 719 650 756 652C768 653 769 671 769 671Z" stroke="rgb(0,0,0)" stroke-opacity="1" stroke-width="8" fill="rgb(0,0,0)" fill-opacity="1"/></g></g></g></g></svg>
</svg>