<svg xmlns="http://www.w3.org/2000/svg" xmlns:xlink="http://www.w3.org/1999/xlink" x="0" y="0" style="         width:701.1111328125px;         height:247.5955078125px;         background: transparent;         fill: none; " viewBox="79.01 2.34 334.68 203.93">
        
        
        <svg xmlns="http://www.w3.org/2000/svg" class="role-diagram-draw-area" style="overflow: visible;"><g class="shapes-region" style="stroke: black; fill: none;"><g class="composite-shape axis2d" style="stroke-width: 1; stroke: rgb(0, 0, 0);"><path class="real" d=" M106.1,187.05 L383.47,187.05 M133.83,18.61 L133.83,205.77"/><path d=" M376.47,182.05 L383.47,187.05 L376.47,192.05"/><path d=" M128.83,25.61 L133.83,18.61 L138.83,25.61"/></g><g class="arrow-line"><path class="connection real" stroke-dasharray="1.125 3.35" d="  M191.39,128.33 L191.39,186.63" style="stroke: rgb(155, 155, 155); stroke-opacity: 1; stroke-width: 1; fill: none; fill-opacity: 1;"/></g><g class="arrow-line"><path class="connection real" stroke-dasharray="1.125 3.35" d="  M233.06,81.28 L233.06,186.63" style="stroke: rgb(155, 155, 155); stroke-opacity: 1; stroke-width: 1; fill: none; fill-opacity: 1;"/></g><g class="composite-shape"><path class="real" d=" M233.46,127.88 Q239.98,127.88 239.98,121.36 L239.98,121.36 Q239.98,112.05 246.5,112.05 Q239.98,112.05 239.98,102.73 M239.98,105.53 L239.98,102.73 Q239.98,96.21 233.46,96.21" style="stroke-width: 1; stroke: rgb(58, 169, 159); stroke-opacity: 1; fill: none; fill-opacity: 1;"/></g><g class="arrow-line"><path class="connection real" stroke-dasharray="1.125 3.35" d="  M133.83,128.33 L379.13,128.33" style="stroke: rgb(155, 155, 155); stroke-opacity: 1; stroke-width: 1; fill: none; fill-opacity: 1;"/></g><g class="arrow-line"><path class="connection real" stroke-dasharray="1.125 3.35" d="  M133.83,81.33 L378.73,81.33" style="stroke: rgb(155, 155, 155); stroke-opacity: 1; stroke-width: 1; fill: none; fill-opacity: 1;"/></g><g class="composite-shape"><path class="real" d=" M232.66,96.61 L232.66,128.33 L191.39,128.33" style="stroke-width: 1; stroke: rgb(0, 0, 0); fill: none; fill-opacity: 1;"/></g><g class="arrow-line"><path class="connection real" stroke-dasharray="" d="  M145.33,149.58 C189.33,147.58 260.66,58.92 260,24.92" style="stroke: rgb(2, 122, 255); stroke-opacity: 1; stroke-width: 2; fill: none; fill-opacity: 1;"/></g><g class="arrow-line"><path class="connection real" stroke-dasharray="" d="  M286.47,52.61 L157.88,154.65" style="stroke: rgb(251, 70, 76); stroke-opacity: 1; stroke-width: 2; fill: none; fill-opacity: 1;"/></g><g class="composite-shape"><path class="real" d=" M191.39,128.94 Q191.39,135.94 198.39,135.94 L202.06,135.94 Q212.06,135.94 212.06,142.94 Q212.06,135.94 222.06,135.94 M219.06,135.94 L225.73,135.94 Q232.73,135.94 232.73,128.94" style="stroke-width: 1; stroke: rgb(155, 155, 155); stroke-opacity: 1; fill: none; fill-opacity: 1;"/></g><g class="arrow-line"><path class="connection real" stroke-dasharray="1.125 3.35" d="  M232.66,96.61 L260.33,96.61" style="stroke: rgb(155, 155, 155); stroke-opacity: 1; stroke-width: 1; fill: none; fill-opacity: 1;"/></g><g class="composite-shape"><path class="real" d=" M261.66,95.88 Q264.67,95.88 264.67,92.87 L264.67,92.87 Q264.67,88.57 267.68,88.57 Q264.67,88.57 264.67,84.27 M264.67,85.56 L264.67,84.27 Q264.67,81.26 261.66,81.26" style="stroke-width: 1; stroke: rgb(155, 155, 155); stroke-opacity: 1; fill: none; fill-opacity: 1;"/></g><g class="composite-shape"><path class="real" d=" M377.06,128.21 Q384.06,128.21 384.06,121.21 L384.06,114.61 Q384.06,104.61 391.06,104.61 Q384.06,104.61 384.06,94.61 M384.06,97.61 L384.06,88.01 Q384.06,81.01 377.06,81.01" style="stroke-width: 1; stroke: rgb(155, 155, 155); stroke-opacity: 1; fill: none; fill-opacity: 1;"/></g><g/></g><g/><g/><g/></svg>
        <svg xmlns="http://www.w3.org/2000/svg" xmlns:xlink="http://www.w3.org/1999/xlink" width="700.000048828125" height="246.484375" style="width:700.000048828125px;height:246.484375px;font-family:LatinModern-Math, LatinModern, Asana-Math, Asana;background:transparent;"><g><g><g><g transform="matrix(1,0,0,1,390.8767578125,191.58751220703124)"><path transform="matrix(0.0119,0,0,-0.0119,0,0)" d="M527 376C527 428 468 442 434 442C376 442 341 389 329 366C304 432 250 442 221 442C117 442 60 313 60 288C60 278 72 278 72 278C80 278 83 280 85 289C119 395 185 420 219 420C238 420 273 411 273 353C273 322 256 255 219 115C203 53 168 11 124 11C118 11 95 11 74 24C99 29 121 50 121 78C121 105 99 113 84 113C54 113 29 87 29 55C29 9 79 -11 123 -11C189 -11 225 59 228 65C240 28 276 -11 336 -11C439 -11 496 118 496 143C496 153 487 153 484 153C475 153 473 149 471 142C438 35 370 11 338 11C299 11 283 43 283 77C283 99 289 121 300 165L334 302C340 328 363 420 433 420C438 420 462 420 483 407C455 402 435 377 435 353C435 337 446 318 473 318C495 318 527 336 527 376Z" stroke="rgb(0,0,0)" stroke-opacity="1" stroke-width="8" fill="rgb(0,0,0)" fill-opacity="1"/></g></g></g></g><g><g><g><g transform="matrix(1,0,0,1,128.88022460937498,11.59617919921875)"><path transform="matrix(0.0119,0,0,-0.0119,0,0)" d="M490 404C490 422 476 431 461 431C451 431 435 425 426 410C424 405 416 374 412 356L392 276L347 96C343 81 300 11 234 11C183 11 172 55 172 92C172 138 189 200 223 288C239 329 243 340 243 360C243 405 211 442 161 442C66 442 29 297 29 288C29 278 41 278 41 278C51 278 52 280 57 296C84 390 124 420 158 420C166 420 183 420 183 388C183 363 173 337 166 318C126 212 108 155 108 108C108 19 171 -11 230 -11C269 -11 303 6 331 34C318 -18 306 -67 266 -120C240 -154 202 -183 156 -183C142 -183 97 -180 80 -141C96 -141 109 -141 123 -129C133 -120 143 -107 143 -88C143 -57 116 -53 106 -53C83 -53 50 -69 50 -118C50 -168 94 -205 156 -205C259 -205 362 -114 390 -1L486 381C490 395 490 397 490 404Z" stroke="rgb(0,0,0)" stroke-opacity="1" stroke-width="8" fill="rgb(0,0,0)" fill-opacity="1"/></g></g></g></g><g><g><g><g transform="matrix(1,0,0,1,187.8819580078125,197.16910400390626)"><path transform="matrix(0.0119,0,0,-0.0119,0,0)" d="M498 143C498 153 489 153 486 153C476 153 475 149 472 135C455 70 437 11 396 11C369 11 366 37 366 57C366 79 368 87 379 131L401 221L437 361C444 389 444 391 444 395C444 412 432 422 415 422C391 422 376 400 373 378C355 415 326 442 281 442C164 442 40 295 40 149C40 55 95 -11 173 -11C193 -11 243 -7 303 64C311 22 346 -11 394 -11C429 -11 452 12 468 44C485 80 498 143 498 143ZM361 332C361 326 359 320 358 315L308 119C303 101 303 99 288 82C244 27 203 11 175 11C125 11 111 66 111 105C111 155 143 278 166 324C197 383 242 420 282 420C347 420 361 338 361 332Z" stroke="rgb(0,0,0)" stroke-opacity="1" stroke-width="8" fill="rgb(0,0,0)" fill-opacity="1"/></g></g></g></g><g><g><g><g transform="matrix(1,0,0,1,217.2135498046875,197.16910400390626)"><path transform="matrix(0.0119,0,0,-0.0119,0,0)" d="M498 143C498 153 489 153 486 153C476 153 475 149 472 135C455 70 437 11 396 11C369 11 366 37 366 57C366 79 368 87 379 131L401 221L437 361C444 389 444 391 444 395C444 412 432 422 415 422C391 422 376 400 373 378C355 415 326 442 281 442C164 442 40 295 40 149C40 55 95 -11 173 -11C193 -11 243 -7 303 64C311 22 346 -11 394 -11C429 -11 452 12 468 44C485 80 498 143 498 143ZM361 332C361 326 359 320 358 315L308 119C303 101 303 99 288 82C244 27 203 11 175 11C125 11 111 66 111 105C111 155 143 278 166 324C197 383 242 420 282 420C347 420 361 338 361 332Z" stroke="rgb(0,0,0)" stroke-opacity="1" stroke-width="8" fill="rgb(0,0,0)" fill-opacity="1"/></g></g><g><g transform="matrix(1,0,0,1,225.8854248046875,197.16910400390626)"><path transform="matrix(0.0119,0,0,-0.0119,0,0)" d="M722 250C722 261 713 270 702 270L409 270L409 563C409 574 400 583 389 583C378 583 369 574 369 563L369 270L76 270C65 270 56 261 56 250C56 239 65 230 76 230L369 230L369 -63C369 -74 378 -83 389 -83C400 -83 409 -74 409 -63L409 230L702 230C713 230 722 239 722 250Z" stroke="rgb(0,0,0)" stroke-opacity="1" stroke-width="8" fill="rgb(0,0,0)" fill-opacity="1"/></g></g><g><g transform="matrix(1,0,0,1,237.5260498046875,197.16910400390626)"><path transform="matrix(0.0119,0,0,-0.0119,0,0)" d="M516 683C516 683 516 694 503 694C488 694 393 685 376 683C368 682 362 677 362 664C362 652 371 652 386 652C434 652 436 645 436 635L433 615L373 378C355 415 326 442 281 442C164 442 40 295 40 149C40 55 95 -11 173 -11C193 -11 243 -7 303 64C311 22 346 -11 394 -11C429 -11 452 12 468 44C485 80 498 143 498 143C498 153 489 153 486 153C476 153 475 149 472 135C455 70 437 11 396 11C369 11 366 37 366 57C366 81 368 88 372 105ZM361 332C361 326 359 320 358 315L308 119C303 101 303 99 288 82C244 27 203 11 175 11C125 11 111 66 111 105C111 155 143 278 166 324C197 383 242 420 282 420C347 420 361 338 361 332ZM1047 376C1047 428 988 442 954 442C896 442 861 389 849 366C824 432 770 442 741 442C637 442 580 313 580 288C580 278 592 278 592 278C600 278 603 280 605 289C639 395 705 420 739 420C758 420 793 411 793 353C793 322 776 255 739 115C723 53 688 11 644 11C638 11 615 11 594 24C619 29 641 50 641 78C641 105 619 113 604 113C574 113 549 87 549 55C549 9 599 -11 643 -11C709 -11 745 59 748 65C760 28 796 -11 856 -11C959 -11 1016 118 1016 143C1016 153 1007 153 1004 153C995 153 993 149 991 142C958 35 890 11 858 11C819 11 803 43 803 77C803 99 809 121 820 165L854 302C860 328 883 420 953 420C958 420 982 420 1003 407C975 402 955 377 955 353C955 337 966 318 993 318C1015 318 1047 336 1047 376Z" stroke="rgb(0,0,0)" stroke-opacity="1" stroke-width="8" fill="rgb(0,0,0)" fill-opacity="1"/></g></g></g></g><g><g><g><g transform="matrix(1,0,0,1,248.012158203125,115.95382080078126)"><path transform="matrix(0.0119,0,0,-0.0119,0,0)" d="M516 683C516 683 516 694 503 694C488 694 393 685 376 683C368 682 362 677 362 664C362 652 371 652 386 652C434 652 436 645 436 635L433 615L373 378C355 415 326 442 281 442C164 442 40 295 40 149C40 55 95 -11 173 -11C193 -11 243 -7 303 64C311 22 346 -11 394 -11C429 -11 452 12 468 44C485 80 498 143 498 143C498 153 489 153 486 153C476 153 475 149 472 135C455 70 437 11 396 11C369 11 366 37 366 57C366 81 368 88 372 105ZM361 332C361 326 359 320 358 315L308 119C303 101 303 99 288 82C244 27 203 11 175 11C125 11 111 66 111 105C111 155 143 278 166 324C197 383 242 420 282 420C347 420 361 338 361 332ZM1010 404C1010 422 996 431 981 431C971 431 955 425 946 410C944 405 936 374 932 356L912 276L867 96C863 81 820 11 754 11C703 11 692 55 692 92C692 138 709 200 743 288C759 329 763 340 763 360C763 405 731 442 681 442C586 442 549 297 549 288C549 278 561 278 561 278C571 278 572 280 577 296C604 390 644 420 678 420C686 420 703 420 703 388C703 363 693 337 686 318C646 212 628 155 628 108C628 19 691 -11 750 -11C789 -11 823 6 851 34C838 -18 826 -67 786 -120C760 -154 722 -183 676 -183C662 -183 617 -180 600 -141C616 -141 629 -141 643 -129C653 -120 663 -107 663 -88C663 -57 636 -53 626 -53C603 -53 570 -69 570 -118C570 -168 614 -205 676 -205C779 -205 882 -114 910 -1L1006 381C1010 395 1010 397 1010 404Z" stroke="rgb(58,169,159)" stroke-opacity="1" stroke-width="8" fill="rgb(58,169,159)" fill-opacity="1"/></g></g><g><g transform="matrix(1,0,0,1,263.59375,115.95382080078126)"><path transform="matrix(0.0119,0,0,-0.0119,0,0)" d="M722 347C722 358 713 367 702 367L76 367C65 367 56 358 56 347C56 336 65 327 76 327L702 327C713 327 722 336 722 347ZM722 153C722 164 713 173 702 173L76 173C65 173 56 164 56 153C56 142 65 133 76 133L702 133C713 133 722 142 722 153Z" stroke="rgb(58,169,159)" stroke-opacity="1" stroke-width="8" fill="rgb(58,169,159)" fill-opacity="1"/></g></g><g><g transform="matrix(1,0,0,1,276.4236328125,115.95382080078126)"><path transform="matrix(0.0119,0,0,-0.0119,0,0)" d="M516 683C516 683 516 694 503 694C488 694 393 685 376 683C368 682 362 677 362 664C362 652 371 652 386 652C434 652 436 645 436 635L433 615L373 378C355 415 326 442 281 442C164 442 40 295 40 149C40 55 95 -11 173 -11C193 -11 243 -7 303 64C311 22 346 -11 394 -11C429 -11 452 12 468 44C485 80 498 143 498 143C498 153 489 153 486 153C476 153 475 149 472 135C455 70 437 11 396 11C369 11 366 37 366 57C366 81 368 88 372 105ZM361 332C361 326 359 320 358 315L308 119C303 101 303 99 288 82C244 27 203 11 175 11C125 11 111 66 111 105C111 155 143 278 166 324C197 383 242 420 282 420C347 420 361 338 361 332ZM1072 636C1072 682 1026 705 985 705C951 705 888 687 858 588C852 567 849 557 825 431L756 431C737 431 726 431 726 412C726 400 735 400 754 400L820 400L745 5C727 -92 710 -183 658 -183C654 -183 629 -183 610 -165C656 -162 665 -126 665 -111C665 -88 647 -76 628 -76C602 -76 573 -98 573 -136C573 -181 617 -205 658 -205C713 -205 753 -146 771 -108C803 -45 826 76 827 83L887 400L973 400C993 400 1003 400 1003 420C1003 431 993 431 976 431L893 431C904 489 903 487 914 545C918 566 932 637 938 649C947 668 964 683 985 683C989 683 1015 683 1034 665C990 661 980 626 980 611C980 588 998 576 1017 576C1043 576 1072 598 1072 636Z" stroke="rgb(58,169,159)" stroke-opacity="1" stroke-width="8" fill="rgb(58,169,159)" fill-opacity="1"/></g></g><g><g><g><g><g transform="matrix(1,0,0,1,288.793408203125,118.05222900390625)"><path transform="matrix(0.00833,0,0,-0.00833,0,0)" d="M498 143C498 153 489 153 486 153C476 153 475 149 472 135C455 70 437 11 396 11C369 11 366 37 366 57C366 79 368 87 379 131L401 221L437 361C444 389 444 391 444 395C444 412 432 422 415 422C391 422 376 400 373 378C355 415 326 442 281 442C164 442 40 295 40 149C40 55 95 -11 173 -11C193 -11 243 -7 303 64C311 22 346 -11 394 -11C429 -11 452 12 468 44C485 80 498 143 498 143ZM361 332C361 326 359 320 358 315L308 119C303 101 303 99 288 82C244 27 203 11 175 11C125 11 111 66 111 105C111 155 143 278 166 324C197 383 242 420 282 420C347 420 361 338 361 332Z" stroke="rgb(58,169,159)" stroke-opacity="1" stroke-width="8" fill="rgb(58,169,159)" fill-opacity="1"/></g></g></g></g></g><g><g transform="matrix(1,0,0,1,293.91494140624997,115.95382080078126)"><path transform="matrix(0.0119,0,0,-0.0119,0,0)" d="M332 -238C332 -235 330 -232 328 -230C224 -152 155 48 155 208L155 292C155 452 224 652 328 730C330 732 332 735 332 738C332 743 327 748 322 748C320 748 318 747 316 746C206 663 101 463 101 292L101 208C101 37 206 -163 316 -246C318 -247 320 -248 322 -248C327 -248 332 -243 332 -238Z" stroke="rgb(58,169,159)" stroke-opacity="1" stroke-width="8" fill="rgb(58,169,159)" fill-opacity="1"/></g></g><g><g transform="matrix(1,0,0,1,298.5503662109375,115.95382080078126)"><path transform="matrix(0.0119,0,0,-0.0119,0,0)" d="M516 683C516 683 516 694 503 694C488 694 393 685 376 683C368 682 362 677 362 664C362 652 371 652 386 652C434 652 436 645 436 635L433 615L373 378C355 415 326 442 281 442C164 442 40 295 40 149C40 55 95 -11 173 -11C193 -11 243 -7 303 64C311 22 346 -11 394 -11C429 -11 452 12 468 44C485 80 498 143 498 143C498 153 489 153 486 153C476 153 475 149 472 135C455 70 437 11 396 11C369 11 366 37 366 57C366 81 368 88 372 105ZM361 332C361 326 359 320 358 315L308 119C303 101 303 99 288 82C244 27 203 11 175 11C125 11 111 66 111 105C111 155 143 278 166 324C197 383 242 420 282 420C347 420 361 338 361 332ZM1047 376C1047 428 988 442 954 442C896 442 861 389 849 366C824 432 770 442 741 442C637 442 580 313 580 288C580 278 592 278 592 278C600 278 603 280 605 289C639 395 705 420 739 420C758 420 793 411 793 353C793 322 776 255 739 115C723 53 688 11 644 11C638 11 615 11 594 24C619 29 641 50 641 78C641 105 619 113 604 113C574 113 549 87 549 55C549 9 599 -11 643 -11C709 -11 745 59 748 65C760 28 796 -11 856 -11C959 -11 1016 118 1016 143C1016 153 1007 153 1004 153C995 153 993 149 991 142C958 35 890 11 858 11C819 11 803 43 803 77C803 99 809 121 820 165L854 302C860 328 883 420 953 420C958 420 982 420 1003 407C975 402 955 377 955 353C955 337 966 318 993 318C1015 318 1047 336 1047 376Z" stroke="rgb(58,169,159)" stroke-opacity="1" stroke-width="8" fill="rgb(58,169,159)" fill-opacity="1"/></g></g><g><g transform="matrix(1,0,0,1,311.545166015625,115.95382080078126)"><path transform="matrix(0.0119,0,0,-0.0119,0,0)" d="M288 208L288 292C288 463 183 663 73 746C71 747 69 748 67 748C62 748 57 743 57 738C57 735 59 732 61 730C165 652 234 452 234 292L234 208C234 48 165 -152 61 -230C59 -232 57 -235 57 -238C57 -243 62 -248 67 -248C69 -248 71 -247 73 -246C183 -163 288 37 288 208Z" stroke="rgb(58,169,159)" stroke-opacity="1" stroke-width="8" fill="rgb(58,169,159)" fill-opacity="1"/></g></g><g><g transform="matrix(1,0,0,1,319.748291015625,115.95382080078126)"><path transform="matrix(0.0119,0,0,-0.0119,0,0)" d="M722 347C722 358 713 367 702 367L76 367C65 367 56 358 56 347C56 336 65 327 76 327L702 327C713 327 722 336 722 347ZM722 153C722 164 713 173 702 173L76 173C65 173 56 164 56 153C56 142 65 133 76 133L702 133C713 133 722 142 722 153Z" stroke="rgb(58,169,159)" stroke-opacity="1" stroke-width="8" fill="rgb(58,169,159)" fill-opacity="1"/></g></g><g><g transform="matrix(1,0,0,1,332.578125,115.95382080078126)"><path transform="matrix(0.0119,0,0,-0.0119,0,0)" d="M552 636C552 682 506 705 465 705C431 705 368 687 338 588C332 567 329 557 305 431L236 431C217 431 206 431 206 412C206 400 215 400 234 400L300 400L225 5C207 -92 190 -183 138 -183C134 -183 109 -183 90 -165C136 -162 145 -126 145 -111C145 -88 127 -76 108 -76C82 -76 53 -98 53 -136C53 -181 97 -205 138 -205C193 -205 233 -146 251 -108C283 -45 306 76 307 83L367 400L453 400C473 400 483 400 483 420C483 431 473 431 456 431L373 431C384 489 383 487 394 545C398 566 412 637 418 649C427 668 444 683 465 683C469 683 495 683 514 665C470 661 460 626 460 611C460 588 478 576 497 576C523 576 552 598 552 636ZM664 670C666 690 649 705 629 705C609 705 592 690 594 670L616 423L642 423Z" stroke="rgb(58,169,159)" stroke-opacity="1" stroke-width="8" fill="rgb(58,169,159)" fill-opacity="1"/></g></g><g><g transform="matrix(1,0,0,1,341.71875,115.95382080078126)"><path transform="matrix(0.0119,0,0,-0.0119,0,0)" d="M332 -238C332 -235 330 -232 328 -230C224 -152 155 48 155 208L155 292C155 452 224 652 328 730C330 732 332 735 332 738C332 743 327 748 322 748C320 748 318 747 316 746C206 663 101 463 101 292L101 208C101 37 206 -163 316 -246C318 -247 320 -248 322 -248C327 -248 332 -243 332 -238Z" stroke="rgb(58,169,159)" stroke-opacity="1" stroke-width="8" fill="rgb(58,169,159)" fill-opacity="1"/></g></g><g><g transform="matrix(1,0,0,1,346.35419921875,115.95382080078126)"><path transform="matrix(0.0119,0,0,-0.0119,0,0)" d="M498 143C498 153 489 153 486 153C476 153 475 149 472 135C455 70 437 11 396 11C369 11 366 37 366 57C366 79 368 87 379 131L401 221L437 361C444 389 444 391 444 395C444 412 432 422 415 422C391 422 376 400 373 378C355 415 326 442 281 442C164 442 40 295 40 149C40 55 95 -11 173 -11C193 -11 243 -7 303 64C311 22 346 -11 394 -11C429 -11 452 12 468 44C485 80 498 143 498 143ZM361 332C361 326 359 320 358 315L308 119C303 101 303 99 288 82C244 27 203 11 175 11C125 11 111 66 111 105C111 155 143 278 166 324C197 383 242 420 282 420C347 420 361 338 361 332Z" stroke="rgb(58,169,159)" stroke-opacity="1" stroke-width="8" fill="rgb(58,169,159)" fill-opacity="1"/></g></g><g><g transform="matrix(1,0,0,1,352.64760742187497,115.95382080078126)"><path transform="matrix(0.0119,0,0,-0.0119,0,0)" d="M288 208L288 292C288 463 183 663 73 746C71 747 69 748 67 748C62 748 57 743 57 738C57 735 59 732 61 730C165 652 234 452 234 292L234 208C234 48 165 -152 61 -230C59 -232 57 -235 57 -238C57 -243 62 -248 67 -248C69 -248 71 -247 73 -246C183 -163 288 37 288 208Z" stroke="rgb(58,169,159)" stroke-opacity="1" stroke-width="8" fill="rgb(58,169,159)" fill-opacity="1"/></g></g><g><g transform="matrix(1,0,0,1,357.2830078125,115.95382080078126)"><path transform="matrix(0.0119,0,0,-0.0119,0,0)" d="M516 683C516 683 516 694 503 694C488 694 393 685 376 683C368 682 362 677 362 664C362 652 371 652 386 652C434 652 436 645 436 635L433 615L373 378C355 415 326 442 281 442C164 442 40 295 40 149C40 55 95 -11 173 -11C193 -11 243 -7 303 64C311 22 346 -11 394 -11C429 -11 452 12 468 44C485 80 498 143 498 143C498 153 489 153 486 153C476 153 475 149 472 135C455 70 437 11 396 11C369 11 366 37 366 57C366 81 368 88 372 105ZM361 332C361 326 359 320 358 315L308 119C303 101 303 99 288 82C244 27 203 11 175 11C125 11 111 66 111 105C111 155 143 278 166 324C197 383 242 420 282 420C347 420 361 338 361 332ZM1047 376C1047 428 988 442 954 442C896 442 861 389 849 366C824 432 770 442 741 442C637 442 580 313 580 288C580 278 592 278 592 278C600 278 603 280 605 289C639 395 705 420 739 420C758 420 793 411 793 353C793 322 776 255 739 115C723 53 688 11 644 11C638 11 615 11 594 24C619 29 641 50 641 78C641 105 619 113 604 113C574 113 549 87 549 55C549 9 599 -11 643 -11C709 -11 745 59 748 65C760 28 796 -11 856 -11C959 -11 1016 118 1016 143C1016 153 1007 153 1004 153C995 153 993 149 991 142C958 35 890 11 858 11C819 11 803 43 803 77C803 99 809 121 820 165L854 302C860 328 883 420 953 420C958 420 982 420 1003 407C975 402 955 377 955 353C955 337 966 318 993 318C1015 318 1047 336 1047 376Z" stroke="rgb(58,169,159)" stroke-opacity="1" stroke-width="8" fill="rgb(58,169,159)" fill-opacity="1"/></g></g></g></g><g><g><g><g transform="matrix(1,0,0,1,109.38369140625001,131.91737060546873)"><path transform="matrix(0.0119,0,0,-0.0119,0,0)" d="M552 636C552 682 506 705 465 705C431 705 368 687 338 588C332 567 329 557 305 431L236 431C217 431 206 431 206 412C206 400 215 400 234 400L300 400L225 5C207 -92 190 -183 138 -183C134 -183 109 -183 90 -165C136 -162 145 -126 145 -111C145 -88 127 -76 108 -76C82 -76 53 -98 53 -136C53 -181 97 -205 138 -205C193 -205 233 -146 251 -108C283 -45 306 76 307 83L367 400L453 400C473 400 483 400 483 420C483 431 473 431 456 431L373 431C384 489 383 487 394 545C398 566 412 637 418 649C427 668 444 683 465 683C469 683 495 683 514 665C470 661 460 626 460 611C460 588 478 576 497 576C523 576 552 598 552 636Z" stroke="rgb(0,0,0)" stroke-opacity="1" stroke-width="8" fill="rgb(0,0,0)" fill-opacity="1"/></g></g><g><g transform="matrix(1,0,0,1,115.21701660156249,131.91737060546873)"><path transform="matrix(0.0119,0,0,-0.0119,0,0)" d="M332 -238C332 -235 330 -232 328 -230C224 -152 155 48 155 208L155 292C155 452 224 652 328 730C330 732 332 735 332 738C332 743 327 748 322 748C320 748 318 747 316 746C206 663 101 463 101 292L101 208C101 37 206 -163 316 -246C318 -247 320 -248 322 -248C327 -248 332 -243 332 -238Z" stroke="rgb(0,0,0)" stroke-opacity="1" stroke-width="8" fill="rgb(0,0,0)" fill-opacity="1"/></g></g><g><g transform="matrix(1,0,0,1,119.85244140625001,131.91737060546873)"><path transform="matrix(0.0119,0,0,-0.0119,0,0)" d="M498 143C498 153 489 153 486 153C476 153 475 149 472 135C455 70 437 11 396 11C369 11 366 37 366 57C366 79 368 87 379 131L401 221L437 361C444 389 444 391 444 395C444 412 432 422 415 422C391 422 376 400 373 378C355 415 326 442 281 442C164 442 40 295 40 149C40 55 95 -11 173 -11C193 -11 243 -7 303 64C311 22 346 -11 394 -11C429 -11 452 12 468 44C485 80 498 143 498 143ZM361 332C361 326 359 320 358 315L308 119C303 101 303 99 288 82C244 27 203 11 175 11C125 11 111 66 111 105C111 155 143 278 166 324C197 383 242 420 282 420C347 420 361 338 361 332Z" stroke="rgb(0,0,0)" stroke-opacity="1" stroke-width="8" fill="rgb(0,0,0)" fill-opacity="1"/></g></g><g><g transform="matrix(1,0,0,1,126.14584960937499,131.91737060546873)"><path transform="matrix(0.0119,0,0,-0.0119,0,0)" d="M288 208L288 292C288 463 183 663 73 746C71 747 69 748 67 748C62 748 57 743 57 738C57 735 59 732 61 730C165 652 234 452 234 292L234 208C234 48 165 -152 61 -230C59 -232 57 -235 57 -238C57 -243 62 -248 67 -248C69 -248 71 -247 73 -246C183 -163 288 37 288 208Z" stroke="rgb(0,0,0)" stroke-opacity="1" stroke-width="8" fill="rgb(0,0,0)" fill-opacity="1"/></g></g></g></g><g><g><g><g transform="matrix(1,0,0,1,82.37847900390625,85.25069580078126)"><path transform="matrix(0.0119,0,0,-0.0119,0,0)" d="M552 636C552 682 506 705 465 705C431 705 368 687 338 588C332 567 329 557 305 431L236 431C217 431 206 431 206 412C206 400 215 400 234 400L300 400L225 5C207 -92 190 -183 138 -183C134 -183 109 -183 90 -165C136 -162 145 -126 145 -111C145 -88 127 -76 108 -76C82 -76 53 -98 53 -136C53 -181 97 -205 138 -205C193 -205 233 -146 251 -108C283 -45 306 76 307 83L367 400L453 400C473 400 483 400 483 420C483 431 473 431 456 431L373 431C384 489 383 487 394 545C398 566 412 637 418 649C427 668 444 683 465 683C469 683 495 683 514 665C470 661 460 626 460 611C460 588 478 576 497 576C523 576 552 598 552 636Z" stroke="rgb(0,0,0)" stroke-opacity="1" stroke-width="8" fill="rgb(0,0,0)" fill-opacity="1"/></g></g><g><g transform="matrix(1,0,0,1,88.21180419921875,85.25069580078126)"><path transform="matrix(0.0119,0,0,-0.0119,0,0)" d="M332 -238C332 -235 330 -232 328 -230C224 -152 155 48 155 208L155 292C155 452 224 652 328 730C330 732 332 735 332 738C332 743 327 748 322 748C320 748 318 747 316 746C206 663 101 463 101 292L101 208C101 37 206 -163 316 -246C318 -247 320 -248 322 -248C327 -248 332 -243 332 -238Z" stroke="rgb(0,0,0)" stroke-opacity="1" stroke-width="8" fill="rgb(0,0,0)" fill-opacity="1"/></g></g><g><g transform="matrix(1,0,0,1,92.84722900390625,85.25069580078126)"><path transform="matrix(0.0119,0,0,-0.0119,0,0)" d="M498 143C498 153 489 153 486 153C476 153 475 149 472 135C455 70 437 11 396 11C369 11 366 37 366 57C366 79 368 87 379 131L401 221L437 361C444 389 444 391 444 395C444 412 432 422 415 422C391 422 376 400 373 378C355 415 326 442 281 442C164 442 40 295 40 149C40 55 95 -11 173 -11C193 -11 243 -7 303 64C311 22 346 -11 394 -11C429 -11 452 12 468 44C485 80 498 143 498 143ZM361 332C361 326 359 320 358 315L308 119C303 101 303 99 288 82C244 27 203 11 175 11C125 11 111 66 111 105C111 155 143 278 166 324C197 383 242 420 282 420C347 420 361 338 361 332Z" stroke="rgb(0,0,0)" stroke-opacity="1" stroke-width="8" fill="rgb(0,0,0)" fill-opacity="1"/></g></g><g><g transform="matrix(1,0,0,1,101.51910400390625,85.25069580078126)"><path transform="matrix(0.0119,0,0,-0.0119,0,0)" d="M722 250C722 261 713 270 702 270L409 270L409 563C409 574 400 583 389 583C378 583 369 574 369 563L369 270L76 270C65 270 56 261 56 250C56 239 65 230 76 230L369 230L369 -63C369 -74 378 -83 389 -83C400 -83 409 -74 409 -63L409 230L702 230C713 230 722 239 722 250Z" stroke="rgb(0,0,0)" stroke-opacity="1" stroke-width="8" fill="rgb(0,0,0)" fill-opacity="1"/></g></g><g><g transform="matrix(1,0,0,1,113.159716796875,85.25069580078126)"><path transform="matrix(0.0119,0,0,-0.0119,0,0)" d="M516 683C516 683 516 694 503 694C488 694 393 685 376 683C368 682 362 677 362 664C362 652 371 652 386 652C434 652 436 645 436 635L433 615L373 378C355 415 326 442 281 442C164 442 40 295 40 149C40 55 95 -11 173 -11C193 -11 243 -7 303 64C311 22 346 -11 394 -11C429 -11 452 12 468 44C485 80 498 143 498 143C498 153 489 153 486 153C476 153 475 149 472 135C455 70 437 11 396 11C369 11 366 37 366 57C366 81 368 88 372 105ZM361 332C361 326 359 320 358 315L308 119C303 101 303 99 288 82C244 27 203 11 175 11C125 11 111 66 111 105C111 155 143 278 166 324C197 383 242 420 282 420C347 420 361 338 361 332ZM1047 376C1047 428 988 442 954 442C896 442 861 389 849 366C824 432 770 442 741 442C637 442 580 313 580 288C580 278 592 278 592 278C600 278 603 280 605 289C639 395 705 420 739 420C758 420 793 411 793 353C793 322 776 255 739 115C723 53 688 11 644 11C638 11 615 11 594 24C619 29 641 50 641 78C641 105 619 113 604 113C574 113 549 87 549 55C549 9 599 -11 643 -11C709 -11 745 59 748 65C760 28 796 -11 856 -11C959 -11 1016 118 1016 143C1016 153 1007 153 1004 153C995 153 993 149 991 142C958 35 890 11 858 11C819 11 803 43 803 77C803 99 809 121 820 165L854 302C860 328 883 420 953 420C958 420 982 420 1003 407C975 402 955 377 955 353C955 337 966 318 993 318C1015 318 1047 336 1047 376Z" stroke="rgb(0,0,0)" stroke-opacity="1" stroke-width="8" fill="rgb(0,0,0)" fill-opacity="1"/></g></g><g><g transform="matrix(1,0,0,1,126.15451660156249,85.25069580078126)"><path transform="matrix(0.0119,0,0,-0.0119,0,0)" d="M288 208L288 292C288 463 183 663 73 746C71 747 69 748 67 748C62 748 57 743 57 738C57 735 59 732 61 730C165 652 234 452 234 292L234 208C234 48 165 -152 61 -230C59 -232 57 -235 57 -238C57 -243 62 -248 67 -248C69 -248 71 -247 73 -246C183 -163 288 37 288 208Z" stroke="rgb(0,0,0)" stroke-opacity="1" stroke-width="8" fill="rgb(0,0,0)" fill-opacity="1"/></g></g></g></g><g><g><g><g transform="matrix(1,0,0,1,195.546875,149.94964599609375)"><path transform="matrix(0.0085,0,0,-0.0085,0,0)" d="M516 683C516 683 516 694 503 694C488 694 393 685 376 683C368 682 362 677 362 664C362 652 371 652 386 652C434 652 436 645 436 635L433 615L373 378C355 415 326 442 281 442C164 442 40 295 40 149C40 55 95 -11 173 -11C193 -11 243 -7 303 64C311 22 346 -11 394 -11C429 -11 452 12 468 44C485 80 498 143 498 143C498 153 489 153 486 153C476 153 475 149 472 135C455 70 437 11 396 11C369 11 366 37 366 57C366 81 368 88 372 105ZM361 332C361 326 359 320 358 315L308 119C303 101 303 99 288 82C244 27 203 11 175 11C125 11 111 66 111 105C111 155 143 278 166 324C197 383 242 420 282 420C347 420 361 338 361 332ZM1047 376C1047 428 988 442 954 442C896 442 861 389 849 366C824 432 770 442 741 442C637 442 580 313 580 288C580 278 592 278 592 278C600 278 603 280 605 289C639 395 705 420 739 420C758 420 793 411 793 353C793 322 776 255 739 115C723 53 688 11 644 11C638 11 615 11 594 24C619 29 641 50 641 78C641 105 619 113 604 113C574 113 549 87 549 55C549 9 599 -11 643 -11C709 -11 745 59 748 65C760 28 796 -11 856 -11C959 -11 1016 118 1016 143C1016 153 1007 153 1004 153C995 153 993 149 991 142C958 35 890 11 858 11C819 11 803 43 803 77C803 99 809 121 820 165L854 302C860 328 883 420 953 420C958 420 982 420 1003 407C975 402 955 377 955 353C955 337 966 318 993 318C1015 318 1047 336 1047 376Z" stroke="rgb(0,0,0)" stroke-opacity="1" stroke-width="8" fill="rgb(0,0,0)" fill-opacity="1"/></g></g><g><g transform="matrix(1,0,0,1,207.3697998046875,149.94964599609375)"><path transform="matrix(0.0085,0,0,-0.0085,0,0)" d="M722 347C722 358 713 367 702 367L76 367C65 367 56 358 56 347C56 336 65 327 76 327L702 327C713 327 722 336 722 347ZM722 153C722 164 713 173 702 173L76 173C65 173 56 164 56 153C56 142 65 133 76 133L702 133C713 133 722 142 722 153Z" stroke="rgb(0,0,0)" stroke-opacity="1" stroke-width="8" fill="rgb(0,0,0)" fill-opacity="1"/></g></g><g><g transform="matrix(1,0,0,1,216.52778320312498,149.94964599609375)"><path transform="matrix(0.0085,0,0,-0.0085,0,0)" d="M787 10C787 14 786 20 785 24L618 692C613 712 612 716 594 716C585 716 577 716 563 697L57 20C49 10 49 6 49 6C49 1 50 0 71 0L761 0C778 0 787 0 787 10ZM679 72L130 72L542 622ZM1360 376C1360 428 1301 442 1267 442C1209 442 1174 389 1162 366C1137 432 1083 442 1054 442C950 442 893 313 893 288C893 278 905 278 905 278C913 278 916 280 918 289C952 395 1018 420 1052 420C1071 420 1106 411 1106 353C1106 322 1089 255 1052 115C1036 53 1001 11 957 11C951 11 928 11 907 24C932 29 954 50 954 78C954 105 932 113 917 113C887 113 862 87 862 55C862 9 912 -11 956 -11C1022 -11 1058 59 1061 65C1073 28 1109 -11 1169 -11C1272 -11 1329 118 1329 143C1329 153 1320 153 1317 153C1308 153 1306 149 1304 142C1271 35 1203 11 1171 11C1132 11 1116 43 1116 77C1116 99 1122 121 1133 165L1167 302C1173 328 1196 420 1266 420C1271 420 1295 420 1316 407C1288 402 1268 377 1268 353C1268 337 1279 318 1306 318C1328 318 1360 336 1360 376Z" stroke="rgb(0,0,0)" stroke-opacity="1" stroke-width="8" fill="rgb(0,0,0)" fill-opacity="1"/></g></g></g></g><g><g><g><g transform="matrix(1,0,0,1,210.2517333984375,35.519787597656254)"><path transform="matrix(0.0119,0,0,-0.0119,0,0)" d="M490 404C490 422 476 431 461 431C451 431 435 425 426 410C424 405 416 374 412 356L392 276L347 96C343 81 300 11 234 11C183 11 172 55 172 92C172 138 189 200 223 288C239 329 243 340 243 360C243 405 211 442 161 442C66 442 29 297 29 288C29 278 41 278 41 278C51 278 52 280 57 296C84 390 124 420 158 420C166 420 183 420 183 388C183 363 173 337 166 318C126 212 108 155 108 108C108 19 171 -11 230 -11C269 -11 303 6 331 34C318 -18 306 -67 266 -120C240 -154 202 -183 156 -183C142 -183 97 -180 80 -141C96 -141 109 -141 123 -129C133 -120 143 -107 143 -88C143 -57 116 -53 106 -53C83 -53 50 -69 50 -118C50 -168 94 -205 156 -205C259 -205 362 -114 390 -1L486 381C490 395 490 397 490 404Z" stroke="rgb(2,122,255)" stroke-opacity="1" stroke-width="8" fill="rgb(2,122,255)" fill-opacity="1"/></g></g><g><g transform="matrix(1,0,0,1,219.65278320312498,35.519787597656254)"><path transform="matrix(0.0119,0,0,-0.0119,0,0)" d="M722 347C722 358 713 367 702 367L76 367C65 367 56 358 56 347C56 336 65 327 76 327L702 327C713 327 722 336 722 347ZM722 153C722 164 713 173 702 173L76 173C65 173 56 164 56 153C56 142 65 133 76 133L702 133C713 133 722 142 722 153Z" stroke="rgb(2,122,255)" stroke-opacity="1" stroke-width="8" fill="rgb(2,122,255)" fill-opacity="1"/></g></g><g><g transform="matrix(1,0,0,1,232.48264160156248,35.519787597656254)"><path transform="matrix(0.0119,0,0,-0.0119,0,0)" d="M552 636C552 682 506 705 465 705C431 705 368 687 338 588C332 567 329 557 305 431L236 431C217 431 206 431 206 412C206 400 215 400 234 400L300 400L225 5C207 -92 190 -183 138 -183C134 -183 109 -183 90 -165C136 -162 145 -126 145 -111C145 -88 127 -76 108 -76C82 -76 53 -98 53 -136C53 -181 97 -205 138 -205C193 -205 233 -146 251 -108C283 -45 306 76 307 83L367 400L453 400C473 400 483 400 483 420C483 431 473 431 456 431L373 431C384 489 383 487 394 545C398 566 412 637 418 649C427 668 444 683 465 683C469 683 495 683 514 665C470 661 460 626 460 611C460 588 478 576 497 576C523 576 552 598 552 636Z" stroke="rgb(2,122,255)" stroke-opacity="1" stroke-width="8" fill="rgb(2,122,255)" fill-opacity="1"/></g></g><g><g transform="matrix(1,0,0,1,238.3159912109375,35.519787597656254)"><path transform="matrix(0.0119,0,0,-0.0119,0,0)" d="M332 -238C332 -235 330 -232 328 -230C224 -152 155 48 155 208L155 292C155 452 224 652 328 730C330 732 332 735 332 738C332 743 327 748 322 748C320 748 318 747 316 746C206 663 101 463 101 292L101 208C101 37 206 -163 316 -246C318 -247 320 -248 322 -248C327 -248 332 -243 332 -238Z" stroke="rgb(2,122,255)" stroke-opacity="1" stroke-width="8" fill="rgb(2,122,255)" fill-opacity="1"/></g></g><g><g transform="matrix(1,0,0,1,242.95139160156248,35.519787597656254)"><path transform="matrix(0.0119,0,0,-0.0119,0,0)" d="M527 376C527 428 468 442 434 442C376 442 341 389 329 366C304 432 250 442 221 442C117 442 60 313 60 288C60 278 72 278 72 278C80 278 83 280 85 289C119 395 185 420 219 420C238 420 273 411 273 353C273 322 256 255 219 115C203 53 168 11 124 11C118 11 95 11 74 24C99 29 121 50 121 78C121 105 99 113 84 113C54 113 29 87 29 55C29 9 79 -11 123 -11C189 -11 225 59 228 65C240 28 276 -11 336 -11C439 -11 496 118 496 143C496 153 487 153 484 153C475 153 473 149 471 142C438 35 370 11 338 11C299 11 283 43 283 77C283 99 289 121 300 165L334 302C340 328 363 420 433 420C438 420 462 420 483 407C455 402 435 377 435 353C435 337 446 318 473 318C495 318 527 336 527 376Z" stroke="rgb(2,122,255)" stroke-opacity="1" stroke-width="8" fill="rgb(2,122,255)" fill-opacity="1"/></g></g><g><g transform="matrix(1,0,0,1,249.7569580078125,35.519787597656254)"><path transform="matrix(0.0119,0,0,-0.0119,0,0)" d="M288 208L288 292C288 463 183 663 73 746C71 747 69 748 67 748C62 748 57 743 57 738C57 735 59 732 61 730C165 652 234 452 234 292L234 208C234 48 165 -152 61 -230C59 -232 57 -235 57 -238C57 -243 62 -248 67 -248C69 -248 71 -247 73 -246C183 -163 288 37 288 208Z" stroke="rgb(2,122,255)" stroke-opacity="1" stroke-width="8" fill="rgb(2,122,255)" fill-opacity="1"/></g></g></g></g><g><g><g><g transform="matrix(1,0,0,1,271.0503662109375,45.25069580078125)"><path transform="matrix(0.0119,0,0,-0.0119,0,0)" d="M643 247C643 251 640 258 631 258C622 258 621 253 614 237C580 145 536 31 363 31L269 31C255 31 253 31 247 32C237 33 234 34 234 42C234 45 234 47 239 65L374 605C383 641 386 652 480 652C510 652 518 652 518 671C518 683 507 683 502 683L354 680L221 683C214 683 202 683 202 663C202 652 211 652 230 652C230 652 251 652 268 650C286 648 295 647 295 634C295 630 294 627 291 615L157 78C147 39 145 31 66 31C49 31 39 31 39 11C39 0 48 0 66 0L529 0C553 0 554 0 560 17L639 233C643 244 643 247 643 247Z" stroke="rgb(251,70,76)" stroke-opacity="1" stroke-width="8" fill="rgb(251,70,76)" fill-opacity="1"/></g></g><g><g transform="matrix(1,0,0,1,279.1580078125,45.25069580078125)"><path transform="matrix(0.0119,0,0,-0.0119,0,0)" d="M332 -238C332 -235 330 -232 328 -230C224 -152 155 48 155 208L155 292C155 452 224 652 328 730C330 732 332 735 332 738C332 743 327 748 322 748C320 748 318 747 316 746C206 663 101 463 101 292L101 208C101 37 206 -163 316 -246C318 -247 320 -248 322 -248C327 -248 332 -243 332 -238Z" stroke="rgb(251,70,76)" stroke-opacity="1" stroke-width="8" fill="rgb(251,70,76)" fill-opacity="1"/></g></g><g><g transform="matrix(1,0,0,1,283.793408203125,45.25069580078125)"><path transform="matrix(0.0119,0,0,-0.0119,0,0)" d="M527 376C527 428 468 442 434 442C376 442 341 389 329 366C304 432 250 442 221 442C117 442 60 313 60 288C60 278 72 278 72 278C80 278 83 280 85 289C119 395 185 420 219 420C238 420 273 411 273 353C273 322 256 255 219 115C203 53 168 11 124 11C118 11 95 11 74 24C99 29 121 50 121 78C121 105 99 113 84 113C54 113 29 87 29 55C29 9 79 -11 123 -11C189 -11 225 59 228 65C240 28 276 -11 336 -11C439 -11 496 118 496 143C496 153 487 153 484 153C475 153 473 149 471 142C438 35 370 11 338 11C299 11 283 43 283 77C283 99 289 121 300 165L334 302C340 328 363 420 433 420C438 420 462 420 483 407C455 402 435 377 435 353C435 337 446 318 473 318C495 318 527 336 527 376Z" stroke="rgb(251,70,76)" stroke-opacity="1" stroke-width="8" fill="rgb(251,70,76)" fill-opacity="1"/></g></g><g><g transform="matrix(1,0,0,1,290.598974609375,45.25069580078125)"><path transform="matrix(0.0119,0,0,-0.0119,0,0)" d="M288 208L288 292C288 463 183 663 73 746C71 747 69 748 67 748C62 748 57 743 57 738C57 735 59 732 61 730C165 652 234 452 234 292L234 208C234 48 165 -152 61 -230C59 -232 57 -235 57 -238C57 -243 62 -248 67 -248C69 -248 71 -247 73 -246C183 -163 288 37 288 208Z" stroke="rgb(251,70,76)" stroke-opacity="1" stroke-width="8" fill="rgb(251,70,76)" fill-opacity="1"/></g></g><g><g transform="matrix(1,0,0,1,298.802099609375,45.25069580078125)"><path transform="matrix(0.0119,0,0,-0.0119,0,0)" d="M722 347C722 358 713 367 702 367L76 367C65 367 56 358 56 347C56 336 65 327 76 327L702 327C713 327 722 336 722 347ZM722 153C722 164 713 173 702 173L76 173C65 173 56 164 56 153C56 142 65 133 76 133L702 133C713 133 722 142 722 153Z" stroke="rgb(251,70,76)" stroke-opacity="1" stroke-width="8" fill="rgb(251,70,76)" fill-opacity="1"/></g></g><g><g transform="matrix(1,0,0,1,311.63198242187497,45.25069580078125)"><path transform="matrix(0.0119,0,0,-0.0119,0,0)" d="M552 636C552 682 506 705 465 705C431 705 368 687 338 588C332 567 329 557 305 431L236 431C217 431 206 431 206 412C206 400 215 400 234 400L300 400L225 5C207 -92 190 -183 138 -183C134 -183 109 -183 90 -165C136 -162 145 -126 145 -111C145 -88 127 -76 108 -76C82 -76 53 -98 53 -136C53 -181 97 -205 138 -205C193 -205 233 -146 251 -108C283 -45 306 76 307 83L367 400L453 400C473 400 483 400 483 420C483 431 473 431 456 431L373 431C384 489 383 487 394 545C398 566 412 637 418 649C427 668 444 683 465 683C469 683 495 683 514 665C470 661 460 626 460 611C460 588 478 576 497 576C523 576 552 598 552 636Z" stroke="rgb(251,70,76)" stroke-opacity="1" stroke-width="8" fill="rgb(251,70,76)" fill-opacity="1"/></g></g><g><g transform="matrix(1,0,0,1,317.465283203125,45.25069580078125)"><path transform="matrix(0.0119,0,0,-0.0119,0,0)" d="M332 -238C332 -235 330 -232 328 -230C224 -152 155 48 155 208L155 292C155 452 224 652 328 730C330 732 332 735 332 738C332 743 327 748 322 748C320 748 318 747 316 746C206 663 101 463 101 292L101 208C101 37 206 -163 316 -246C318 -247 320 -248 322 -248C327 -248 332 -243 332 -238Z" stroke="rgb(251,70,76)" stroke-opacity="1" stroke-width="8" fill="rgb(251,70,76)" fill-opacity="1"/></g></g><g><g transform="matrix(1,0,0,1,322.10073242187497,45.25069580078125)"><path transform="matrix(0.0119,0,0,-0.0119,0,0)" d="M498 143C498 153 489 153 486 153C476 153 475 149 472 135C455 70 437 11 396 11C369 11 366 37 366 57C366 79 368 87 379 131L401 221L437 361C444 389 444 391 444 395C444 412 432 422 415 422C391 422 376 400 373 378C355 415 326 442 281 442C164 442 40 295 40 149C40 55 95 -11 173 -11C193 -11 243 -7 303 64C311 22 346 -11 394 -11C429 -11 452 12 468 44C485 80 498 143 498 143ZM361 332C361 326 359 320 358 315L308 119C303 101 303 99 288 82C244 27 203 11 175 11C125 11 111 66 111 105C111 155 143 278 166 324C197 383 242 420 282 420C347 420 361 338 361 332Z" stroke="rgb(251,70,76)" stroke-opacity="1" stroke-width="8" fill="rgb(251,70,76)" fill-opacity="1"/></g></g><g><g transform="matrix(1,0,0,1,328.394091796875,45.25069580078125)"><path transform="matrix(0.0119,0,0,-0.0119,0,0)" d="M288 208L288 292C288 463 183 663 73 746C71 747 69 748 67 748C62 748 57 743 57 738C57 735 59 732 61 730C165 652 234 452 234 292L234 208C234 48 165 -152 61 -230C59 -232 57 -235 57 -238C57 -243 62 -248 67 -248C69 -248 71 -247 73 -246C183 -163 288 37 288 208Z" stroke="rgb(251,70,76)" stroke-opacity="1" stroke-width="8" fill="rgb(251,70,76)" fill-opacity="1"/></g></g><g><g transform="matrix(1,0,0,1,335.4080078125,45.25069580078125)"><path transform="matrix(0.0119,0,0,-0.0119,0,0)" d="M722 250C722 261 713 270 702 270L409 270L409 563C409 574 400 583 389 583C378 583 369 574 369 563L369 270L76 270C65 270 56 261 56 250C56 239 65 230 76 230L369 230L369 -63C369 -74 378 -83 389 -83C400 -83 409 -74 409 -63L409 230L702 230C713 230 722 239 722 250Z" stroke="rgb(251,70,76)" stroke-opacity="1" stroke-width="8" fill="rgb(251,70,76)" fill-opacity="1"/></g></g><g><g transform="matrix(1,0,0,1,347.0486328125,45.25069580078125)"><path transform="matrix(0.0119,0,0,-0.0119,0,0)" d="M552 636C552 682 506 705 465 705C431 705 368 687 338 588C332 567 329 557 305 431L236 431C217 431 206 431 206 412C206 400 215 400 234 400L300 400L225 5C207 -92 190 -183 138 -183C134 -183 109 -183 90 -165C136 -162 145 -126 145 -111C145 -88 127 -76 108 -76C82 -76 53 -98 53 -136C53 -181 97 -205 138 -205C193 -205 233 -146 251 -108C283 -45 306 76 307 83L367 400L453 400C473 400 483 400 483 420C483 431 473 431 456 431L373 431C384 489 383 487 394 545C398 566 412 637 418 649C427 668 444 683 465 683C469 683 495 683 514 665C470 661 460 626 460 611C460 588 478 576 497 576C523 576 552 598 552 636ZM664 670C666 690 649 705 629 705C609 705 592 690 594 670L616 423L642 423Z" stroke="rgb(251,70,76)" stroke-opacity="1" stroke-width="8" fill="rgb(251,70,76)" fill-opacity="1"/></g></g><g><g transform="matrix(1,0,0,1,356.1892578125,45.25069580078125)"><path transform="matrix(0.0119,0,0,-0.0119,0,0)" d="M332 -238C332 -235 330 -232 328 -230C224 -152 155 48 155 208L155 292C155 452 224 652 328 730C330 732 332 735 332 738C332 743 327 748 322 748C320 748 318 747 316 746C206 663 101 463 101 292L101 208C101 37 206 -163 316 -246C318 -247 320 -248 322 -248C327 -248 332 -243 332 -238Z" stroke="rgb(251,70,76)" stroke-opacity="1" stroke-width="8" fill="rgb(251,70,76)" fill-opacity="1"/></g></g><g><g transform="matrix(1,0,0,1,360.824658203125,45.25069580078125)"><path transform="matrix(0.0119,0,0,-0.0119,0,0)" d="M498 143C498 153 489 153 486 153C476 153 475 149 472 135C455 70 437 11 396 11C369 11 366 37 366 57C366 79 368 87 379 131L401 221L437 361C444 389 444 391 444 395C444 412 432 422 415 422C391 422 376 400 373 378C355 415 326 442 281 442C164 442 40 295 40 149C40 55 95 -11 173 -11C193 -11 243 -7 303 64C311 22 346 -11 394 -11C429 -11 452 12 468 44C485 80 498 143 498 143ZM361 332C361 326 359 320 358 315L308 119C303 101 303 99 288 82C244 27 203 11 175 11C125 11 111 66 111 105C111 155 143 278 166 324C197 383 242 420 282 420C347 420 361 338 361 332Z" stroke="rgb(251,70,76)" stroke-opacity="1" stroke-width="8" fill="rgb(251,70,76)" fill-opacity="1"/></g></g><g><g transform="matrix(1,0,0,1,367.11806640624997,45.25069580078125)"><path transform="matrix(0.0119,0,0,-0.0119,0,0)" d="M288 208L288 292C288 463 183 663 73 746C71 747 69 748 67 748C62 748 57 743 57 738C57 735 59 732 61 730C165 652 234 452 234 292L234 208C234 48 165 -152 61 -230C59 -232 57 -235 57 -238C57 -243 62 -248 67 -248C69 -248 71 -247 73 -246C183 -163 288 37 288 208Z" stroke="rgb(251,70,76)" stroke-opacity="1" stroke-width="8" fill="rgb(251,70,76)" fill-opacity="1"/></g></g><g><g transform="matrix(1,0,0,1,371.753466796875,45.25069580078125)"><path transform="matrix(0.0119,0,0,-0.0119,0,0)" d="M332 -238C332 -235 330 -232 328 -230C224 -152 155 48 155 208L155 292C155 452 224 652 328 730C330 732 332 735 332 738C332 743 327 748 322 748C320 748 318 747 316 746C206 663 101 463 101 292L101 208C101 37 206 -163 316 -246C318 -247 320 -248 322 -248C327 -248 332 -243 332 -238Z" stroke="rgb(251,70,76)" stroke-opacity="1" stroke-width="8" fill="rgb(251,70,76)" fill-opacity="1"/></g></g><g><g transform="matrix(1,0,0,1,376.388916015625,45.25069580078125)"><path transform="matrix(0.0119,0,0,-0.0119,0,0)" d="M527 376C527 428 468 442 434 442C376 442 341 389 329 366C304 432 250 442 221 442C117 442 60 313 60 288C60 278 72 278 72 278C80 278 83 280 85 289C119 395 185 420 219 420C238 420 273 411 273 353C273 322 256 255 219 115C203 53 168 11 124 11C118 11 95 11 74 24C99 29 121 50 121 78C121 105 99 113 84 113C54 113 29 87 29 55C29 9 79 -11 123 -11C189 -11 225 59 228 65C240 28 276 -11 336 -11C439 -11 496 118 496 143C496 153 487 153 484 153C475 153 473 149 471 142C438 35 370 11 338 11C299 11 283 43 283 77C283 99 289 121 300 165L334 302C340 328 363 420 433 420C438 420 462 420 483 407C455 402 435 377 435 353C435 337 446 318 473 318C495 318 527 336 527 376Z" stroke="rgb(251,70,76)" stroke-opacity="1" stroke-width="8" fill="rgb(251,70,76)" fill-opacity="1"/></g></g><g><g transform="matrix(1,0,0,1,385.57294921875,45.25069580078125)"><path transform="matrix(0.0119,0,0,-0.0119,0,0)" d="M722 250C722 261 713 270 702 270L76 270C65 270 56 261 56 250C56 239 65 230 76 230L702 230C713 230 722 239 722 250Z" stroke="rgb(251,70,76)" stroke-opacity="1" stroke-width="8" fill="rgb(251,70,76)" fill-opacity="1"/></g></g><g><g transform="matrix(1,0,0,1,397.21357421875,45.25069580078125)"><path transform="matrix(0.0119,0,0,-0.0119,0,0)" d="M498 143C498 153 489 153 486 153C476 153 475 149 472 135C455 70 437 11 396 11C369 11 366 37 366 57C366 79 368 87 379 131L401 221L437 361C444 389 444 391 444 395C444 412 432 422 415 422C391 422 376 400 373 378C355 415 326 442 281 442C164 442 40 295 40 149C40 55 95 -11 173 -11C193 -11 243 -7 303 64C311 22 346 -11 394 -11C429 -11 452 12 468 44C485 80 498 143 498 143ZM361 332C361 326 359 320 358 315L308 119C303 101 303 99 288 82C244 27 203 11 175 11C125 11 111 66 111 105C111 155 143 278 166 324C197 383 242 420 282 420C347 420 361 338 361 332Z" stroke="rgb(251,70,76)" stroke-opacity="1" stroke-width="8" fill="rgb(251,70,76)" fill-opacity="1"/></g></g><g><g transform="matrix(1,0,0,1,403.50698242187497,45.25069580078125)"><path transform="matrix(0.0119,0,0,-0.0119,0,0)" d="M288 208L288 292C288 463 183 663 73 746C71 747 69 748 67 748C62 748 57 743 57 738C57 735 59 732 61 730C165 652 234 452 234 292L234 208C234 48 165 -152 61 -230C59 -232 57 -235 57 -238C57 -243 62 -248 67 -248C69 -248 71 -247 73 -246C183 -163 288 37 288 208Z" stroke="rgb(251,70,76)" stroke-opacity="1" stroke-width="8" fill="rgb(251,70,76)" fill-opacity="1"/></g></g></g></g><g><g><g><g transform="matrix(1,0,0,1,269.809033203125,92.75069580078126)"><path transform="matrix(0.0119,0,0,-0.0119,0,0)" d="M429 396C429 415 368 453 300 453C185 453 77 386 77 310C77 267 113 242 117 239C58 206 26 150 26 104C26 39 83 -22 189 -22C321 -22 377 66 377 81C377 87 372 91 366 91C361 91 358 87 356 84C342 61 318 24 198 24C137 24 52 39 52 110C52 144 80 197 141 227C174 213 203 213 227 213C253 213 308 213 308 244C308 268 273 271 235 271C214 271 179 269 142 252C119 264 102 283 102 310C102 371 200 407 290 407C306 407 342 407 382 379C393 371 395 369 402 369C415 369 429 382 429 396ZM282 243C267 236 265 235 227 235C205 235 193 235 174 240C197 248 218 249 235 249C260 249 264 248 282 243Z" stroke="rgb(0,0,0)" stroke-opacity="1" stroke-width="8" fill="rgb(0,0,0)" fill-opacity="1"/></g></g><g><g transform="matrix(1,0,0,1,278.9236328125,92.75069580078126)"><path transform="matrix(0.0119,0,0,-0.0119,0,0)" d="M722 347C722 358 713 367 702 367L76 367C65 367 56 358 56 347C56 336 65 327 76 327L702 327C713 327 722 336 722 347ZM722 153C722 164 713 173 702 173L76 173C65 173 56 164 56 153C56 142 65 133 76 133L702 133C713 133 722 142 722 153Z" stroke="rgb(0,0,0)" stroke-opacity="1" stroke-width="8" fill="rgb(0,0,0)" fill-opacity="1"/></g></g><g><g transform="matrix(1,0,0,1,291.7534912109375,92.75069580078126)"><path transform="matrix(0.0119,0,0,-0.0119,0,0)" d="M787 10C787 14 786 20 785 24L618 692C613 712 612 716 594 716C585 716 577 716 563 697L57 20C49 10 49 6 49 6C49 1 50 0 71 0L761 0C778 0 787 0 787 10ZM679 72L130 72L542 622ZM1323 404C1323 422 1309 431 1294 431C1284 431 1268 425 1259 410C1257 405 1249 374 1245 356L1225 276L1180 96C1176 81 1133 11 1067 11C1016 11 1005 55 1005 92C1005 138 1022 200 1056 288C1072 329 1076 340 1076 360C1076 405 1044 442 994 442C899 442 862 297 862 288C862 278 874 278 874 278C884 278 885 280 890 296C917 390 957 420 991 420C999 420 1016 420 1016 388C1016 363 1006 337 999 318C959 212 941 155 941 108C941 19 1004 -11 1063 -11C1102 -11 1136 6 1164 34C1151 -18 1139 -67 1099 -120C1073 -154 1035 -183 989 -183C975 -183 930 -180 913 -141C929 -141 942 -141 956 -129C966 -120 976 -107 976 -88C976 -57 949 -53 939 -53C916 -53 883 -69 883 -118C883 -168 927 -205 989 -205C1092 -205 1195 -114 1223 -1L1319 381C1323 395 1323 397 1323 404Z" stroke="rgb(0,0,0)" stroke-opacity="1" stroke-width="8" fill="rgb(0,0,0)" fill-opacity="1"/></g></g><g><g transform="matrix(1,0,0,1,309.86982421875,92.75069580078126)"><path transform="matrix(0.0119,0,0,-0.0119,0,0)" d="M722 250C722 261 713 270 702 270L76 270C65 270 56 261 56 250C56 239 65 230 76 230L702 230C713 230 722 239 722 250Z" stroke="rgb(0,0,0)" stroke-opacity="1" stroke-width="8" fill="rgb(0,0,0)" fill-opacity="1"/></g></g><g><g transform="matrix(1,0,0,1,321.51044921875,92.75069580078126)"><path transform="matrix(0.0119,0,0,-0.0119,0,0)" d="M516 683C516 683 516 694 503 694C488 694 393 685 376 683C368 682 362 677 362 664C362 652 371 652 386 652C434 652 436 645 436 635L433 615L373 378C355 415 326 442 281 442C164 442 40 295 40 149C40 55 95 -11 173 -11C193 -11 243 -7 303 64C311 22 346 -11 394 -11C429 -11 452 12 468 44C485 80 498 143 498 143C498 153 489 153 486 153C476 153 475 149 472 135C455 70 437 11 396 11C369 11 366 37 366 57C366 81 368 88 372 105ZM361 332C361 326 359 320 358 315L308 119C303 101 303 99 288 82C244 27 203 11 175 11C125 11 111 66 111 105C111 155 143 278 166 324C197 383 242 420 282 420C347 420 361 338 361 332ZM1010 404C1010 422 996 431 981 431C971 431 955 425 946 410C944 405 936 374 932 356L912 276L867 96C863 81 820 11 754 11C703 11 692 55 692 92C692 138 709 200 743 288C759 329 763 340 763 360C763 405 731 442 681 442C586 442 549 297 549 288C549 278 561 278 561 278C571 278 572 280 577 296C604 390 644 420 678 420C686 420 703 420 703 388C703 363 693 337 686 318C646 212 628 155 628 108C628 19 691 -11 750 -11C789 -11 823 6 851 34C838 -18 826 -67 786 -120C760 -154 722 -183 676 -183C662 -183 617 -180 600 -141C616 -141 629 -141 643 -129C653 -120 663 -107 663 -88C663 -57 636 -53 626 -53C603 -53 570 -69 570 -118C570 -168 614 -205 676 -205C779 -205 882 -114 910 -1L1006 381C1010 395 1010 397 1010 404Z" stroke="rgb(58,169,159)" stroke-opacity="1" stroke-width="8" fill="rgb(58,169,159)" fill-opacity="1"/></g></g></g></g><g><g><g><g transform="matrix(1,0,0,1,185.3038330078125,129.88208740234376)"><path transform="matrix(0.04233,0,0,-0.04233,0,0)" d="M192 53C192 82 168 106 139 106C110 106 86 82 86 53C86 24 110 0 139 0C168 0 192 24 192 53Z" stroke="rgb(0,0,0)" stroke-opacity="1" stroke-width="8" fill="rgb(0,0,0)" fill-opacity="1"/></g></g></g></g><g><g><g><g transform="matrix(1,0,0,1,393.949658203125,107.75069580078126)"><path transform="matrix(0.0119,0,0,-0.0119,0,0)" d="M787 10C787 14 786 20 785 24L618 692C613 712 612 716 594 716C585 716 577 716 563 697L57 20C49 10 49 6 49 6C49 1 50 0 71 0L761 0C778 0 787 0 787 10ZM679 72L130 72L542 622ZM1323 404C1323 422 1309 431 1294 431C1284 431 1268 425 1259 410C1257 405 1249 374 1245 356L1225 276L1180 96C1176 81 1133 11 1067 11C1016 11 1005 55 1005 92C1005 138 1022 200 1056 288C1072 329 1076 340 1076 360C1076 405 1044 442 994 442C899 442 862 297 862 288C862 278 874 278 874 278C884 278 885 280 890 296C917 390 957 420 991 420C999 420 1016 420 1016 388C1016 363 1006 337 999 318C959 212 941 155 941 108C941 19 1004 -11 1063 -11C1102 -11 1136 6 1164 34C1151 -18 1139 -67 1099 -120C1073 -154 1035 -183 989 -183C975 -183 930 -180 913 -141C929 -141 942 -141 956 -129C966 -120 976 -107 976 -88C976 -57 949 -53 939 -53C916 -53 883 -69 883 -118C883 -168 927 -205 989 -205C1092 -205 1195 -114 1223 -1L1319 381C1323 395 1323 397 1323 404Z" stroke="rgb(0,0,0)" stroke-opacity="1" stroke-width="8" fill="rgb(0,0,0)" fill-opacity="1"/></g></g></g></g><g><g><g><g><g><g><g transform="matrix(1,0,0,1,279.739599609375,158.89652099609376)"><path transform="matrix(0.0119,0,0,-0.0119,0,0)" d="M516 683C516 683 516 694 503 694C488 694 393 685 376 683C368 682 362 677 362 664C362 652 371 652 386 652C434 652 436 645 436 635L433 615L373 378C355 415 326 442 281 442C164 442 40 295 40 149C40 55 95 -11 173 -11C193 -11 243 -7 303 64C311 22 346 -11 394 -11C429 -11 452 12 468 44C485 80 498 143 498 143C498 153 489 153 486 153C476 153 475 149 472 135C455 70 437 11 396 11C369 11 366 37 366 57C366 81 368 88 372 105ZM361 332C361 326 359 320 358 315L308 119C303 101 303 99 288 82C244 27 203 11 175 11C125 11 111 66 111 105C111 155 143 278 166 324C197 383 242 420 282 420C347 420 361 338 361 332ZM1010 404C1010 422 996 431 981 431C971 431 955 425 946 410C944 405 936 374 932 356L912 276L867 96C863 81 820 11 754 11C703 11 692 55 692 92C692 138 709 200 743 288C759 329 763 340 763 360C763 405 731 442 681 442C586 442 549 297 549 288C549 278 561 278 561 278C571 278 572 280 577 296C604 390 644 420 678 420C686 420 703 420 703 388C703 363 693 337 686 318C646 212 628 155 628 108C628 19 691 -11 750 -11C789 -11 823 6 851 34C838 -18 826 -67 786 -120C760 -154 722 -183 676 -183C662 -183 617 -180 600 -141C616 -141 629 -141 643 -129C653 -120 663 -107 663 -88C663 -57 636 -53 626 -53C603 -53 570 -69 570 -118C570 -168 614 -205 676 -205C779 -205 882 -114 910 -1L1006 381C1010 395 1010 397 1010 404Z" stroke="rgb(58,169,159)" stroke-opacity="1" stroke-width="8" fill="rgb(58,169,159)" fill-opacity="1"/></g></g><g><g transform="matrix(1,0,0,1,295.32119140624997,158.89652099609376)"><path transform="matrix(0.0119,0,0,-0.0119,0,0)" d="M722 347C722 358 713 367 702 367L76 367C65 367 56 358 56 347C56 336 65 327 76 327L702 327C713 327 722 336 722 347ZM722 153C722 164 713 173 702 173L76 173C65 173 56 164 56 153C56 142 65 133 76 133L702 133C713 133 722 142 722 153Z" stroke="rgb(0,0,0)" stroke-opacity="1" stroke-width="8" fill="rgb(0,0,0)" fill-opacity="1"/></g></g><g><g transform="matrix(1,0,0,1,308.15107421875,158.89652099609376)"><path transform="matrix(0.0119,0,0,-0.0119,0,0)" d="M192 447C192 473 175 500 139 500C119 500 105 490 99 484C98 482 96 481 96 481C96 481 94 495 94 499C94 531 101 603 164 665C176 677 176 679 176 682C176 689 171 693 166 693C155 693 72 617 72 499C72 439 96 394 139 394C174 394 192 421 192 447ZM386 447C386 473 369 500 333 500C313 500 299 490 293 484C292 482 290 481 290 481C290 481 288 495 288 499C288 531 295 603 358 665C370 677 370 679 370 682C370 689 365 693 360 693C349 693 266 617 266 499C266 439 290 394 333 394C368 394 386 421 386 447ZM999 0L999 31C929 31 921 38 921 87L921 694L777 683L777 652C847 652 855 645 855 596L855 380C826 416 783 442 729 442C611 442 506 344 506 215C506 88 604 -11 718 -11C782 -11 827 23 852 55L852 -11ZM852 118C852 100 852 98 841 81C811 33 766 11 723 11C678 11 642 37 618 75C592 116 589 173 589 214C589 251 591 311 620 356C641 387 679 420 733 420C768 420 810 405 841 360C852 343 852 341 852 323ZM1275 0L1275 31C1209 31 1205 36 1205 75L1205 442L1065 431L1065 400C1130 400 1139 394 1139 345L1139 76C1139 31 1128 31 1061 31L1061 0L1171 3C1206 3 1241 1 1275 0ZM1220 604C1220 631 1197 657 1167 657C1133 657 1113 629 1113 604C1113 577 1136 551 1166 551C1200 551 1220 579 1220 604ZM1663 635C1663 672 1626 705 1573 705C1503 705 1418 652 1418 546L1418 431L1339 431L1339 400L1418 400L1418 76C1418 31 1407 31 1340 31L1340 0L1454 3C1494 3 1541 3 1581 0L1581 31L1560 31C1486 31 1484 42 1484 78L1484 400L1598 400L1598 431L1481 431L1481 547C1481 635 1529 683 1573 683C1576 683 1591 683 1606 676C1594 672 1576 659 1576 634C1576 611 1592 591 1619 591C1648 591 1663 611 1663 635ZM1969 635C1969 672 1932 705 1879 705C1809 705 1724 652 1724 546L1724 431L1645 431L1645 400L1724 400L1724 76C1724 31 1713 31 1646 31L1646 0L1760 3C1800 3 1847 3 1887 0L1887 31L1866 31C1792 31 1790 42 1790 78L1790 400L1904 400L1904 431L1787 431L1787 547C1787 635 1835 683 1879 683C1882 683 1897 683 1912 676C1900 672 1882 659 1882 634C1882 611 1898 591 1925 591C1954 591 1969 611 1969 635ZM2333 119C2333 129 2325 131 2320 131C2311 131 2309 125 2307 117C2272 14 2182 14 2172 14C2122 14 2082 44 2059 81C2029 129 2029 195 2029 231L2308 231C2330 231 2333 231 2333 252C2333 351 2279 448 2154 448C2038 448 1946 345 1946 220C1946 86 2051 -11 2166 -11C2288 -11 2333 100 2333 119ZM2267 252L2030 252C2036 401 2120 426 2154 426C2257 426 2267 291 2267 252ZM2726 381C2726 413 2695 442 2652 442C2579 442 2543 375 2529 332L2529 442L2390 431L2390 400C2460 400 2468 393 2468 344L2468 76C2468 31 2457 31 2390 31L2390 0L2504 3C2544 3 2591 3 2631 0L2631 31L2610 31C2536 31 2534 42 2534 78L2534 232C2534 331 2576 420 2652 420C2659 420 2661 420 2663 419C2660 418 2640 406 2640 380C2640 352 2661 337 2683 337C2701 337 2726 349 2726 381ZM3169 119C3169 129 3161 131 3156 131C3147 131 3145 125 3143 117C3108 14 3018 14 3008 14C2958 14 2918 44 2895 81C2865 129 2865 195 2865 231L3144 231C3166 231 3169 231 3169 252C3169 351 3115 448 2990 448C2874 448 2782 345 2782 220C2782 86 2887 -11 3002 -11C3124 -11 3169 100 3169 119ZM3103 252L2866 252C2872 401 2956 426 2990 426C3093 426 3103 291 3103 252ZM3733 0L3733 31C3681 31 3656 31 3655 61L3655 252C3655 338 3655 369 3624 405C3610 422 3577 442 3519 442C3446 442 3399 399 3371 337L3371 442L3230 431L3230 400C3300 400 3308 393 3308 344L3308 76C3308 31 3297 31 3230 31L3230 0L3343 3L3455 0L3455 31C3388 31 3377 31 3377 76L3377 260C3377 364 3448 420 3512 420C3575 420 3586 366 3586 309L3586 76C3586 31 3575 31 3508 31L3508 0L3621 3ZM4086 124L4086 181L4061 181L4061 126C4061 52 4031 14 3994 14C3927 14 3927 105 3927 122L3927 400L4070 400L4070 431L3927 431L3927 615L3902 615C3901 533 3871 426 3773 422L3773 400L3858 400L3858 124C3858 1 3951 -11 3987 -11C4058 -11 4086 60 4086 124ZM4390 0L4390 31C4324 31 4320 36 4320 75L4320 442L4180 431L4180 400C4245 400 4254 394 4254 345L4254 76C4254 31 4243 31 4176 31L4176 0L4286 3C4321 3 4356 1 4390 0ZM4335 604C4335 631 4312 657 4282 657C4248 657 4228 629 4228 604C4228 577 4251 551 4281 551C4315 551 4335 579 4335 604ZM4904 89L4904 145L4879 145L4879 89C4879 31 4854 25 4843 25C4810 25 4806 70 4806 75L4806 275C4806 317 4806 356 4770 393C4731 432 4681 448 4633 448C4551 448 4482 401 4482 335C4482 305 4502 288 4528 288C4556 288 4574 308 4574 334C4574 346 4569 379 4523 380C4550 415 4599 426 4631 426C4680 426 4737 387 4737 298L4737 261C4686 258 4616 255 4553 225C4478 191 4453 139 4453 95C4453 14 4550 -11 4613 -11C4679 -11 4725 29 4744 76C4748 36 4775 -6 4822 -6C4843 -6 4904 8 4904 89ZM4737 140C4737 45 4665 11 4620 11C4571 11 4530 46 4530 96C4530 151 4572 234 4737 240ZM5176 0L5176 31C5109 31 5098 31 5098 76L5098 694L4954 683L4954 652C5024 652 5032 645 5032 596L5032 76C5032 31 5021 31 4954 31L4954 0L5065 3ZM6002 214C6002 342 5902 448 5781 448C5656 448 5559 339 5559 214C5559 85 5663 -11 5780 -11C5901 -11 6002 87 6002 214ZM5919 222C5919 186 5919 132 5897 88C5875 43 5831 14 5781 14C5738 14 5694 35 5667 81C5642 125 5642 186 5642 222C5642 261 5642 315 5666 359C5693 405 5740 426 5780 426C5824 426 5867 404 5893 361C5919 318 5919 260 5919 222ZM6388 635C6388 672 6351 705 6298 705C6228 705 6143 652 6143 546L6143 431L6064 431L6064 400L6143 400L6143 76C6143 31 6132 31 6065 31L6065 0L6179 3C6219 3 6266 3 6306 0L6306 31L6285 31C6211 31 6209 42 6209 78L6209 400L6323 400L6323 431L6206 431L6206 547C6206 635 6254 683 6298 683C6301 683 6316 683 6331 676C6319 672 6301 659 6301 634C6301 611 6317 591 6344 591C6373 591 6388 611 6388 635Z" stroke="rgb(0,0,0)" stroke-opacity="1" stroke-width="24" fill="rgb(0,0,0)" fill-opacity="1"/></g></g><g><g transform="matrix(1,0,0,1,383.5330078125,158.89652099609376)"><path transform="matrix(0.0119,0,0,-0.0119,0,0)" d="" stroke="rgb(214,214,214)" stroke-opacity="1" stroke-width="24" fill="rgb(214,214,214)" fill-opacity="1"/></g></g><g><g transform="matrix(1,0,0,1,387.482666015625,158.89652099609376)"><path transform="matrix(0.0119,0,0,-0.0119,0,0)" d="M490 404C490 422 476 431 461 431C451 431 435 425 426 410C424 405 416 374 412 356L392 276L347 96C343 81 300 11 234 11C183 11 172 55 172 92C172 138 189 200 223 288C239 329 243 340 243 360C243 405 211 442 161 442C66 442 29 297 29 288C29 278 41 278 41 278C51 278 52 280 57 296C84 390 124 420 158 420C166 420 183 420 183 388C183 363 173 337 166 318C126 212 108 155 108 108C108 19 171 -11 230 -11C269 -11 303 6 331 34C318 -18 306 -67 266 -120C240 -154 202 -183 156 -183C142 -183 97 -180 80 -141C96 -141 109 -141 123 -129C133 -120 143 -107 143 -88C143 -57 116 -53 106 -53C83 -53 50 -69 50 -118C50 -168 94 -205 156 -205C259 -205 362 -114 390 -1L486 381C490 395 490 397 490 404Z" stroke="rgb(2,122,255)" stroke-opacity="1" stroke-width="8" fill="rgb(2,122,255)" fill-opacity="1"/></g></g><g><g transform="matrix(1,0,0,1,393.315966796875,158.89652099609376)"><path transform="matrix(0.0119,0,0,-0.0119,0,0)" d="M206 589C206 649 182 694 139 694C104 694 86 667 86 641C86 615 103 588 139 588C159 588 173 598 179 604C180 606 182 607 182 607C182 607 184 593 184 589C184 557 177 485 114 423C102 411 102 409 102 406C102 399 107 395 112 395C123 395 206 471 206 589ZM400 589C400 649 376 694 333 694C298 694 280 667 280 641C280 615 297 588 333 588C353 588 367 598 373 604C374 606 376 607 376 607C376 607 378 593 378 589C378 557 371 485 308 423C296 411 296 409 296 406C296 399 301 395 306 395C317 395 400 471 400 589Z" stroke="rgb(0,0,0)" stroke-opacity="1" stroke-width="8" fill="rgb(0,0,0)" fill-opacity="1"/></g></g></g></g><line style="fill:none;stroke-width:0.555556px;stroke:rgb(214, 214, 214);" x1="275.6163330078125" y1="146.44097900390625" x2="403.0555786132812" y2="146.44097900390625"/><line style="fill:none;stroke-width:0.555556px;stroke:rgb(214, 214, 214);" x1="275.6163330078125" y1="146.44097900390625" x2="275.6163330078125" y2="163.02084045410155"/><line style="fill:none;stroke-width:0.555556px;stroke:rgb(214, 214, 214);" x1="403.0555786132812" y1="146.44097900390625" x2="403.0555786132812" y2="163.02084045410155"/><line style="fill:none;stroke-width:0.555556px;stroke:rgb(214, 214, 214);" x1="275.6163330078125" y1="163.02084045410155" x2="403.0555786132812" y2="163.02084045410155"/></g></g></g><g><g><g><g transform="matrix(1,0,0,1,227.1007080078125,97.88555419921875)"><path transform="matrix(0.04233,0,0,-0.04233,0,0)" d="M192 53C192 82 168 106 139 106C110 106 86 82 86 53C86 24 110 0 139 0C168 0 192 24 192 53Z" stroke="rgb(0,0,0)" stroke-opacity="1" stroke-width="8" fill="rgb(0,0,0)" fill-opacity="1"/></g></g></g></g></svg>
</svg>