<?xml version="1.0" encoding="UTF-8" standalone="no"?><!DOCTYPE svg PUBLIC "-//W3C//DTD SVG 1.1//EN" "http://www.w3.org/Graphics/SVG/1.1/DTD/svg11.dtd"><!-- Generated by graphviz version 2.40.1 (20161225.0304)
 --><!-- Title: G Pages: 1 --><svg xmlns="http://www.w3.org/2000/svg" xmlns:xlink="http://www.w3.org/1999/xlink" width="168pt" height="441pt" viewBox="0.00 0.00 167.93 440.80">
<g id="graph0" class="graph" transform="scale(1 1) rotate(0) translate(4 436.8)">
<title>G</title>
<polygon fill="#ffffff" stroke="transparent" points="-4,4 -4,-436.8 163.9347,-436.8 163.9347,4 -4,4"/>
<text text-anchor="middle" x="79.9674" y="-416.2" font-family="Times,serif" font-size="14.00" fill="#000000">Lexical</text>
<!-- u -->
<g id="node1" class="node">
<title>u</title>
<ellipse fill="none" stroke="#000000" cx="75.1689" cy="-373.2" rx="18" ry="18"/>
<text text-anchor="middle" x="75.1689" y="-369" font-family="Times,serif" font-size="14.00" fill="#000000">u</text>
<text text-anchor="middle" x="40.2583" y="-395.4" font-family="Times,serif" font-size="14.00" fill="#000000">(1,10)</text>
</g>
<!-- v -->
<g id="node2" class="node">
<title>v</title>
<ellipse fill="none" stroke="#000000" cx="65.1689" cy="-195.6" rx="18" ry="18"/>
<text text-anchor="middle" x="65.1689" y="-191.4" font-family="Times,serif" font-size="14.00" fill="#000000">v</text>
<text text-anchor="middle" x="33.7583" y="-217.8" font-family="Times,serif" font-size="14.00" fill="#000000">(2,7)</text>
</g>
<!-- u&#45;&gt;v -->
<g id="edge1" class="edge">
<title>u-&gt;v</title>
<path fill="none" stroke="#00ff00" d="M68.4702,-356.3603C63.2241,-342.2176 56.3568,-321.3409 53.5265,-302.4 49.4995,-275.4505 53.8604,-244.478 58.347,-222.851"/>
<polygon fill="#00ff00" stroke="#00ff00" points="61.7739,-223.5641 60.5235,-213.0433 54.9401,-222.0476 61.7739,-223.5641"/>
<text text-anchor="middle" x="66.9901" y="-280.2" font-family="Times,serif" font-size="14.00" fill="#00ff00">Tree</text>
</g>
<!-- y -->
<g id="node3" class="node">
<title>y</title>
<ellipse fill="none" stroke="#000000" cx="65.1689" cy="-106.8" rx="18" ry="18"/>
<text text-anchor="middle" x="65.1689" y="-102.6" font-family="Times,serif" font-size="14.00" fill="#000000">y</text>
<text text-anchor="middle" x="33.7583" y="-129" font-family="Times,serif" font-size="14.00" fill="#000000">(3,6)</text>
</g>
<!-- u&#45;&gt;y -->
<g id="edge7" class="edge">
<title>u-&gt;y</title>
<path fill="none" stroke="#0000ff" d="M63.4779,-358.9822C46.1886,-336.9335 14.5732,-292.4312 2.7439,-248.4 -9.3218,-203.4887 23.4681,-154.5747 45.9717,-127.6032"/>
<polygon fill="#0000ff" stroke="#0000ff" points="48.6793,-129.8227 52.5643,-119.9659 43.3804,-125.2487 48.6793,-129.8227"/>
<text text-anchor="middle" x="26.8814" y="-235.8" font-family="Times,serif" font-size="14.00" fill="#0000ff">Forward</text>
</g>
<!-- x -->
<g id="node5" class="node">
<title>x</title>
<ellipse fill="none" stroke="#000000" cx="106.1689" cy="-284.4" rx="18" ry="18"/>
<text text-anchor="middle" x="106.1689" y="-280.2" font-family="Times,serif" font-size="14.00" fill="#000000">x</text>
<text text-anchor="middle" x="74.7583" y="-306.6" font-family="Times,serif" font-size="14.00" fill="#000000">(8,9)</text>
</g>
<!-- u&#45;&gt;x -->
<g id="edge5" class="edge">
<title>u-&gt;x</title>
<path fill="none" stroke="#00ff00" d="M81.146,-356.0785C85.6062,-343.3023 91.7838,-325.6062 96.8849,-310.994"/>
<polygon fill="#00ff00" stroke="#00ff00" points="100.2186,-312.0638 100.2101,-301.469 93.6097,-309.7566 100.2186,-312.0638"/>
<text text-anchor="middle" x="106.9901" y="-324.6" font-family="Times,serif" font-size="14.00" fill="#00ff00">Tree</text>
</g>
<!-- v&#45;&gt;y -->
<g id="edge2" class="edge">
<title>v-&gt;y</title>
<path fill="none" stroke="#00ff00" d="M65.1689,-177.2006C65.1689,-165.0949 65.1689,-149.0076 65.1689,-135.2674"/>
<polygon fill="#00ff00" stroke="#00ff00" points="68.669,-134.872 65.1689,-124.872 61.669,-134.8721 68.669,-134.872"/>
<text text-anchor="middle" x="77.9901" y="-147" font-family="Times,serif" font-size="14.00" fill="#00ff00">Tree</text>
</g>
<!-- y&#45;&gt;u -->
<g id="edge3" class="edge">
<title>y-&gt;u</title>
<path fill="none" stroke="#ff0000" d="M78.0994,-119.956C83.9225,-126.4267 90.5182,-134.5881 95.1689,-142.8 123.4906,-192.8079 127.4743,-209.2119 133.1689,-266.4 136.3119,-297.9638 141.9513,-310.9333 124.1689,-337.2 118.1078,-346.153 109.0532,-353.7045 100.3707,-359.5429"/>
<polygon fill="#ff0000" stroke="#ff0000" points="98.2449,-356.7432 91.5984,-364.9939 101.9394,-362.6888 98.2449,-356.7432"/>
<text text-anchor="middle" x="145.5518" y="-235.8" font-family="Times,serif" font-size="14.00" fill="#ff0000">Back</text>
</g>
<!-- z -->
<g id="node4" class="node">
<title>z</title>
<ellipse fill="none" stroke="#000000" cx="65.1689" cy="-18" rx="18" ry="18"/>
<text text-anchor="middle" x="65.1689" y="-13.8" font-family="Times,serif" font-size="14.00" fill="#000000">z</text>
<text text-anchor="middle" x="33.7583" y="-40.2" font-family="Times,serif" font-size="14.00" fill="#000000">(4,5)</text>
</g>
<!-- y&#45;&gt;z -->
<g id="edge4" class="edge">
<title>y-&gt;z</title>
<path fill="none" stroke="#00ff00" d="M65.1689,-88.4006C65.1689,-76.2949 65.1689,-60.2076 65.1689,-46.4674"/>
<polygon fill="#00ff00" stroke="#00ff00" points="68.669,-46.072 65.1689,-36.072 61.669,-46.0721 68.669,-46.072"/>
<text text-anchor="middle" x="77.9901" y="-58.2" font-family="Times,serif" font-size="14.00" fill="#00ff00">Tree</text>
</g>
<!-- x&#45;&gt;v -->
<g id="edge6" class="edge">
<title>x-&gt;v</title>
<path fill="none" stroke="#c0c0c0" d="M98.4571,-267.6974C92.4441,-254.6741 83.9871,-236.3574 77.1021,-221.4455"/>
<polygon fill="#c0c0c0" stroke="#c0c0c0" points="80.2157,-219.8395 72.8461,-212.2277 73.8604,-222.7739 80.2157,-219.8395"/>
<text text-anchor="middle" x="106.1121" y="-235.8" font-family="Times,serif" font-size="14.00" fill="#c0c0c0">Cross</text>
</g>
</g>
</svg>