<svg xmlns="http://www.w3.org/2000/svg" xmlns:xlink="http://www.w3.org/1999/xlink" x="0" y="0" style="         width:702px;         height:248.484375px;         background: transparent;         fill: none; " viewBox="184.82 25.91 471.91 182.83">
        <svg xmlns="http://www.w3.org/2000/svg"/>
        
        <svg xmlns="http://www.w3.org/2000/svg" class="role-diagram-draw-area" style="overflow: visible;"><g class="shapes-region" style="stroke: black; fill: none;"><g class="grouped-shape"><g class="arrow-line"><path class="connection real" stroke-dasharray="" d="  M186.37,112.67 L217.37,112.67" style="stroke: rgb(2, 122, 255); stroke-opacity: 1; stroke-width: 2; fill: none; fill-opacity: 1;"/><g stroke="none" fill="rgb(2,122,255)" fill-opacity="1" transform="matrix(-1,1.2246467991473532e-16,-1.2246467991473532e-16,-1,221.36666666666673,112.66666666666666)" style="stroke: none; fill: rgb(2, 122, 255); stroke-width: 2;"><path d=" M9.91,-4.76 L0,0 L9.91,4.76 L6.58,0 Z"/></g></g><g class="arrow-line"><path class="connection real" stroke-dasharray="" d="  M238.87,62.57 L238.87,91.17" style="stroke: rgb(2, 122, 255); stroke-opacity: 1; stroke-width: 2; fill: none; fill-opacity: 1;"/><g stroke="none" fill="rgb(2,122,255)" fill-opacity="1" transform="matrix(-1.8369701987210297e-16,-1,1,-1.8369701987210297e-16,238.86666666666673,95.16666666666666)" style="stroke: none; fill: rgb(2, 122, 255); stroke-width: 2;"><path d=" M9.91,-4.76 L0,0 L9.91,4.76 L6.58,0 Z"/></g></g><g class="arrow-line"><path class="connection real" stroke-dasharray="" d="  M238.87,162.76 L238.87,134.17" style="stroke: rgb(2, 122, 255); stroke-opacity: 1; stroke-width: 2; fill: none; fill-opacity: 1;"/><g stroke="none" fill="rgb(2,122,255)" fill-opacity="1" transform="matrix(3.061616997868383e-16,1,-1,3.061616997868383e-16,238.86666666666673,130.16666666666666)" style="stroke: none; fill: rgb(2, 122, 255); stroke-width: 2;"><path d=" M9.91,-4.76 L0,0 L9.91,4.76 L6.58,0 Z"/></g></g><g class="arrow-line"><path class="connection real" stroke-dasharray="" d="  M291.37,112.67 L260.37,112.67" style="stroke: rgb(2, 122, 255); stroke-opacity: 1; stroke-width: 2; fill: none; fill-opacity: 1;"/><g stroke="none" fill="rgb(2,122,255)" fill-opacity="1" transform="matrix(1,-2.4492935982947064e-16,2.4492935982947064e-16,1,256.36666666666673,112.66666666666666)" style="stroke: none; fill: rgb(2, 122, 255); stroke-width: 2;"><path d=" M9.91,-4.76 L0,0 L9.91,4.76 L6.58,0 Z"/></g></g><g class="arrow-line"><path class="connection real" stroke-dasharray="" d="  M203.08,72.92 L224.21,95.6" style="stroke: rgb(2, 122, 255); stroke-opacity: 1; stroke-width: 2; fill: none; fill-opacity: 1;"/><g stroke="none" fill="rgb(2,122,255)" fill-opacity="1" transform="matrix(-0.6816153306904397,-0.73171069485676,0.73171069485676,-0.6816153306904397,226.93839837958404,98.52839617334001)" style="stroke: none; fill: rgb(2, 122, 255); stroke-width: 2;"><path d=" M9.91,-4.76 L0,0 L9.91,4.76 L6.58,0 Z"/></g></g><g class="arrow-line"><path class="connection real" stroke-dasharray="" d="  M275.52,77.19 L254.6,96.68" style="stroke: rgb(2, 122, 255); stroke-opacity: 1; stroke-width: 2; fill: none; fill-opacity: 1;"/><g stroke="none" fill="rgb(2,122,255)" fill-opacity="1" transform="matrix(0.7317106948567597,-0.68161533069044,0.68161533069044,0.7317106948567597,251.67160382666003,99.40506504625066)" style="stroke: none; fill: rgb(2, 122, 255); stroke-width: 2;"><path d=" M9.91,-4.76 L0,0 L9.91,4.76 L6.58,0 Z"/></g></g><g class="arrow-line"><path class="connection real" stroke-dasharray="" d="  M202.21,145.48 L223.13,125.99" style="stroke: rgb(2, 122, 255); stroke-opacity: 1; stroke-width: 2; fill: none; fill-opacity: 1;"/><g stroke="none" fill="rgb(2,122,255)" fill-opacity="1" transform="matrix(-0.7317106948567595,0.6816153306904401,-0.6816153306904401,-0.7317106948567595,226.0617295066734,123.26160162041602)" style="stroke: none; fill: rgb(2, 122, 255); stroke-width: 2;"><path d=" M9.91,-4.76 L0,0 L9.91,4.76 L6.58,0 Z"/></g></g><g class="arrow-line"><path class="connection real" stroke-dasharray="" d="  M274.65,149.75 L253.52,127.07" style="stroke: rgb(2, 122, 255); stroke-opacity: 1; stroke-width: 2; fill: none; fill-opacity: 1;"/><g stroke="none" fill="rgb(2,122,255)" fill-opacity="1" transform="matrix(0.6816153306904401,0.7317106948567597,-0.7317106948567597,0.6816153306904401,250.7949349537494,124.13827049332662)" style="stroke: none; fill: rgb(2, 122, 255); stroke-width: 2;"><path d=" M9.91,-4.76 L0,0 L9.91,4.76 L6.58,0 Z"/></g></g></g><g class="grouped-shape"><g class="arrow-line"><path class="connection real" stroke-dasharray="" d="  M366.13,112.67 L397.13,112.67" style="stroke: rgb(2, 122, 255); stroke-opacity: 1; stroke-width: 2; fill: none; fill-opacity: 1;"/><g stroke="none" fill="rgb(2,122,255)" fill-opacity="1" transform="matrix(1,0,0,1,362.1333333333335,112.66666666666666)" style="stroke: none; fill: rgb(2, 122, 255); stroke-width: 2;"><path d=" M9.91,-4.76 L0,0 L9.91,4.76 L6.58,0 Z"/></g></g><g class="arrow-line"><path class="connection real" stroke-dasharray="" d="  M414.63,66.57 L414.63,95.17" style="stroke: rgb(2, 122, 255); stroke-opacity: 1; stroke-width: 2; fill: none; fill-opacity: 1;"/><g stroke="none" fill="rgb(2,122,255)" fill-opacity="1" transform="matrix(6.123233995736766e-17,1,-1,6.123233995736766e-17,414.63333333333344,62.57291666666663)" style="stroke: none; fill: rgb(2, 122, 255); stroke-width: 2;"><path d=" M9.91,-4.76 L0,0 L9.91,4.76 L6.58,0 Z"/></g></g><g class="arrow-line"><path class="connection real" stroke-dasharray="" d="  M414.63,158.76 L414.63,130.17" style="stroke: rgb(2, 122, 255); stroke-opacity: 1; stroke-width: 2; fill: none; fill-opacity: 1;"/><g stroke="none" fill="rgb(2,122,255)" fill-opacity="1" transform="matrix(-1.8369701987210297e-16,-1,1,-1.8369701987210297e-16,414.63333333333344,162.76041666666669)" style="stroke: none; fill: rgb(2, 122, 255); stroke-width: 2;"><path d=" M9.91,-4.76 L0,0 L9.91,4.76 L6.58,0 Z"/></g></g><g class="arrow-line"><path class="connection real" stroke-dasharray="" d="  M463.13,112.67 L432.13,112.67" style="stroke: rgb(2, 122, 255); stroke-opacity: 1; stroke-width: 2; fill: none; fill-opacity: 1;"/><g stroke="none" fill="rgb(2,122,255)" fill-opacity="1" transform="matrix(-1,1.2246467991473532e-16,-1.2246467991473532e-16,-1,467.1333333333334,112.66666666666666)" style="stroke: none; fill: rgb(2, 122, 255); stroke-width: 2;"><path d=" M9.91,-4.76 L0,0 L9.91,4.76 L6.58,0 Z"/></g></g><g class="arrow-line"><path class="connection real" stroke-dasharray="" d="  M381.57,75.85 L402.71,98.53" style="stroke: rgb(2, 122, 255); stroke-opacity: 1; stroke-width: 2; fill: none; fill-opacity: 1;"/><g stroke="none" fill="rgb(2,122,255)" fill-opacity="1" transform="matrix(0.6816153306904396,0.7317106948567601,-0.7317106948567601,0.6816153306904396,378.8485284720854,72.91852185335341)" style="stroke: none; fill: rgb(2, 122, 255); stroke-width: 2;"><path d=" M9.91,-4.76 L0,0 L9.91,4.76 L6.58,0 Z"/></g></g><g class="arrow-line"><path class="connection real" stroke-dasharray="" d="  M448.36,79.92 L427.44,99.41" style="stroke: rgb(2, 122, 255); stroke-opacity: 1; stroke-width: 2; fill: none; fill-opacity: 1;"/><g stroke="none" fill="rgb(2,122,255)" fill-opacity="1" transform="matrix(-0.7317106948567601,0.6816153306904397,-0.6816153306904397,-0.7317106948567601,451.2874659538142,77.18866536155912)" style="stroke: none; fill: rgb(2, 122, 255); stroke-width: 2;"><path d=" M9.91,-4.76 L0,0 L9.91,4.76 L6.58,0 Z"/></g></g><g class="arrow-line"><path class="connection real" stroke-dasharray="" d="  M380.91,142.75 L401.83,123.26" style="stroke: rgb(2, 122, 255); stroke-opacity: 1; stroke-width: 2; fill: none; fill-opacity: 1;"/><g stroke="none" fill="rgb(2,122,255)" fill-opacity="1" transform="matrix(0.7317106948567597,-0.68161533069044,0.68161533069044,0.7317106948567597,377.97920071285256,145.4780013051075)" style="stroke: none; fill: rgb(2, 122, 255); stroke-width: 2;"><path d=" M9.91,-4.76 L0,0 L9.91,4.76 L6.58,0 Z"/></g></g><g class="arrow-line"><path class="connection real" stroke-dasharray="" d="  M447.69,146.82 L426.56,124.14" style="stroke: rgb(2, 122, 255); stroke-opacity: 1; stroke-width: 2; fill: none; fill-opacity: 1;"/><g stroke="none" fill="rgb(2,122,255)" fill-opacity="1" transform="matrix(-0.6816153306904397,-0.73171069485676,0.73171069485676,-0.6816153306904397,450.41813819458145,149.74814481331322)" style="stroke: none; fill: rgb(2, 122, 255); stroke-width: 2;"><path d=" M9.91,-4.76 L0,0 L9.91,4.76 L6.58,0 Z"/></g></g></g><g class="arrow-line"><path class="connection real" stroke-dasharray="" d="  M618.69,82.39 L597.77,101.88" style="stroke: rgb(2, 122, 255); stroke-opacity: 1; stroke-width: 2; fill: none; fill-opacity: 1;"/><g stroke="none" fill="rgb(2,122,255)" fill-opacity="1" transform="matrix(-0.7317106948567601,0.6816153306904397,-0.6816153306904397,-0.7317106948567601,621.6207992871475,79.66666666666663)" style="stroke: none; fill: rgb(2, 122, 255); stroke-width: 2;"><path d=" M9.91,-4.76 L0,0 L9.91,4.76 L6.58,0 Z"/></g></g><g class="arrow-line"><path class="connection real" stroke-dasharray="" d="  M594.03,82.39 L573.1,101.88" style="stroke: rgb(2, 122, 255); stroke-opacity: 1; stroke-width: 2; fill: none; fill-opacity: 1;"/><g stroke="none" fill="rgb(2,122,255)" fill-opacity="1" transform="matrix(-0.7317106948567601,0.6816153306904397,-0.6816153306904397,-0.7317106948567601,596.954132620481,79.66666666666663)" style="stroke: none; fill: rgb(2, 122, 255); stroke-width: 2;"><path d=" M9.91,-4.76 L0,0 L9.91,4.76 L6.58,0 Z"/></g></g><g class="arrow-line"><path class="connection real" stroke-dasharray="" d="  M548.31,101.88 L569.23,82.39" style="stroke: rgb(2, 122, 255); stroke-opacity: 1; stroke-width: 2; fill: none; fill-opacity: 1;"/><g stroke="none" fill="rgb(2,122,255)" fill-opacity="1" transform="matrix(-0.7317106948567595,0.6816153306904401,-0.6816153306904401,-0.7317106948567595,572.1617295066734,79.66666666666663)" style="stroke: none; fill: rgb(2, 122, 255); stroke-width: 2;"><path d=" M9.91,-4.76 L0,0 L9.91,4.76 L6.58,0 Z"/></g></g><g class="arrow-line"><path class="connection real" stroke-dasharray="" d="  M618.69,104.61 L597.77,124.1" style="stroke: rgb(2, 122, 255); stroke-opacity: 1; stroke-width: 2; fill: none; fill-opacity: 1;"/><g stroke="none" fill="rgb(2,122,255)" fill-opacity="1" transform="matrix(-0.7317106948567601,0.6816153306904397,-0.6816153306904397,-0.7317106948567601,621.6207992871477,101.88306635135814)" style="stroke: none; fill: rgb(2, 122, 255); stroke-width: 2;"><path d=" M9.91,-4.76 L0,0 L9.91,4.76 L6.58,0 Z"/></g></g><g class="arrow-line"><path class="connection real" stroke-dasharray="" d="  M548.31,124.1 L569.23,104.61" style="stroke: rgb(2, 122, 255); stroke-opacity: 1; stroke-width: 2; fill: none; fill-opacity: 1;"/><g stroke="none" fill="rgb(2,122,255)" fill-opacity="1" transform="matrix(-0.7317106948567595,0.6816153306904401,-0.6816153306904401,-0.7317106948567595,572.1617295066736,101.88306635135814)" style="stroke: none; fill: rgb(2, 122, 255); stroke-width: 2;"><path d=" M9.91,-4.76 L0,0 L9.91,4.76 L6.58,0 Z"/></g></g><g class="arrow-line"><path class="connection real" stroke-dasharray="" d="  M618.69,126.86 L597.77,146.35" style="stroke: rgb(2, 122, 255); stroke-opacity: 1; stroke-width: 2; fill: none; fill-opacity: 1;"/><g stroke="none" fill="rgb(2,122,255)" fill-opacity="1" transform="matrix(-0.7317106948567601,0.6816153306904397,-0.6816153306904397,-0.7317106948567601,621.6207992871476,124.13827049332662)" style="stroke: none; fill: rgb(2, 122, 255); stroke-width: 2;"><path d=" M9.91,-4.76 L0,0 L9.91,4.76 L6.58,0 Z"/></g></g><g class="arrow-line"><path class="connection real" stroke-dasharray="" d="  M594.84,126.86 L573.92,146.35" style="stroke: rgb(2, 122, 255); stroke-opacity: 1; stroke-width: 2; fill: none; fill-opacity: 1;"/><g stroke="none" fill="rgb(2,122,255)" fill-opacity="1" transform="matrix(-0.7317106948567601,0.6816153306904397,-0.6816153306904397,-0.7317106948567601,597.77160382666,124.13827049332662)" style="stroke: none; fill: rgb(2, 122, 255); stroke-width: 2;"><path d=" M9.91,-4.76 L0,0 L9.91,4.76 L6.58,0 Z"/></g></g><g class="arrow-line"><path class="connection real" stroke-dasharray="" d="  M571,126.86 L550.07,146.35" style="stroke: rgb(2, 122, 255); stroke-opacity: 1; stroke-width: 2; fill: none; fill-opacity: 1;"/><g stroke="none" fill="rgb(2,122,255)" fill-opacity="1" transform="matrix(-0.7317106948567601,0.6816153306904397,-0.6816153306904397,-0.7317106948567601,573.9224083661726,124.13827049332662)" style="stroke: none; fill: rgb(2, 122, 255); stroke-width: 2;"><path d=" M9.91,-4.76 L0,0 L9.91,4.76 L6.58,0 Z"/></g></g><g/></g><g/><g/><g/></svg>
        <svg xmlns="http://www.w3.org/2000/svg" xmlns:xlink="http://www.w3.org/1999/xlink" width="700" height="246.484375" style="width:700px;height:246.484375px;font-family:LatinModern-Math, LatinModern, Asana-Math, Asana;background:transparent;"><g><g><g><g transform="matrix(1,0,0,1,187.86459350585938,195.73853149414063)"><path transform="matrix(0.020399999999999998,0,0,-0.020399999999999998,0,0)" d="M785 675C785 683 779 683 763 683L69 683C53 683 47 683 47 675C47 675 47 672 52 663L390 -15C397 -28 399 -33 416 -33C433 -33 435 -28 442 -15L780 663C785 672 785 675 785 675ZM720 612L446 61L445 61L170 612Z" stroke="rgb(0,0,0)" stroke-opacity="1" stroke-width="8" fill="rgb(0,0,0)" fill-opacity="1"/></g></g><g><g transform="matrix(1,0,0,1,208.9375,195.73853149414063)"><path transform="matrix(0.020399999999999998,0,0,-0.020399999999999998,0,0)" d="M192 250C192 279 168 303 139 303C110 303 86 279 86 250C86 221 110 197 139 197C168 197 192 221 192 250Z" stroke="rgb(0,0,0)" stroke-opacity="1" stroke-width="8" fill="rgb(0,0,0)" fill-opacity="1"/></g></g><g><g><g><g><g transform="matrix(1,0,0,1,218.6875,195.73853149414063)"><path transform="matrix(0.020399999999999998,0,0,-0.020399999999999998,0,0)" d="M610 455L582 680L33 680L33 649L57 649C134 649 136 638 136 602L136 78C136 42 134 31 57 31L33 31L33 0C68 3 146 3 185 3C226 3 317 3 353 0L353 31L320 31C225 31 225 44 225 79L225 325L311 325C407 325 417 293 417 208L442 208L442 473L417 473C417 389 407 356 311 356L225 356L225 609C225 642 227 649 274 649L394 649C544 649 569 593 585 455Z" stroke="rgb(2,122,255)" stroke-opacity="1" stroke-width="24" fill="rgb(2,122,255)" fill-opacity="1"/></g></g></g></g><svg x="218.6875" overflow="visible" y="168.33334350585938" height="12" width="14.338541984558105"><path d=" M 14.34 5.82 l -3.78 -3.98 l -0.59 0.62 l 2.31 2.79 h -0.18 v 1.08 h 0.18 l -2.31 2.79 l 0.59 0.62 z  M 2.02 6.28 h 11.77 v -1.08 h -11.77 z" style="fill:rgb(2,122,255);fill-opacity:1;stroke-width:1px;stroke:none;stroke-opacity:1;"/></svg></g><g><g transform="matrix(1,0,0,1,232.01043701171875,195.73853149414063)"><path transform="matrix(0.020399999999999998,0,0,-0.020399999999999998,0,0)" d="M332 -238C332 -235 330 -232 328 -230C224 -152 155 48 155 208L155 292C155 452 224 652 328 730C330 732 332 735 332 738C332 743 327 748 322 748C320 748 318 747 316 746C206 663 101 463 101 292L101 208C101 37 206 -163 316 -246C318 -247 320 -248 322 -248C327 -248 332 -243 332 -238Z" stroke="rgb(0,0,0)" stroke-opacity="1" stroke-width="8" fill="rgb(0,0,0)" fill-opacity="1"/></g></g><g><g transform="matrix(1,0,0,1,239.94793701171875,195.73853149414063)"><path transform="matrix(0.020399999999999998,0,0,-0.020399999999999998,0,0)" d="M490 282C490 376 433 442 357 442C307 442 259 406 226 367C216 421 173 442 136 442C90 442 71 403 62 385C44 351 31 291 31 288C31 278 43 278 43 278C53 278 54 279 60 301C77 372 97 420 133 420C150 420 164 412 164 374C164 351 161 340 157 323L45 -122C37 -156 35 -163 -9 -163C-21 -163 -32 -163 -32 -182C-32 -190 -27 -194 -19 -194C8 -194 37 -191 65 -191C98 -191 132 -194 164 -194C169 -194 182 -194 182 -174C182 -163 172 -163 158 -163C108 -163 108 -156 108 -147C108 -135 150 28 157 53C170 24 198 -11 249 -11C365 -11 490 135 490 282ZM418 326C418 267 385 152 367 114C333 44 285 11 248 11C182 11 169 94 169 100C169 100 169 104 172 116L221 312C228 339 255 367 273 382C308 413 337 420 354 420C394 420 418 385 418 326Z" stroke="rgb(255,19,46)" stroke-opacity="1" stroke-width="8" fill="rgb(255,19,46)" fill-opacity="1"/></g></g><g><g transform="matrix(1,0,0,1,250.2083740234375,195.73853149414063)"><path transform="matrix(0.020399999999999998,0,0,-0.020399999999999998,0,0)" d="M288 208L288 292C288 463 183 663 73 746C71 747 69 748 67 748C62 748 57 743 57 738C57 735 59 732 61 730C165 652 234 452 234 292L234 208C234 48 165 -152 61 -230C59 -232 57 -235 57 -238C57 -243 62 -248 67 -248C69 -248 71 -247 73 -246C183 -163 288 37 288 208Z" stroke="rgb(0,0,0)" stroke-opacity="1" stroke-width="8" fill="rgb(0,0,0)" fill-opacity="1"/></g></g><g><g transform="matrix(1,0,0,1,264.265625,195.73853149414063)"><path transform="matrix(0.020399999999999998,0,0,-0.020399999999999998,0,0)" d="M689 -9L141 250L689 509C713 520 696 556 671 545L90 270C73 262 73 238 90 230L671 -45C696 -56 713 -20 689 -9Z" stroke="rgb(0,0,0)" stroke-opacity="1" stroke-width="8" fill="rgb(0,0,0)" fill-opacity="1"/></g></g><g><g transform="matrix(1,0,0,1,286.2552490234375,195.73853149414063)"><path transform="matrix(0.020399999999999998,0,0,-0.020399999999999998,0,0)" d="M460 320C460 400 455 480 420 554C374 650 292 666 250 666C190 666 117 640 76 547C44 478 39 400 39 320C39 245 43 155 84 79C127 -2 200 -22 249 -22C303 -22 379 -1 423 94C455 163 460 241 460 320ZM377 332C377 257 377 189 366 125C351 30 294 0 249 0C210 0 151 25 133 121C122 181 122 273 122 332C122 396 122 462 130 516C149 635 224 644 249 644C282 644 348 626 367 527C377 471 377 395 377 332Z" stroke="rgb(0,0,0)" stroke-opacity="1" stroke-width="8" fill="rgb(0,0,0)" fill-opacity="1"/></g></g></g></g><g><g><g><g transform="matrix(1,0,0,1,363.6302490234375,196.73853149414063)"><path transform="matrix(0.020399999999999998,0,0,-0.020399999999999998,0,0)" d="M785 675C785 683 779 683 763 683L69 683C53 683 47 683 47 675C47 675 47 672 52 663L390 -15C397 -28 399 -33 416 -33C433 -33 435 -28 442 -15L780 663C785 672 785 675 785 675ZM720 612L446 61L445 61L170 612Z" stroke="rgb(0,0,0)" stroke-opacity="1" stroke-width="8" fill="rgb(0,0,0)" fill-opacity="1"/></g></g><g><g transform="matrix(1,0,0,1,384.703125,196.73853149414063)"><path transform="matrix(0.020399999999999998,0,0,-0.020399999999999998,0,0)" d="M192 250C192 279 168 303 139 303C110 303 86 279 86 250C86 221 110 197 139 197C168 197 192 221 192 250Z" stroke="rgb(0,0,0)" stroke-opacity="1" stroke-width="8" fill="rgb(0,0,0)" fill-opacity="1"/></g></g><g><g><g><g><g transform="matrix(1,0,0,1,394.453125,196.73853149414063)"><path transform="matrix(0.020399999999999998,0,0,-0.020399999999999998,0,0)" d="M610 455L582 680L33 680L33 649L57 649C134 649 136 638 136 602L136 78C136 42 134 31 57 31L33 31L33 0C68 3 146 3 185 3C226 3 317 3 353 0L353 31L320 31C225 31 225 44 225 79L225 325L311 325C407 325 417 293 417 208L442 208L442 473L417 473C417 389 407 356 311 356L225 356L225 609C225 642 227 649 274 649L394 649C544 649 569 593 585 455Z" stroke="rgb(2,122,255)" stroke-opacity="1" stroke-width="24" fill="rgb(2,122,255)" fill-opacity="1"/></g></g></g></g><svg x="394.453125" overflow="visible" y="169.33334350585938" height="12" width="14.338541984558105"><path d=" M 14.34 5.82 l -3.78 -3.98 l -0.59 0.62 l 2.31 2.79 h -0.18 v 1.08 h 0.18 l -2.31 2.79 l 0.59 0.62 z  M 2.02 6.28 h 11.77 v -1.08 h -11.77 z" style="fill:rgb(2,122,255);fill-opacity:1;stroke-width:1px;stroke:none;stroke-opacity:1;"/></svg></g><g><g transform="matrix(1,0,0,1,407.77606201171875,196.73853149414063)"><path transform="matrix(0.020399999999999998,0,0,-0.020399999999999998,0,0)" d="M332 -238C332 -235 330 -232 328 -230C224 -152 155 48 155 208L155 292C155 452 224 652 328 730C330 732 332 735 332 738C332 743 327 748 322 748C320 748 318 747 316 746C206 663 101 463 101 292L101 208C101 37 206 -163 316 -246C318 -247 320 -248 322 -248C327 -248 332 -243 332 -238Z" stroke="rgb(0,0,0)" stroke-opacity="1" stroke-width="8" fill="rgb(0,0,0)" fill-opacity="1"/></g></g><g><g transform="matrix(1,0,0,1,415.71356201171875,196.73853149414063)"><path transform="matrix(0.020399999999999998,0,0,-0.020399999999999998,0,0)" d="M490 282C490 376 433 442 357 442C307 442 259 406 226 367C216 421 173 442 136 442C90 442 71 403 62 385C44 351 31 291 31 288C31 278 43 278 43 278C53 278 54 279 60 301C77 372 97 420 133 420C150 420 164 412 164 374C164 351 161 340 157 323L45 -122C37 -156 35 -163 -9 -163C-21 -163 -32 -163 -32 -182C-32 -190 -27 -194 -19 -194C8 -194 37 -191 65 -191C98 -191 132 -194 164 -194C169 -194 182 -194 182 -174C182 -163 172 -163 158 -163C108 -163 108 -156 108 -147C108 -135 150 28 157 53C170 24 198 -11 249 -11C365 -11 490 135 490 282ZM418 326C418 267 385 152 367 114C333 44 285 11 248 11C182 11 169 94 169 100C169 100 169 104 172 116L221 312C228 339 255 367 273 382C308 413 337 420 354 420C394 420 418 385 418 326Z" stroke="rgb(255,19,46)" stroke-opacity="1" stroke-width="8" fill="rgb(255,19,46)" fill-opacity="1"/></g></g><g><g transform="matrix(1,0,0,1,425.9739990234375,196.73853149414063)"><path transform="matrix(0.020399999999999998,0,0,-0.020399999999999998,0,0)" d="M288 208L288 292C288 463 183 663 73 746C71 747 69 748 67 748C62 748 57 743 57 738C57 735 59 732 61 730C165 652 234 452 234 292L234 208C234 48 165 -152 61 -230C59 -232 57 -235 57 -238C57 -243 62 -248 67 -248C69 -248 71 -247 73 -246C183 -163 288 37 288 208Z" stroke="rgb(0,0,0)" stroke-opacity="1" stroke-width="8" fill="rgb(0,0,0)" fill-opacity="1"/></g></g><g><g transform="matrix(1,0,0,1,440.03125,196.73853149414063)"><path transform="matrix(0.020399999999999998,0,0,-0.020399999999999998,0,0)" d="M688 230C705 238 705 262 688 270L107 545C82 556 65 520 89 509L637 250L89 -9C65 -20 82 -56 107 -45Z" stroke="rgb(0,0,0)" stroke-opacity="1" stroke-width="8" fill="rgb(0,0,0)" fill-opacity="1"/></g></g><g><g transform="matrix(1,0,0,1,462.0208740234375,196.73853149414063)"><path transform="matrix(0.020399999999999998,0,0,-0.020399999999999998,0,0)" d="M460 320C460 400 455 480 420 554C374 650 292 666 250 666C190 666 117 640 76 547C44 478 39 400 39 320C39 245 43 155 84 79C127 -2 200 -22 249 -22C303 -22 379 -1 423 94C455 163 460 241 460 320ZM377 332C377 257 377 189 366 125C351 30 294 0 249 0C210 0 151 25 133 121C122 181 122 273 122 332C122 396 122 462 130 516C149 635 224 644 249 644C282 644 348 626 367 527C377 471 377 395 377 332Z" stroke="rgb(0,0,0)" stroke-opacity="1" stroke-width="8" fill="rgb(0,0,0)" fill-opacity="1"/></g></g></g></g><g><g><g><g transform="matrix(1,0,0,1,409.09375,123.99665649414062)"><path transform="matrix(0.04233,0,0,-0.04233,0,0)" d="M192 250C192 279 168 303 139 303C110 303 86 279 86 250C86 221 110 197 139 197C168 197 192 221 192 250Z" stroke="rgb(255,19,46)" stroke-opacity="1" stroke-width="8" fill="rgb(255,19,46)" fill-opacity="1"/></g></g></g></g><g><g><g><g transform="matrix(1,0,0,1,233.328125,123.99665649414062)"><path transform="matrix(0.04233,0,0,-0.04233,0,0)" d="M192 250C192 279 168 303 139 303C110 303 86 279 86 250C86 221 110 197 139 197C168 197 192 221 192 250Z" stroke="rgb(255,19,46)" stroke-opacity="1" stroke-width="8" fill="rgb(255,19,46)" fill-opacity="1"/></g></g></g></g><g><g><g><g transform="matrix(1,0,0,1,580.3073120117188,123.66334350585937)"><path transform="matrix(0.04233,0,0,-0.04233,0,0)" d="M192 250C192 279 168 303 139 303C110 303 86 279 86 250C86 221 110 197 139 197C168 197 192 221 192 250Z" stroke="rgb(255,19,46)" stroke-opacity="1" stroke-width="8" fill="rgb(255,19,46)" fill-opacity="1"/></g></g></g></g><g><g><g><g transform="matrix(1,0,0,1,537.1771240234375,196.73853149414063)"><path transform="matrix(0.020399999999999998,0,0,-0.020399999999999998,0,0)" d="M785 675C785 683 779 683 763 683L69 683C53 683 47 683 47 675C47 675 47 672 52 663L390 -15C397 -28 399 -33 416 -33C433 -33 435 -28 442 -15L780 663C785 672 785 675 785 675ZM720 612L446 61L445 61L170 612Z" stroke="rgb(0,0,0)" stroke-opacity="1" stroke-width="8" fill="rgb(0,0,0)" fill-opacity="1"/></g></g><g><g transform="matrix(1,0,0,1,558.25,196.73853149414063)"><path transform="matrix(0.020399999999999998,0,0,-0.020399999999999998,0,0)" d="M192 250C192 279 168 303 139 303C110 303 86 279 86 250C86 221 110 197 139 197C168 197 192 221 192 250Z" stroke="rgb(0,0,0)" stroke-opacity="1" stroke-width="8" fill="rgb(0,0,0)" fill-opacity="1"/></g></g><g><g><g><g><g transform="matrix(1,0,0,1,568,196.73853149414063)"><path transform="matrix(0.020399999999999998,0,0,-0.020399999999999998,0,0)" d="M610 455L582 680L33 680L33 649L57 649C134 649 136 638 136 602L136 78C136 42 134 31 57 31L33 31L33 0C68 3 146 3 185 3C226 3 317 3 353 0L353 31L320 31C225 31 225 44 225 79L225 325L311 325C407 325 417 293 417 208L442 208L442 473L417 473C417 389 407 356 311 356L225 356L225 609C225 642 227 649 274 649L394 649C544 649 569 593 585 455Z" stroke="rgb(2,122,255)" stroke-opacity="1" stroke-width="24" fill="rgb(2,122,255)" fill-opacity="1"/></g></g></g></g><svg x="568" overflow="visible" y="169.33334350585938" height="12" width="14.338541984558105"><path d=" M 14.34 5.82 l -3.78 -3.98 l -0.59 0.62 l 2.31 2.79 h -0.18 v 1.08 h 0.18 l -2.31 2.79 l 0.59 0.62 z  M 2.02 6.28 h 11.77 v -1.08 h -11.77 z" style="fill:rgb(2,122,255);fill-opacity:1;stroke-width:1px;stroke:none;stroke-opacity:1;"/></svg></g><g><g transform="matrix(1,0,0,1,581.3229370117188,196.73853149414063)"><path transform="matrix(0.020399999999999998,0,0,-0.020399999999999998,0,0)" d="M332 -238C332 -235 330 -232 328 -230C224 -152 155 48 155 208L155 292C155 452 224 652 328 730C330 732 332 735 332 738C332 743 327 748 322 748C320 748 318 747 316 746C206 663 101 463 101 292L101 208C101 37 206 -163 316 -246C318 -247 320 -248 322 -248C327 -248 332 -243 332 -238Z" stroke="rgb(0,0,0)" stroke-opacity="1" stroke-width="8" fill="rgb(0,0,0)" fill-opacity="1"/></g></g><g><g transform="matrix(1,0,0,1,589.2604370117188,196.73853149414063)"><path transform="matrix(0.020399999999999998,0,0,-0.020399999999999998,0,0)" d="M490 282C490 376 433 442 357 442C307 442 259 406 226 367C216 421 173 442 136 442C90 442 71 403 62 385C44 351 31 291 31 288C31 278 43 278 43 278C53 278 54 279 60 301C77 372 97 420 133 420C150 420 164 412 164 374C164 351 161 340 157 323L45 -122C37 -156 35 -163 -9 -163C-21 -163 -32 -163 -32 -182C-32 -190 -27 -194 -19 -194C8 -194 37 -191 65 -191C98 -191 132 -194 164 -194C169 -194 182 -194 182 -174C182 -163 172 -163 158 -163C108 -163 108 -156 108 -147C108 -135 150 28 157 53C170 24 198 -11 249 -11C365 -11 490 135 490 282ZM418 326C418 267 385 152 367 114C333 44 285 11 248 11C182 11 169 94 169 100C169 100 169 104 172 116L221 312C228 339 255 367 273 382C308 413 337 420 354 420C394 420 418 385 418 326Z" stroke="rgb(255,19,46)" stroke-opacity="1" stroke-width="8" fill="rgb(255,19,46)" fill-opacity="1"/></g></g><g><g transform="matrix(1,0,0,1,599.5208740234375,196.73853149414063)"><path transform="matrix(0.020399999999999998,0,0,-0.020399999999999998,0,0)" d="M288 208L288 292C288 463 183 663 73 746C71 747 69 748 67 748C62 748 57 743 57 738C57 735 59 732 61 730C165 652 234 452 234 292L234 208C234 48 165 -152 61 -230C59 -232 57 -235 57 -238C57 -243 62 -248 67 -248C69 -248 71 -247 73 -246C183 -163 288 37 288 208Z" stroke="rgb(0,0,0)" stroke-opacity="1" stroke-width="8" fill="rgb(0,0,0)" fill-opacity="1"/></g></g><g><g transform="matrix(1,0,0,1,613.578125,196.73853149414063)"><path transform="matrix(0.020399999999999998,0,0,-0.020399999999999998,0,0)" d="M722 347C722 358 713 367 702 367L76 367C65 367 56 358 56 347C56 336 65 327 76 327L702 327C713 327 722 336 722 347ZM722 153C722 164 713 173 702 173L76 173C65 173 56 164 56 153C56 142 65 133 76 133L702 133C713 133 722 142 722 153Z" stroke="rgb(0,0,0)" stroke-opacity="1" stroke-width="8" fill="rgb(0,0,0)" fill-opacity="1"/></g></g><g><g transform="matrix(1,0,0,1,635.5677490234375,196.73853149414063)"><path transform="matrix(0.020399999999999998,0,0,-0.020399999999999998,0,0)" d="M460 320C460 400 455 480 420 554C374 650 292 666 250 666C190 666 117 640 76 547C44 478 39 400 39 320C39 245 43 155 84 79C127 -2 200 -22 249 -22C303 -22 379 -1 423 94C455 163 460 241 460 320ZM377 332C377 257 377 189 366 125C351 30 294 0 249 0C210 0 151 25 133 121C122 181 122 273 122 332C122 396 122 462 130 516C149 635 224 644 249 644C282 644 348 626 367 527C377 471 377 395 377 332Z" stroke="rgb(0,0,0)" stroke-opacity="1" stroke-width="8" fill="rgb(0,0,0)" fill-opacity="1"/></g></g></g></g><g><g><g><g transform="matrix(1,0,0,1,388.5521240234375,44.066656494140624)"><path transform="matrix(0.020399999999999998,0,0,-0.020399999999999998,0,0)" d="M360 128C360 181 330 211 318 223C285 255 246 263 204 271C148 282 81 295 81 353C81 388 107 429 193 429C303 429 308 339 310 308C311 299 322 299 322 299C335 299 335 304 335 323L335 424C335 441 335 448 324 448C319 448 317 448 304 436C301 432 291 423 287 420C249 448 208 448 193 448C71 448 33 381 33 325C33 290 49 262 76 240C108 214 136 208 208 194C230 190 312 174 312 102C312 51 277 11 199 11C115 11 79 68 60 153C57 166 56 170 46 170C33 170 33 163 33 145L33 13C33 -4 33 -11 44 -11C49 -11 50 -10 69 9C71 11 71 13 89 32C133 -10 178 -11 199 -11C314 -11 360 56 360 128ZM865 214C865 342 765 448 644 448C519 448 422 339 422 214C422 85 526 -11 643 -11C764 -11 865 87 865 214ZM782 222C782 186 782 132 760 88C738 43 694 14 644 14C601 14 557 35 530 81C505 125 505 186 505 222C505 261 505 315 529 359C556 405 603 426 643 426C687 426 730 404 756 361C782 318 782 260 782 222ZM1429 0L1429 31C1359 31 1351 38 1351 87L1351 442L1204 431L1204 400C1274 400 1282 393 1282 344L1282 166C1282 79 1234 11 1161 11C1077 11 1073 58 1073 110L1073 442L926 431L926 400C1004 400 1004 397 1004 308L1004 158C1004 80 1004 -11 1156 -11C1212 -11 1256 17 1285 79L1285 -11ZM1814 381C1814 413 1783 442 1740 442C1667 442 1631 375 1617 332L1617 442L1478 431L1478 400C1548 400 1556 393 1556 344L1556 76C1556 31 1545 31 1478 31L1478 0L1592 3C1632 3 1679 3 1719 0L1719 31L1698 31C1624 31 1622 42 1622 78L1622 232C1622 331 1664 420 1740 420C1747 420 1749 420 1751 419C1748 418 1728 406 1728 380C1728 352 1749 337 1771 337C1789 337 1814 349 1814 381ZM2257 119C2257 129 2247 129 2244 129C2235 129 2233 125 2231 119C2202 26 2137 14 2100 14C2047 14 1959 57 1959 218C1959 381 2041 423 2094 423C2103 423 2166 422 2201 386C2160 383 2154 353 2154 340C2154 314 2172 294 2200 294C2226 294 2246 311 2246 341C2246 409 2170 448 2093 448C1968 448 1876 340 1876 216C1876 88 1975 -11 2091 -11C2225 -11 2257 109 2257 119ZM2701 119C2701 129 2693 131 2688 131C2679 131 2677 125 2675 117C2640 14 2550 14 2540 14C2490 14 2450 44 2427 81C2397 129 2397 195 2397 231L2676 231C2698 231 2701 231 2701 252C2701 351 2647 448 2522 448C2406 448 2314 345 2314 220C2314 86 2419 -11 2534 -11C2656 -11 2701 100 2701 119ZM2635 252L2398 252C2404 401 2488 426 2522 426C2625 426 2635 291 2635 252Z" stroke="rgb(0,0,0)" stroke-opacity="1" stroke-width="8" fill="rgb(0,0,0)" fill-opacity="1"/></g></g></g></g><g><g><g><g transform="matrix(1,0,0,1,221.88543701171875,44.066656494140624)"><path transform="matrix(0.020399999999999998,0,0,-0.020399999999999998,0,0)" d="M360 128C360 181 330 211 318 223C285 255 246 263 204 271C148 282 81 295 81 353C81 388 107 429 193 429C303 429 308 339 310 308C311 299 322 299 322 299C335 299 335 304 335 323L335 424C335 441 335 448 324 448C319 448 317 448 304 436C301 432 291 423 287 420C249 448 208 448 193 448C71 448 33 381 33 325C33 290 49 262 76 240C108 214 136 208 208 194C230 190 312 174 312 102C312 51 277 11 199 11C115 11 79 68 60 153C57 166 56 170 46 170C33 170 33 163 33 145L33 13C33 -4 33 -11 44 -11C49 -11 50 -10 69 9C71 11 71 13 89 32C133 -10 178 -11 199 -11C314 -11 360 56 360 128ZM641 0L641 31C575 31 571 36 571 75L571 442L431 431L431 400C496 400 505 394 505 345L505 76C505 31 494 31 427 31L427 0L537 3C572 3 607 1 641 0ZM586 604C586 631 563 657 533 657C499 657 479 629 479 604C479 577 502 551 532 551C566 551 586 579 586 604ZM1207 0L1207 31C1155 31 1130 31 1129 61L1129 252C1129 338 1129 369 1098 405C1084 422 1051 442 993 442C920 442 873 399 845 337L845 442L704 431L704 400C774 400 782 393 782 344L782 76C782 31 771 31 704 31L704 0L817 3L929 0L929 31C862 31 851 31 851 76L851 260C851 364 922 420 986 420C1049 420 1060 366 1060 309L1060 76C1060 31 1049 31 982 31L982 0L1095 3ZM1739 0L1739 31C1702 31 1680 31 1642 84L1515 263C1514 265 1509 271 1509 274C1509 278 1580 338 1590 346C1653 397 1695 399 1716 400L1716 431C1687 428 1674 428 1646 428C1610 428 1548 430 1534 431L1534 400C1553 399 1563 388 1563 375C1563 355 1549 343 1541 336L1400 214L1400 694L1256 683L1256 652C1326 652 1334 645 1334 596L1334 76C1334 31 1323 31 1256 31L1256 0L1365 3L1475 0L1475 31C1408 31 1397 31 1397 76L1397 179L1461 234C1538 128 1580 72 1580 54C1580 35 1563 31 1544 31L1544 0L1652 3C1681 3 1710 2 1739 0Z" stroke="rgb(0,0,0)" stroke-opacity="1" stroke-width="8" fill="rgb(0,0,0)" fill-opacity="1"/></g></g></g></g><g><g><g><g transform="matrix(1,0,0,1,523.84375,44.066656494140624)"><path transform="matrix(0.020399999999999998,0,0,-0.020399999999999998,0,0)" d="M247 0L247 31C181 31 177 36 177 75L177 442L37 431L37 400C102 400 111 394 111 345L111 76C111 31 100 31 33 31L33 0L143 3C178 3 213 1 247 0ZM192 604C192 631 169 657 139 657C105 657 85 629 85 604C85 577 108 551 138 551C172 551 192 579 192 604ZM813 0L813 31C761 31 736 31 735 61L735 252C735 338 735 369 704 405C690 422 657 442 599 442C526 442 479 399 451 337L451 442L310 431L310 400C380 400 388 393 388 344L388 76C388 31 377 31 310 31L310 0L423 3L535 0L535 31C468 31 457 31 457 76L457 260C457 364 528 420 592 420C655 420 666 366 666 309L666 76C666 31 655 31 588 31L588 0L701 3ZM1249 119C1249 129 1239 129 1236 129C1227 129 1225 125 1223 119C1194 26 1129 14 1092 14C1039 14 951 57 951 218C951 381 1033 423 1086 423C1095 423 1158 422 1193 386C1152 383 1146 353 1146 340C1146 314 1164 294 1192 294C1218 294 1238 311 1238 341C1238 409 1162 448 1085 448C960 448 868 340 868 216C868 88 967 -11 1083 -11C1217 -11 1249 109 1249 119ZM1749 214C1749 342 1649 448 1528 448C1403 448 1306 339 1306 214C1306 85 1410 -11 1527 -11C1648 -11 1749 87 1749 214ZM1666 222C1666 186 1666 132 1644 88C1622 43 1578 14 1528 14C1485 14 1441 35 1414 81C1389 125 1389 186 1389 222C1389 261 1389 315 1413 359C1440 405 1487 426 1527 426C1571 426 1614 404 1640 361C1666 318 1666 260 1666 222ZM2591 0L2591 31C2539 31 2514 31 2513 61L2513 252C2513 338 2513 369 2482 405C2468 422 2435 442 2377 442C2293 442 2249 382 2232 344C2218 431 2144 442 2099 442C2026 442 1979 399 1951 337L1951 442L1810 431L1810 400C1880 400 1888 393 1888 344L1888 76C1888 31 1877 31 1810 31L1810 0L1923 3L2035 0L2035 31C1968 31 1957 31 1957 76L1957 260C1957 364 2028 420 2092 420C2155 420 2166 366 2166 309L2166 76C2166 31 2155 31 2088 31L2088 0L2201 3L2313 0L2313 31C2246 31 2235 31 2235 76L2235 260C2235 364 2306 420 2370 420C2433 420 2444 366 2444 309L2444 76C2444 31 2433 31 2366 31L2366 0L2479 3ZM3132 216C3132 343 3035 442 2923 442C2845 442 2803 398 2783 376L2783 442L2639 431L2639 400C2710 400 2717 394 2717 350L2717 -118C2717 -163 2706 -163 2639 -163L2639 -194L2751 -191L2864 -194L2864 -163C2797 -163 2786 -163 2786 -118L2786 50L2786 59C2791 43 2833 -11 2909 -11C3028 -11 3132 87 3132 216ZM3049 216C3049 95 2979 11 2905 11C2865 11 2827 31 2800 72C2786 93 2786 94 2786 114L2786 337C2815 388 2864 417 2915 417C2988 417 3049 329 3049 216ZM3531 381C3531 413 3500 442 3457 442C3384 442 3348 375 3334 332L3334 442L3195 431L3195 400C3265 400 3273 393 3273 344L3273 76C3273 31 3262 31 3195 31L3195 0L3309 3C3349 3 3396 3 3436 0L3436 31L3415 31C3341 31 3339 42 3339 78L3339 232C3339 331 3381 420 3457 420C3464 420 3466 420 3468 419C3465 418 3445 406 3445 380C3445 352 3466 337 3488 337C3506 337 3531 349 3531 381ZM3974 119C3974 129 3966 131 3961 131C3952 131 3950 125 3948 117C3913 14 3823 14 3813 14C3763 14 3723 44 3700 81C3670 129 3670 195 3670 231L3949 231C3971 231 3974 231 3974 252C3974 351 3920 448 3795 448C3679 448 3587 345 3587 220C3587 86 3692 -11 3807 -11C3929 -11 3974 100 3974 119ZM3908 252L3671 252C3677 401 3761 426 3795 426C3898 426 3908 291 3908 252ZM4363 128C4363 181 4333 211 4321 223C4288 255 4249 263 4207 271C4151 282 4084 295 4084 353C4084 388 4110 429 4196 429C4306 429 4311 339 4313 308C4314 299 4325 299 4325 299C4338 299 4338 304 4338 323L4338 424C4338 441 4338 448 4327 448C4322 448 4320 448 4307 436C4304 432 4294 423 4290 420C4252 448 4211 448 4196 448C4074 448 4036 381 4036 325C4036 290 4052 262 4079 240C4111 214 4139 208 4211 194C4233 190 4315 174 4315 102C4315 51 4280 11 4202 11C4118 11 4082 68 4063 153C4060 166 4059 170 4049 170C4036 170 4036 163 4036 145L4036 13C4036 -4 4036 -11 4047 -11C4052 -11 4053 -10 4072 9C4074 11 4074 13 4092 32C4136 -10 4181 -11 4202 -11C4317 -11 4363 56 4363 128ZM4757 128C4757 181 4727 211 4715 223C4682 255 4643 263 4601 271C4545 282 4478 295 4478 353C4478 388 4504 429 4590 429C4700 429 4705 339 4707 308C4708 299 4719 299 4719 299C4732 299 4732 304 4732 323L4732 424C4732 441 4732 448 4721 448C4716 448 4714 448 4701 436C4698 432 4688 423 4684 420C4646 448 4605 448 4590 448C4468 448 4430 381 4430 325C4430 290 4446 262 4473 240C4505 214 4533 208 4605 194C4627 190 4709 174 4709 102C4709 51 4674 11 4596 11C4512 11 4476 68 4457 153C4454 166 4453 170 4443 170C4430 170 4430 163 4430 145L4430 13C4430 -4 4430 -11 4441 -11C4446 -11 4447 -10 4466 9C4468 11 4468 13 4486 32C4530 -10 4575 -11 4596 -11C4711 -11 4757 56 4757 128ZM5038 0L5038 31C4972 31 4968 36 4968 75L4968 442L4828 431L4828 400C4893 400 4902 394 4902 345L4902 76C4902 31 4891 31 4824 31L4824 0L4934 3C4969 3 5004 1 5038 0ZM4983 604C4983 631 4960 657 4930 657C4896 657 4876 629 4876 604C4876 577 4899 551 4929 551C4963 551 4983 579 4983 604ZM5590 216C5590 343 5492 442 5378 442C5300 442 5257 395 5241 377L5241 694L5097 683L5097 652C5167 652 5175 645 5175 596L5175 0L5200 0L5236 62C5251 39 5293 -11 5367 -11C5486 -11 5590 87 5590 216ZM5507 217C5507 180 5505 120 5476 75C5455 44 5417 11 5363 11C5318 11 5282 35 5258 72C5244 93 5244 96 5244 114L5244 320C5244 339 5244 340 5255 356C5294 412 5349 420 5373 420C5418 420 5454 394 5478 356C5504 315 5507 258 5507 217ZM5880 0L5880 31C5813 31 5802 31 5802 76L5802 694L5658 683L5658 652C5728 652 5736 645 5736 596L5736 76C5736 31 5725 31 5658 31L5658 0L5769 3ZM6318 119C6318 129 6310 131 6305 131C6296 131 6294 125 6292 117C6257 14 6167 14 6157 14C6107 14 6067 44 6044 81C6014 129 6014 195 6014 231L6293 231C6315 231 6318 231 6318 252C6318 351 6264 448 6139 448C6023 448 5931 345 5931 220C5931 86 6036 -11 6151 -11C6273 -11 6318 100 6318 119ZM6252 252L6015 252C6021 401 6105 426 6139 426C6242 426 6252 291 6252 252Z" stroke="rgb(0,0,0)" stroke-opacity="1" stroke-width="8" fill="rgb(0,0,0)" fill-opacity="1"/></g></g></g></g></svg>
</svg>