<svg xmlns="http://www.w3.org/2000/svg" xmlns:xlink="http://www.w3.org/1999/xlink" x="0" y="0" style="         width:701.1904296875px;         height:301.1904703776042px;         background: transparent;         fill: none; " viewBox="64.58 49.77 233.22 110.52">
        <svg xmlns="http://www.w3.org/2000/svg"/>
        
        <svg xmlns="http://www.w3.org/2000/svg" class="role-diagram-draw-area" style="overflow: visible;"><g class="shapes-region" style="stroke: black; fill: none;"><g class="composite-shape"><path class="real" d=" M201.71,110.66 C208.34,118.13 212.25,127.31 212.25,137.23 C212.25,137.34 212.25,137.46 212.25,137.57 L156.5,137.23 Z" style="stroke-width: 1; stroke: none; fill: none; fill-opacity: 1;"/><path class="real" d=" M201.71,110.66 C208.34,118.13 212.25,127.31 212.25,137.23 C212.25,137.34 212.25,137.46 212.25,137.57" style="stroke-width: 1; stroke: rgb(0, 0, 0); fill: none; fill-opacity: 1;"/></g><g class="arrow-line"><path class="connection real" stroke-dasharray="" d="  M156.5,137.57 L276.31,66.15 L291.07,57.35" style="stroke: rgb(0, 174, 239); stroke-opacity: 1; stroke-width: 2; fill: none; fill-opacity: 1;"/><g stroke="none" fill="rgb(0,174,239)" fill-opacity="1" transform="matrix(-0.8589598969306641,0.5120428648705722,-0.5120428648705722,-0.8589598969306641,294.50781249999994,55.30115509033203)" style="stroke: none; fill: rgb(0, 174, 239); stroke-width: 2;"><path d=" M13.4,-6.43 L0,0 L13.4,6.44 L8.9,0 Z"/></g></g><g class="arrow-line"><path class="connection real" stroke-dasharray="7.5 6" d="  M156.5,137.57 L290.51,137.57" style="stroke: rgb(0, 174, 239); stroke-opacity: 1; stroke-width: 2; fill: none; fill-opacity: 1;"/><g stroke="none" fill="rgb(0,174,239)" fill-opacity="1" transform="matrix(-1,1.2246467991473532e-16,-1.2246467991473532e-16,-1,294.5078125,137.5710601806641)" style="stroke: none; fill: rgb(0, 174, 239); stroke-width: 2;"><path d=" M13.4,-6.43 L0,0 L13.4,6.44 L8.9,0 Z"/></g></g><g class="arrow-line"><path class="connection real" stroke-dasharray="7.5 6" d="  M156.5,137.57 L156.5,55.8" style="stroke: rgb(0, 174, 239); stroke-opacity: 1; stroke-width: 2; fill: none; fill-opacity: 1;"/><g stroke="none" fill="rgb(0,174,239)" fill-opacity="1" transform="matrix(3.061616997868383e-16,1,-1,3.061616997868383e-16,156.5,55.30115509033203)" style="stroke: none; fill: rgb(0, 174, 239); stroke-width: 2;"><path d=" M13.4,-6.43 L0,0 L13.4,6.44 L8.9,0 Z"/></g></g><g/></g><g/><g/><g/></svg>
        <svg xmlns="http://www.w3.org/2000/svg" xmlns:xlink="http://www.w3.org/1999/xlink" width="700" height="300" style="width:700px;height:300px;font-family:LatinModern-Math, LatinModern, Asana-Math, Asana;background:transparent;"><g transform="matrix(0.8588705155093777,-0.5121927738543917,0.5121927738543917,0.8588705155093777,-9.736170814985599,122.77520660758763)"><g><g><g transform="matrix(1,0,0,1,192.8571573893229,86.2615254720052)"><path transform="matrix(0.017,0,0,-0.017,0,0)" d="M468 372C468 426 442 442 424 442C399 442 375 416 375 394C375 381 380 375 391 364C412 344 425 318 425 282C425 240 364 11 247 11C196 11 173 46 173 98C173 154 200 227 231 310C238 327 243 341 243 360C243 405 211 442 161 442C67 442 29 297 29 288C29 278 41 278 41 278C51 278 52 280 57 296C86 397 129 420 158 420C166 420 183 420 183 388C183 363 173 336 166 318C122 202 109 156 109 113C109 5 197 -11 243 -11C411 -11 468 320 468 372Z" stroke="rgb(0,0,0)" stroke-opacity="1" stroke-width="8" fill="rgb(0,0,0)" fill-opacity="1"/></g></g><g><g transform="matrix(1,0,0,1,206.20351155598956,86.2615254720052)"><path transform="matrix(0.017,0,0,-0.017,0,0)" d="M722 347C722 358 713 367 702 367L76 367C65 367 56 358 56 347C56 336 65 327 76 327L702 327C713 327 722 336 722 347ZM722 153C722 164 713 173 702 173L76 173C65 173 56 164 56 153C56 142 65 133 76 133L702 133C713 133 722 142 722 153Z" stroke="rgb(0,0,0)" stroke-opacity="1" stroke-width="8" fill="rgb(0,0,0)" fill-opacity="1"/></g></g><g><g transform="matrix(1,0,0,1,224.53497314453125,86.2615254720052)"><path transform="matrix(0.017,0,0,-0.017,0,0)" d="M159 -230L159 730C159 741 150 750 139 750C128 750 119 741 119 730L119 -230C119 -241 128 -250 139 -250C150 -250 159 -241 159 -230Z" stroke="rgb(0,0,0)" stroke-opacity="1" stroke-width="8" fill="rgb(0,0,0)" fill-opacity="1"/></g></g><g><g><g><g><g transform="matrix(1,0,0,1,229.26898193359375,86.85677083333333)"><path transform="matrix(0.017,0,0,-0.017,0,0)" d="M508 400L508 431C485 429 456 428 433 428L346 431L346 400C383 399 394 376 394 357C394 348 392 344 388 333L286 78L174 357C168 370 168 374 168 374C168 400 207 400 225 400L225 431L116 428C89 428 49 429 19 431L19 400C82 400 86 394 99 363L243 8C249 -6 251 -11 264 -11C277 -11 281 -2 285 8L416 333C425 356 442 399 508 400Z" stroke="rgb(0,0,0)" stroke-opacity="1" stroke-width="24" fill="rgb(0,0,0)" fill-opacity="1"/></g></g></g></g><svg x="229.26898193359375" overflow="visible" y="67.85713704427083" height="9.99813969930014" width="9.830729166666657"><path d=" M 9.83 4.85 l -3.15 -3.32 l -0.49 0.52 l 1.93 2.33 h -0.15 v 0.90 h 0.15 l -1.93 2.33 l 0.49 0.52 z  M 1.68 5.23 h 7.69 v -0.90 h -7.69 z" style="fill:rgb(0,0,0);fill-opacity:1;stroke-width:1px;stroke:none;stroke-opacity:1;"/></svg></g><g><g transform="matrix(1,0,0,1,238.25335693359372,86.2615254720052)"><path transform="matrix(0.017,0,0,-0.017,0,0)" d="M159 -230L159 730C159 741 150 750 139 750C128 750 119 741 119 730L119 -230C119 -241 128 -250 139 -250C150 -250 159 -241 159 -230Z" stroke="rgb(0,0,0)" stroke-opacity="1" stroke-width="8" fill="rgb(0,0,0)" fill-opacity="1"/></g></g></g></g><g><g><g><g transform="matrix(1,0,0,1,178.18080647786456,152.56547037760416)"><path transform="matrix(0.017,0,0,-0.017,0,0)" d="M468 372C468 426 442 442 424 442C399 442 375 416 375 394C375 381 380 375 391 364C412 344 425 318 425 282C425 240 364 11 247 11C196 11 173 46 173 98C173 154 200 227 231 310C238 327 243 341 243 360C243 405 211 442 161 442C67 442 29 297 29 288C29 278 41 278 41 278C51 278 52 280 57 296C86 397 129 420 158 420C166 420 183 420 183 388C183 363 173 336 166 318C122 202 109 156 109 113C109 5 197 -11 243 -11C411 -11 468 320 468 372Z" stroke="rgb(0,0,0)" stroke-opacity="1" stroke-width="8" fill="rgb(0,0,0)" fill-opacity="1"/></g></g><g><g><g><g><g transform="matrix(1,0,0,1,186.93267822265625,156.16153564453126)"><path transform="matrix(0.0119,0,0,-0.0119,0,0)" d="M527 376C527 428 468 442 434 442C376 442 341 389 329 366C304 432 250 442 221 442C117 442 60 313 60 288C60 278 72 278 72 278C80 278 83 280 85 289C119 395 185 420 219 420C238 420 273 411 273 353C273 322 256 255 219 115C203 53 168 11 124 11C118 11 95 11 74 24C99 29 121 50 121 78C121 105 99 113 84 113C54 113 29 87 29 55C29 9 79 -11 123 -11C189 -11 225 59 228 65C240 28 276 -11 336 -11C439 -11 496 118 496 143C496 153 487 153 484 153C475 153 473 149 471 142C438 35 370 11 338 11C299 11 283 43 283 77C283 99 289 121 300 165L334 302C340 328 363 420 433 420C438 420 462 420 483 407C455 402 435 377 435 353C435 337 446 318 473 318C495 318 527 336 527 376Z" stroke="rgb(0,0,0)" stroke-opacity="1" stroke-width="8" fill="rgb(0,0,0)" fill-opacity="1"/></g></g></g></g></g><g><g transform="matrix(1,0,0,1,199.85121663411456,152.56547037760416)"><path transform="matrix(0.017,0,0,-0.017,0,0)" d="M722 347C722 358 713 367 702 367L76 367C65 367 56 358 56 347C56 336 65 327 76 327L702 327C713 327 722 336 722 347ZM722 153C722 164 713 173 702 173L76 173C65 173 56 164 56 153C56 142 65 133 76 133L702 133C713 133 722 142 722 153Z" stroke="rgb(0,0,0)" stroke-opacity="1" stroke-width="8" fill="rgb(0,0,0)" fill-opacity="1"/></g></g><g><g transform="matrix(1,0,0,1,218.18267822265625,152.56547037760416)"><path transform="matrix(0.017,0,0,-0.017,0,0)" d="M468 372C468 426 442 442 424 442C399 442 375 416 375 394C375 381 380 375 391 364C412 344 425 318 425 282C425 240 364 11 247 11C196 11 173 46 173 98C173 154 200 227 231 310C238 327 243 341 243 360C243 405 211 442 161 442C67 442 29 297 29 288C29 278 41 278 41 278C51 278 52 280 57 296C86 397 129 420 158 420C166 420 183 420 183 388C183 363 173 336 166 318C122 202 109 156 109 113C109 5 197 -11 243 -11C411 -11 468 320 468 372Z" stroke="rgb(0,0,0)" stroke-opacity="1" stroke-width="8" fill="rgb(0,0,0)" fill-opacity="1"/></g></g><g><g><g transform="matrix(1,0,0,1,229.8270060221354,152.56547037760416)"><path transform="matrix(0.017,0,0,-0.017,0,0)" d="M415 119C415 129 405 129 402 129C393 129 391 125 389 119C360 26 295 14 258 14C205 14 117 57 117 218C117 381 199 423 252 423C261 423 324 422 359 386C318 383 312 353 312 340C312 314 330 294 358 294C384 294 404 311 404 341C404 409 328 448 251 448C126 448 34 340 34 216C34 88 133 -11 249 -11C383 -11 415 109 415 119ZM915 214C915 342 815 448 694 448C569 448 472 339 472 214C472 85 576 -11 693 -11C814 -11 915 87 915 214ZM832 222C832 186 832 132 810 88C788 43 744 14 694 14C651 14 607 35 580 81C555 125 555 186 555 222C555 261 555 315 579 359C606 405 653 426 693 426C737 426 780 404 806 361C832 318 832 260 832 222ZM1304 128C1304 181 1274 211 1262 223C1229 255 1190 263 1148 271C1092 282 1025 295 1025 353C1025 388 1051 429 1137 429C1247 429 1252 339 1254 308C1255 299 1266 299 1266 299C1279 299 1279 304 1279 323L1279 424C1279 441 1279 448 1268 448C1263 448 1261 448 1248 436C1245 432 1235 423 1231 420C1193 448 1152 448 1137 448C1015 448 977 381 977 325C977 290 993 262 1020 240C1052 214 1080 208 1152 194C1174 190 1256 174 1256 102C1256 51 1221 11 1143 11C1059 11 1023 68 1004 153C1001 166 1000 170 990 170C977 170 977 163 977 145L977 13C977 -4 977 -11 988 -11C993 -11 994 -10 1013 9C1015 11 1015 13 1033 32C1077 -10 1122 -11 1143 -11C1258 -11 1304 56 1304 128Z" stroke="rgb(0,0,0)" stroke-opacity="1" stroke-width="8" fill="rgb(0,0,0)" fill-opacity="1"/></g></g></g><g><g transform="matrix(1,0,0,1,255.97100830078122,152.56547037760416)"><path transform="matrix(0.017,0,0,-0.017,0,0)" d="M455 500C455 566 437 705 335 705C196 705 42 423 42 194C42 100 71 -11 162 -11C303 -11 455 276 455 500ZM389 562C389 513 381 462 357 363L148 363C165 427 185 507 225 578C252 627 289 683 334 683C383 683 389 619 389 562ZM348 331C337 285 316 200 278 128C243 60 205 11 162 11C129 11 108 40 108 133C108 175 114 233 140 331Z" stroke="rgb(0,0,0)" stroke-opacity="1" stroke-width="8" fill="rgb(0,0,0)" fill-opacity="1"/></g></g></g></g><g><g><g><g transform="matrix(1,0,0,1,68.08966064453125,103.56993611653645)"><path transform="matrix(0.017,0,0,-0.017,0,0)" d="M468 372C468 426 442 442 424 442C399 442 375 416 375 394C375 381 380 375 391 364C412 344 425 318 425 282C425 240 364 11 247 11C196 11 173 46 173 98C173 154 200 227 231 310C238 327 243 341 243 360C243 405 211 442 161 442C67 442 29 297 29 288C29 278 41 278 41 278C51 278 52 280 57 296C86 397 129 420 158 420C166 420 183 420 183 388C183 363 173 336 166 318C122 202 109 156 109 113C109 5 197 -11 243 -11C411 -11 468 320 468 372Z" stroke="rgb(0,0,0)" stroke-opacity="1" stroke-width="8" fill="rgb(0,0,0)" fill-opacity="1"/></g></g><g><g><g><g><g transform="matrix(1,0,0,1,76.84153238932292,107.1659912109375)"><path transform="matrix(0.0119,0,0,-0.0119,0,0)" d="M490 404C490 422 476 431 461 431C451 431 435 425 426 410C424 405 416 374 412 356L392 276L347 96C343 81 300 11 234 11C183 11 172 55 172 92C172 138 189 200 223 288C239 329 243 340 243 360C243 405 211 442 161 442C66 442 29 297 29 288C29 278 41 278 41 278C51 278 52 280 57 296C84 390 124 420 158 420C166 420 183 420 183 388C183 363 173 337 166 318C126 212 108 155 108 108C108 19 171 -11 230 -11C269 -11 303 6 331 34C318 -18 306 -67 266 -120C240 -154 202 -183 156 -183C142 -183 97 -180 80 -141C96 -141 109 -141 123 -129C133 -120 143 -107 143 -88C143 -57 116 -53 106 -53C83 -53 50 -69 50 -118C50 -168 94 -205 156 -205C259 -205 362 -114 390 -1L486 381C490 395 490 397 490 404Z" stroke="rgb(0,0,0)" stroke-opacity="1" stroke-width="8" fill="rgb(0,0,0)" fill-opacity="1"/></g></g></g></g></g><g><g transform="matrix(1,0,0,1,88.78350830078125,103.56993611653645)"><path transform="matrix(0.017,0,0,-0.017,0,0)" d="M722 347C722 358 713 367 702 367L76 367C65 367 56 358 56 347C56 336 65 327 76 327L702 327C713 327 722 336 722 347ZM722 153C722 164 713 173 702 173L76 173C65 173 56 164 56 153C56 142 65 133 76 133L702 133C713 133 722 142 722 153Z" stroke="rgb(0,0,0)" stroke-opacity="1" stroke-width="8" fill="rgb(0,0,0)" fill-opacity="1"/></g></g><g><g transform="matrix(1,0,0,1,107.11496988932292,103.56993611653645)"><path transform="matrix(0.017,0,0,-0.017,0,0)" d="M468 372C468 426 442 442 424 442C399 442 375 416 375 394C375 381 380 375 391 364C412 344 425 318 425 282C425 240 364 11 247 11C196 11 173 46 173 98C173 154 200 227 231 310C238 327 243 341 243 360C243 405 211 442 161 442C67 442 29 297 29 288C29 278 41 278 41 278C51 278 52 280 57 296C86 397 129 420 158 420C166 420 183 420 183 388C183 363 173 336 166 318C122 202 109 156 109 113C109 5 197 -11 243 -11C411 -11 468 320 468 372Z" stroke="rgb(0,0,0)" stroke-opacity="1" stroke-width="8" fill="rgb(0,0,0)" fill-opacity="1"/></g></g><g><g><g transform="matrix(1,0,0,1,118.75929768880208,103.56993611653645)"><path transform="matrix(0.017,0,0,-0.017,0,0)" d="M360 128C360 181 330 211 318 223C285 255 246 263 204 271C148 282 81 295 81 353C81 388 107 429 193 429C303 429 308 339 310 308C311 299 322 299 322 299C335 299 335 304 335 323L335 424C335 441 335 448 324 448C319 448 317 448 304 436C301 432 291 423 287 420C249 448 208 448 193 448C71 448 33 381 33 325C33 290 49 262 76 240C108 214 136 208 208 194C230 190 312 174 312 102C312 51 277 11 199 11C115 11 79 68 60 153C57 166 56 170 46 170C33 170 33 163 33 145L33 13C33 -4 33 -11 44 -11C49 -11 50 -10 69 9C71 11 71 13 89 32C133 -10 178 -11 199 -11C314 -11 360 56 360 128ZM641 0L641 31C575 31 571 36 571 75L571 442L431 431L431 400C496 400 505 394 505 345L505 76C505 31 494 31 427 31L427 0L537 3C572 3 607 1 641 0ZM586 604C586 631 563 657 533 657C499 657 479 629 479 604C479 577 502 551 532 551C566 551 586 579 586 604ZM1207 0L1207 31C1155 31 1130 31 1129 61L1129 252C1129 338 1129 369 1098 405C1084 422 1051 442 993 442C920 442 873 399 845 337L845 442L704 431L704 400C774 400 782 393 782 344L782 76C782 31 771 31 704 31L704 0L817 3L929 0L929 31C862 31 851 31 851 76L851 260C851 364 922 420 986 420C1049 420 1060 366 1060 309L1060 76C1060 31 1049 31 982 31L982 0L1095 3Z" stroke="rgb(0,0,0)" stroke-opacity="1" stroke-width="8" fill="rgb(0,0,0)" fill-opacity="1"/></g></g></g><g><g transform="matrix(1,0,0,1,143.03387451171875,103.56993611653645)"><path transform="matrix(0.017,0,0,-0.017,0,0)" d="M455 500C455 566 437 705 335 705C196 705 42 423 42 194C42 100 71 -11 162 -11C303 -11 455 276 455 500ZM389 562C389 513 381 462 357 363L148 363C165 427 185 507 225 578C252 627 289 683 334 683C383 683 389 619 389 562ZM348 331C337 285 316 200 278 128C243 60 205 11 162 11C129 11 108 40 108 133C108 175 114 233 140 331Z" stroke="rgb(0,0,0)" stroke-opacity="1" stroke-width="8" fill="rgb(0,0,0)" fill-opacity="1"/></g></g></g></g><g><g><g><g transform="matrix(1,0,0,1,215.68080647786456,125.06361897786458)"><path transform="matrix(0.017,0,0,-0.017,0,0)" d="M455 500C455 566 437 705 335 705C196 705 42 423 42 194C42 100 71 -11 162 -11C303 -11 455 276 455 500ZM389 562C389 513 381 462 357 363L148 363C165 427 185 507 225 578C252 627 289 683 334 683C383 683 389 619 389 562ZM348 331C337 285 316 200 278 128C243 60 205 11 162 11C129 11 108 40 108 133C108 175 114 233 140 331Z" stroke="rgb(0,0,0)" stroke-opacity="1" stroke-width="8" fill="rgb(0,0,0)" fill-opacity="1"/></g></g></g></g></svg>
</svg>