<svg width="800" height="700" xmlns="http://www.w3.org/2000/svg">
  <style>
    .axis-line { stroke: #7777775b; stroke-width: 3; stroke-dasharray: 3,3; fill: none; }
    .signal-line { stroke: black; stroke-width: 3; fill: none; }
    .pulse { stroke: black; stroke-width: 3; fill: none; }
    .sample-line { stroke: #77777744; stroke-width: 3; stroke-dasharray: 3,3; }
    .label { font-family: sans-serif; font-size: 14px; }
    .title { font-family: sans-serif; font-size: 16px; font-weight: bold; }
    .sample-info { font-family: monospace; font-size: 14px; fill: #333; }
    .sample-label { font-family: sans-serif; font-size: 16px; font-weight: bold; fill: #333; }
  </style>
  <text x="140" y="60" class="title" text-anchor="end">Analog Signal</text>
  <line x1="150" y1="110" x2="760" y2="110" class="axis-line"/>
  <line x1="150" y1="50" x2="150" y2="170" class="axis-line"/>
  <path d="M150,110 L156.1,106.92326454306365 L162.2,103.85867155534909 L168.3,100.8183155852995 L174.4,97.81419552892211 L180.5,94.85816727562758 L186.6,91.96189691845078 L192.7,89.13681471331144 L198.8,86.39406996901594 L204.9,83.74448704602916 L211,81.19852263766882 L217.1,78.7662245023142 L223.2,76.45719180949426 L229.3,74.28053725635084 L235.4,72.24485110398632 L241.5,70.35816727562758 L247.60000000000002,68.62793165040125 L253.7,67.06097267785069 L259.8,65.66347442916503 L265.9,64.44095219147567 L272,63.398230701537486 L278.1,62.53942510469709 L284.2,61.86792471429426 L290.3,61.386379635590586 L296.4,61.0966903070147 L302.5,61 L308.6,61.0966903070147 L314.70000000000005,61.38637963559059 L320.8,61.86792471429426 L326.9,62.539425104697074 L333,63.39823070153747 L339.1,64.44095219147567 L345.20000000000005,65.66347442916505 L351.3,67.06097267785069 L357.4,68.62793165040128 L363.5,70.35816727562758 L369.6,72.24485110398632 L375.7,74.28053725635084 L381.8,76.45719180949425 L387.9,78.7662245023142 L394,81.19852263766882 L400.1,83.74448704602915 L406.2,86.39406996901593 L412.3,89.13681471331142 L418.4,91.96189691845078 L424.5,94.85816727562758 L430.6,97.81419552892211 L436.7,100.81831558529947 L442.8,103.85867155534908 L448.9,106.92326454306364 L455,110 L461.1,113.07673545693635 L467.2,116.14132844465091 L473.3,119.18168441470051 L479.40000000000003,122.18580447107789 L485.5,125.14183272437243 L491.6,128.03810308154922 L497.7,130.86318528668855 L503.79999999999995,133.60593003098404 L509.9,136.25551295397082 L516,138.80147736233118 L522.0999999999999,141.2337754976858 L528.2,143.54280819050575 L534.3,145.71946274364916 L540.4000000000001,147.75514889601368 L546.5,149.64183272437242 L552.6,151.37206834959875 L558.7,152.93902732214931 L564.8,154.33652557083497 L570.9,155.5590478085243 L577,156.6017692984625 L583.0999999999999,157.4605748953029 L589.2,158.13207528570575 L595.3,158.6136203644094 L601.4,158.90330969298532 L607.5,159 L613.6,158.90330969298532 L619.7,158.61362036440943 L625.8,158.13207528570575 L631.9000000000001,157.4605748953029 L638,156.60176929846253 L644.1,155.5590478085243 L650.2,154.33652557083497 L656.3,152.93902732214934 L662.4,151.37206834959875 L668.5,149.64183272437242 L674.6,147.75514889601368 L680.7,145.71946274364916 L686.8,143.54280819050575 L692.9,141.2337754976858 L699,138.80147736233118 L705.1,136.25551295397082 L711.2,133.60593003098404 L717.3000000000001,130.86318528668855 L723.4,128.03810308154925 L729.5,125.14183272437243 L735.6,122.18580447107792 L741.6999999999999,119.18168441470051 L747.8,116.14132844465092 L753.9,113.07673545693635 L760,110.00000000000001" class="signal-line"/>
  <text x="140" y="200" class="title" text-anchor="end">PAM</text>
  <line x1="150" y1="190" x2="150" y2="310" class="axis-line"/>
  <path d="M150,250 L150,250 L150,201 L161.4375,201 L161.4375,250 L226.25,250 L226.25,166.35176772185918 L237.6875,166.35176772185918 L237.6875,250 L302.5,250 L302.5,152 L313.9375,152 L313.9375,250 L378.75,250 L378.75,166.35176772185918 L390.1875,166.35176772185918 L390.1875,250 L455,250 L455,201 L466.4375,201 L466.4375,250 L531.25,250 L531.25,235.64823227814082 L542.6875,235.64823227814082 L542.6875,250 L607.5,250 L607.5,250 L618.9375,250 L618.9375,250 L683.75,250 L683.75,235.64823227814082 L695.1875,235.64823227814082 L695.1875,250 L760,250" class="pulse"/>
  <text x="140" y="340" class="title" text-anchor="end">PWM</text>
  <line x1="150" y1="330" x2="150" y2="450" class="axis-line"/>
  <path d="M150,390 L150,390 L150,292 L180.5,292 L180.5,390 L226.25,390 L226.25,292 L278.3167568261897,292 L278.3167568261897,390 L302.5,390 L302.5,292 L363.5,292 L363.5,390 L378.75,390 L378.75,292 L430.8167568261897,292 L430.8167568261897,390 L455,390 L455,292 L485.5,292 L485.5,390 L531.25,390 L531.25,292 L540.1832431738103,292 L540.1832431738103,390 L607.5,390 L607.5,292 L607.5,292 L607.5,390 L683.75,390 L683.75,292 L692.6832431738103,292 L692.6832431738103,390 L760,390" class="pulse"/>
  <text x="140" y="480" class="title" text-anchor="end">PPM</text>
  <line x1="150" y1="470" x2="150" y2="590" class="axis-line"/>
  <path d="M150,530 L150,530 L150,432 L157.625,432 L157.625,530 L188.125,530 L188.125,432 L195.75,432 L195.75,530 L226.25,530 L226.25,432 L233.875,432 L233.875,530 L280.5500676196423,530 L280.5500676196423,432 L288.1750676196423,432 L288.1750676196423,530 L302.5,530 L302.5,432 L310.125,432 L310.125,530 L363.5,530 L363.5,432 L371.125,432 L371.125,530 L378.75,530 L378.75,432 L386.375,432 L386.375,530 L433.0500676196423,530 L433.0500676196423,432 L440.6750676196423,432 L440.6750676196423,530 L455,530 L455,432 L462.625,432 L462.625,530 L493.125,530 L493.125,432 L500.75,432 L500.75,530 L531.25,530 L531.25,432 L538.875,432 L538.875,530 L553.1999323803577,530 L553.1999323803577,432 L560.8249323803577,432 L560.8249323803577,530 L607.5,530 L607.5,432 L615.125,432 L615.125,530 L622.75,530 L622.75,432 L630.375,432 L630.375,530 L683.75,530 L683.75,432 L691.375,432 L691.375,530 L705.6999323803577,530 L705.6999323803577,432 L713.3249323803577,432 L713.3249323803577,530 L760,530" class="pulse"/>
  <line x1="150" y1="40" x2="150" y2="605" class="sample-line"/>
  <text x="150" y="625" class="sample-info" text-anchor="middle">5.00</text>
  <text x="150" y="649" class="sample-info" text-anchor="middle">5</text>
  <text x="150" y="673" class="sample-info" text-anchor="middle">0101</text>
  <line x1="226.25" y1="40" x2="226.25" y2="605" class="sample-line"/>
  <text x="226.25" y="625" class="sample-info" text-anchor="middle">8.54</text>
  <text x="226.25" y="649" class="sample-info" text-anchor="middle">8</text>
  <text x="226.25" y="673" class="sample-info" text-anchor="middle">1000</text>
  <line x1="302.5" y1="40" x2="302.5" y2="605" class="sample-line"/>
  <text x="302.5" y="625" class="sample-info" text-anchor="middle">10.00</text>
  <text x="302.5" y="649" class="sample-info" text-anchor="middle">10</text>
  <text x="302.5" y="673" class="sample-info" text-anchor="middle">1010</text>
  <line x1="378.75" y1="40" x2="378.75" y2="605" class="sample-line"/>
  <text x="378.75" y="625" class="sample-info" text-anchor="middle">8.54</text>
  <text x="378.75" y="649" class="sample-info" text-anchor="middle">8</text>
  <text x="378.75" y="673" class="sample-info" text-anchor="middle">1000</text>
  <line x1="455" y1="40" x2="455" y2="605" class="sample-line"/>
  <text x="455" y="625" class="sample-info" text-anchor="middle">5.00</text>
  <text x="455" y="649" class="sample-info" text-anchor="middle">5</text>
  <text x="455" y="673" class="sample-info" text-anchor="middle">0101</text>
  <line x1="531.25" y1="40" x2="531.25" y2="605" class="sample-line"/>
  <text x="531.25" y="625" class="sample-info" text-anchor="middle">1.46</text>
  <text x="531.25" y="649" class="sample-info" text-anchor="middle">1</text>
  <text x="531.25" y="673" class="sample-info" text-anchor="middle">0001</text>
  <line x1="607.5" y1="40" x2="607.5" y2="605" class="sample-line"/>
  <text x="607.5" y="625" class="sample-info" text-anchor="middle">0.00</text>
  <text x="607.5" y="649" class="sample-info" text-anchor="middle">0</text>
  <text x="607.5" y="673" class="sample-info" text-anchor="middle">0000</text>
  <line x1="683.75" y1="40" x2="683.75" y2="605" class="sample-line"/>
  <text x="683.75" y="625" class="sample-info" text-anchor="middle">1.46</text>
  <text x="683.75" y="649" class="sample-info" text-anchor="middle">1</text>
  <text x="683.75" y="673" class="sample-info" text-anchor="middle">0001</text>
  <text x="125" y="625" class="sample-label" text-anchor="end">Value</text>
  <text x="125" y="649" class="sample-label" text-anchor="end">Quantized</text>
  <text x="125" y="673" class="sample-label" text-anchor="end">PCM</text>
</svg>
