<svg xmlns="http://www.w3.org/2000/svg" xmlns:xlink="http://www.w3.org/1999/xlink" x="0" y="0" style="         width:701.8181966145834px;         height:301.81817626953125px;         background: transparent;         fill: none; " viewBox="128.52 49.19 162.35 181.07">
        
        
        <svg xmlns="http://www.w3.org/2000/svg" class="role-diagram-draw-area" style="overflow: visible;"><g class="shapes-region" style="stroke: black; fill: none;"><g class="composite-shape"><path class="real" d=" M243.59,117.88 C253.33,120.1 261.85,125.3 267.62,133.37 C267.69,133.47 267.75,133.56 267.82,133.65 L222.26,165.78 Z" style="stroke-width: 1; stroke: none; fill: none; fill-opacity: 1; stroke-opacity: 1;"/><path class="real" d=" M243.59,117.88 C253.33,120.1 261.85,125.3 267.62,133.37 C267.69,133.47 267.75,133.56 267.82,133.65" style="stroke-width: 1; stroke: rgb(155, 155, 155); fill: none; fill-opacity: 1; stroke-opacity: 1;"/></g><g class="arrow-line"><path class="connection real" stroke-dasharray="" d="  M230.95,155.59 L258.41,76.1" style="stroke: rgb(237, 5, 140); stroke-opacity: 1; stroke-width: 2; fill: none; fill-opacity: 1;"/><g stroke="none" fill="rgb(237,5,140)" fill-opacity="1" transform="matrix(-0.3265581205004648,0.9451771230490102,-0.9451771230490102,-0.3265581205004648,259.7130312547479,72.32041358367178)" style="stroke: none; fill: rgb(237, 5, 140); stroke-width: 2;"><path d=" M13.4,-6.43 L0,0 L13.4,6.44 L8.9,0 Z"/></g></g><g class="arrow-line"><path class="connection real" stroke-dasharray="4" d="  M230.95,155.59 L286.31,122.15" style="stroke: rgb(237, 5, 140); stroke-opacity: 1; stroke-width: 1; fill: none; fill-opacity: 1;"/><g stroke="none" fill="rgb(237,5,140)" fill-opacity="1" transform="matrix(-0.8559965110188963,0.5169815984379681,-0.5169815984379681,-0.8559965110188963,288.8735655518709,120.60320680726733)" style="stroke: none; fill: rgb(237, 5, 140); stroke-width: 1;"><path d=" M8.04,-3.86 L0,0 L8.04,3.86 L5.34,0 Z"/></g></g><g class="arrow-line"><path class="connection real" stroke-dasharray="" d="  M152.26,203.11 L227.53,157.65" style="stroke: rgb(0, 174, 239); stroke-opacity: 1; stroke-width: 2; fill: none; fill-opacity: 1;"/><g stroke="none" fill="rgb(0,174,239)" fill-opacity="1" transform="matrix(-0.8559965110188963,0.5169815984379681,-0.5169815984379681,-0.8559965110188963,230.95178019741059,155.58523861635342)" style="stroke: none; fill: rgb(0, 174, 239); stroke-width: 2;"><path d=" M13.4,-6.43 L0,0 L13.4,6.44 L8.9,0 Z"/></g></g><g class="arrow-line"><path class="connection real" stroke-dasharray="4" d="  M230.95,155.59 L203.34,109.87" style="stroke: rgb(237, 5, 140); stroke-opacity: 1; stroke-width: 1; fill: none; fill-opacity: 1;"/><g stroke="none" fill="rgb(237,5,140)" fill-opacity="1" transform="matrix(0.5169815984379673,0.8559965110188968,-0.8559965110188968,0.5169815984379673,201.7912459002875,107.30244539275787)" style="stroke: none; fill: rgb(237, 5, 140); stroke-width: 1;"><path d=" M8.04,-3.86 L0,0 L8.04,3.86 L5.34,0 Z"/></g></g><g/></g><g/><g/><g/></svg>
        <svg xmlns="http://www.w3.org/2000/svg" xmlns:xlink="http://www.w3.org/1999/xlink" width="700" height="299.9999796549479" style="width:700px;height:299.9999796549479px;font-family:LatinModern-Math, LatinModern, Asana-Math, Asana;background:transparent;"><g transform="matrix(0.813709912852115,-0.5812711740024645,0.5812711740024645,0.813709912852115,-17.39583011907081,174.52753000104696)"><g><g><g transform="matrix(1,0,0,1,258.35935465494794,121.20454915364583)"><path transform="matrix(0.017,0,0,-0.017,0,0)" d="M455 500C455 566 437 705 335 705C196 705 42 423 42 194C42 100 71 -11 162 -11C303 -11 455 276 455 500ZM389 562C389 513 381 462 357 363L148 363C165 427 185 507 225 578C252 627 289 683 334 683C383 683 389 619 389 562ZM348 331C337 285 316 200 278 128C243 60 205 11 162 11C129 11 108 40 108 133C108 175 114 233 140 331Z" stroke="rgb(155,155,155)" stroke-opacity="1" stroke-width="8" fill="rgb(155,155,155)" fill-opacity="1"/></g></g></g></g><g><g><g><g transform="matrix(1,0,0,1,264.44602457682294,75.06619873046876)"><path transform="matrix(0.020399999999999998,0,0,-0.020399999999999998,0,0)" d="M610 455L582 680L33 680L33 649L57 649C134 649 136 638 136 602L136 78C136 42 134 31 57 31L33 31L33 0C68 3 146 3 185 3C226 3 317 3 353 0L353 31L320 31C225 31 225 44 225 79L225 325L311 325C407 325 417 293 417 208L442 208L442 473L417 473C417 389 407 356 311 356L225 356L225 609C225 642 227 649 274 649L394 649C544 649 569 593 585 455Z" stroke="rgb(237,5,140)" stroke-opacity="1" stroke-width="24" fill="rgb(237,5,140)" fill-opacity="1"/></g></g></g></g><g><g><g><g transform="matrix(1,0,0,1,196.0511271158854,193.74515380859376)"><path transform="matrix(0.020399999999999998,0,0,-0.020399999999999998,0,0)" d="M364 381C364 413 333 442 290 442C217 442 181 375 167 332L167 442L28 431L28 400C98 400 106 393 106 344L106 76C106 31 95 31 28 31L28 0L142 3C182 3 229 3 269 0L269 31L248 31C174 31 172 42 172 78L172 232C172 331 214 420 290 420C297 420 299 420 301 419C298 418 278 406 278 380C278 352 299 337 321 337C339 337 364 349 364 381Z" stroke="rgb(0,174,239)" stroke-opacity="1" stroke-width="24" fill="rgb(0,174,239)" fill-opacity="1"/></g></g></g></g><g><g><g><g transform="matrix(1,0,0,1,144.77984619140625,209.07619873046875)"><path transform="matrix(0.02941,0,0,-0.02941,0,0)" d="M652 271C652 445 509 587 335 587C160 587 18 445 18 271C18 96 160 -46 335 -46C509 -46 652 96 652 271ZM604 271C604 123 482 1 335 1C186 1 65 122 65 271C65 419 186 540 335 540C482 540 604 418 604 271ZM493 271L492 271C492 357 421 427 335 427C248 427 177 358 177 271C177 183 248 114 336 114C422 114 493 184 493 271Z" stroke="rgb(184,85,70)" stroke-opacity="1" stroke-width="8" fill="rgb(184,85,70)" fill-opacity="1"/></g></g></g></g><g><g><g><g transform="matrix(1,0,0,1,259.6946004231771,153.7821004231771)"><path transform="matrix(0.0119,0,0,-0.0119,0,0)" d="M610 455L582 680L33 680L33 649L57 649C134 649 136 638 136 602L136 78C136 42 134 31 57 31L33 31L33 0C68 3 146 3 185 3C226 3 317 3 353 0L353 31L320 31C225 31 225 44 225 79L225 325L311 325C407 325 417 293 417 208L442 208L442 473L417 473C417 389 407 356 311 356L225 356L225 609C225 642 227 649 274 649L394 649C544 649 569 593 585 455Z" stroke="rgb(237,5,140)" stroke-opacity="1" stroke-width="24" fill="rgb(237,5,140)" fill-opacity="1"/></g></g><g><g><g><g><g transform="matrix(1,0,0,1,267.8266805013021,155.8797029622396)"><path transform="matrix(0.00833,0,0,-0.00833,0,0)" d="M173 -230L173 730C173 741 164 750 153 750C142 750 133 741 133 730L133 -230C133 -241 142 -250 153 -250C164 -250 173 -241 173 -230ZM367 -230L367 730C367 741 358 750 347 750C336 750 327 741 327 730L327 -230C327 -241 336 -250 347 -250C358 -250 367 -241 367 -230Z" stroke="rgb(237,5,140)" stroke-opacity="1" stroke-width="8" fill="rgb(237,5,140)" fill-opacity="1"/></g></g></g></g></g></g></g><g><g><g><g transform="matrix(1,0,0,1,202.35797119140625,141.11164957682294)"><path transform="matrix(0.0119,0,0,-0.0119,0,0)" d="M610 455L582 680L33 680L33 649L57 649C134 649 136 638 136 602L136 78C136 42 134 31 57 31L33 31L33 0C68 3 146 3 185 3C226 3 317 3 353 0L353 31L320 31C225 31 225 44 225 79L225 325L311 325C407 325 417 293 417 208L442 208L442 473L417 473C417 389 407 356 311 356L225 356L225 609C225 642 227 649 274 649L394 649C544 649 569 593 585 455Z" stroke="rgb(237,5,140)" stroke-opacity="1" stroke-width="24" fill="rgb(237,5,140)" fill-opacity="1"/></g></g><g><g><g><g><g transform="matrix(1,0,0,1,210.49005126953125,143.20925211588545)"><path transform="matrix(0.00833,0,0,-0.00833,0,0)" d="M722 20C722 31 713 40 702 40L409 40L409 664C409 675 400 684 389 684C378 684 369 675 369 664L369 40L76 40C65 40 56 31 56 20C56 9 65 0 76 0L702 0C713 0 722 9 722 20Z" stroke="rgb(237,5,140)" stroke-opacity="1" stroke-width="8" fill="rgb(237,5,140)" fill-opacity="1"/></g></g></g></g></g></g></g><g><g><g><g transform="matrix(1,0,0,1,142.05255126953125,187.82515380859374)"><path transform="matrix(0.024480000000000002,0,0,-0.024480000000000002,0,0)" d="M511 407C511 431 490 431 471 431L191 431C171 431 132 431 88 384C55 348 27 300 27 294C27 294 27 284 39 284C47 284 49 288 55 296C104 373 161 373 182 373L265 373L167 52C163 40 157 19 157 15C157 4 164 -12 186 -12C219 -12 224 16 227 31L294 373L462 373C475 373 511 373 511 407Z" stroke="rgb(184,85,70)" stroke-opacity="1" stroke-width="24" fill="rgb(184,85,70)" fill-opacity="1"/></g></g></g></g><g transform="matrix(0.838004540092844,-0.5456632576816778,0.5456632576816778,0.838004540092844,-83.04432282842527,115.30307309001971)"><g><g><g transform="matrix(1,0,0,1,131.2464396158854,216.83378623046875)"><path transform="matrix(0.0483004,0,0,-0.0483004,0,0)" d="M689 95C561 -33 339 -50 211 78C82 207 82 415 211 544L175 580C25 430 26 191 175 42C324 -107 573 -92 723 57L759 -50L825 195L580 129Z" stroke="rgb(184,85,70)" stroke-opacity="1" stroke-width="8" fill="rgb(184,85,70)" fill-opacity="1"/></g></g></g></g></svg>
</svg>