<?xml version="1.0" encoding="UTF-8"?>
<svg xmlns="http://www.w3.org/2000/svg" xmlns:xlink="http://www.w3.org/1999/xlink" width="449.84pt" height="79pt" viewBox="0 0 449.84 75.02"><desc>\documentclass[border=5pt]{standalone}
\usepackage{tikz}
\usepackage{bytefield}
\usepackage{fontspec}
\setmainfont{FiraMono-Regular}
\tikzset{
    bytefield/box/.style={draw, line width=1pt},
}

\begin{document}
\begin{bytefield}[bitformatting=\small,bitheight=2\baselineskip,bitwidth=0.04\textwidth]{32}
\bitheader{0,15,16,31} \\
\bitbox{16}{Source port} &amp; \bitbox{16}{Destination port} \\
\bitbox{16}{Segment length} &amp; \bitbox{16}{Checksum} \\
\end{bytefield}
\end{document}
</desc>
<defs>
<g>
<g id="glyph-0-0">
<path d="M 2.6875 -6.28125 C 3.34375 -6.28125 3.84375 -6.003906 4.1875 -5.453125 C 4.53125 -4.910156 4.703125 -4.125 4.703125 -3.09375 C 4.703125 -2.0625 4.53125 -1.269531 4.1875 -0.71875 C 3.84375 -0.175781 3.34375 0.09375 2.6875 0.09375 C 2.03125 0.09375 1.53125 -0.175781 1.1875 -0.71875 C 0.84375 -1.269531 0.671875 -2.0625 0.671875 -3.09375 C 0.671875 -4.125 0.84375 -4.910156 1.1875 -5.453125 C 1.53125 -6.003906 2.03125 -6.28125 2.6875 -6.28125 Z M 2.6875 -5.671875 C 1.875 -5.671875 1.46875 -4.8125 1.46875 -3.09375 C 1.46875 -1.375 1.875 -0.515625 2.6875 -0.515625 C 3.507812 -0.515625 3.921875 -1.375 3.921875 -3.09375 C 3.921875 -4.8125 3.507812 -5.671875 2.6875 -5.671875 Z M 2.6875 -3.671875 C 2.851562 -3.671875 2.992188 -3.613281 3.109375 -3.5 C 3.222656 -3.394531 3.28125 -3.257812 3.28125 -3.09375 C 3.28125 -2.925781 3.222656 -2.785156 3.109375 -2.671875 C 2.992188 -2.554688 2.851562 -2.5 2.6875 -2.5 C 2.519531 -2.5 2.378906 -2.554688 2.265625 -2.671875 C 2.160156 -2.785156 2.109375 -2.925781 2.109375 -3.09375 C 2.109375 -3.257812 2.160156 -3.394531 2.265625 -3.5 C 2.378906 -3.613281 2.519531 -3.671875 2.6875 -3.671875 Z M 2.6875 -3.671875 "/>
</g>
<g id="glyph-0-1">
<path d="M 4.640625 -0.609375 L 4.640625 0 L 1.078125 0 L 1.078125 -0.609375 L 2.59375 -0.609375 L 2.59375 -5.359375 L 1.1875 -4.5 L 0.859375 -5.03125 L 2.6875 -6.171875 L 3.359375 -6.171875 L 3.359375 -0.609375 Z M 4.640625 -0.609375 "/>
</g>
<g id="glyph-0-2">
<path d="M 4.265625 -5.5625 L 1.828125 -5.5625 L 1.828125 -3.625 C 1.992188 -3.726562 2.160156 -3.796875 2.328125 -3.828125 C 2.503906 -3.867188 2.6875 -3.890625 2.875 -3.890625 C 3.394531 -3.890625 3.804688 -3.71875 4.109375 -3.375 C 4.421875 -3.039062 4.578125 -2.566406 4.578125 -1.953125 C 4.578125 -1.546875 4.488281 -1.1875 4.3125 -0.875 C 4.144531 -0.5625 3.898438 -0.320312 3.578125 -0.15625 C 3.265625 0.0078125 2.898438 0.09375 2.484375 0.09375 C 1.796875 0.09375 1.195312 -0.148438 0.6875 -0.640625 L 1.15625 -1.09375 C 1.53125 -0.707031 1.972656 -0.515625 2.484375 -0.515625 C 2.898438 -0.515625 3.21875 -0.640625 3.4375 -0.890625 C 3.664062 -1.148438 3.78125 -1.515625 3.78125 -1.984375 C 3.78125 -2.453125 3.675781 -2.785156 3.46875 -2.984375 C 3.269531 -3.191406 3 -3.296875 2.65625 -3.296875 C 2.5 -3.296875 2.351562 -3.28125 2.21875 -3.25 C 2.09375 -3.21875 1.921875 -3.164062 1.703125 -3.09375 L 1.09375 -3.09375 L 1.09375 -6.171875 L 4.375 -6.171875 Z M 4.265625 -5.5625 "/>
</g>
<g id="glyph-0-3">
<path d="M 2.953125 -4.015625 C 3.273438 -4.015625 3.570312 -3.941406 3.84375 -3.796875 C 4.113281 -3.660156 4.320312 -3.445312 4.46875 -3.15625 C 4.625 -2.863281 4.703125 -2.503906 4.703125 -2.078125 C 4.703125 -1.640625 4.613281 -1.253906 4.4375 -0.921875 C 4.269531 -0.585938 4.039062 -0.332031 3.75 -0.15625 C 3.457031 0.0078125 3.128906 0.09375 2.765625 0.09375 C 2.046875 0.09375 1.519531 -0.164062 1.1875 -0.6875 C 0.863281 -1.207031 0.703125 -1.953125 0.703125 -2.921875 C 0.703125 -3.597656 0.789062 -4.1875 0.96875 -4.6875 C 1.15625 -5.195312 1.421875 -5.585938 1.765625 -5.859375 C 2.109375 -6.140625 2.519531 -6.28125 3 -6.28125 C 3.445312 -6.28125 3.859375 -6.15625 4.234375 -5.90625 L 3.9375 -5.40625 C 3.644531 -5.582031 3.332031 -5.671875 3 -5.671875 C 2.519531 -5.671875 2.144531 -5.445312 1.875 -5 C 1.613281 -4.5625 1.476562 -3.957031 1.46875 -3.1875 C 1.664062 -3.476562 1.882812 -3.6875 2.125 -3.8125 C 2.375 -3.945312 2.648438 -4.015625 2.953125 -4.015625 Z M 2.765625 -0.515625 C 3.148438 -0.515625 3.441406 -0.648438 3.640625 -0.921875 C 3.835938 -1.191406 3.9375 -1.566406 3.9375 -2.046875 C 3.9375 -2.953125 3.570312 -3.40625 2.84375 -3.40625 C 2.550781 -3.40625 2.289062 -3.328125 2.0625 -3.171875 C 1.832031 -3.015625 1.640625 -2.800781 1.484375 -2.53125 C 1.492188 -1.832031 1.597656 -1.320312 1.796875 -1 C 2.003906 -0.675781 2.328125 -0.515625 2.765625 -0.515625 Z M 2.765625 -0.515625 "/>
</g>
<g id="glyph-0-4">
<path d="M 2.40625 -6.28125 C 2.789062 -6.28125 3.125 -6.207031 3.40625 -6.0625 C 3.695312 -5.925781 3.921875 -5.738281 4.078125 -5.5 C 4.234375 -5.257812 4.3125 -5.003906 4.3125 -4.734375 C 4.3125 -4.367188 4.191406 -4.050781 3.953125 -3.78125 C 3.722656 -3.519531 3.441406 -3.359375 3.109375 -3.296875 C 3.492188 -3.265625 3.820312 -3.113281 4.09375 -2.84375 C 4.363281 -2.582031 4.5 -2.226562 4.5 -1.78125 C 4.5 -1.425781 4.410156 -1.101562 4.234375 -0.8125 C 4.054688 -0.53125 3.800781 -0.304688 3.46875 -0.140625 C 3.144531 0.0117188 2.773438 0.09375 2.359375 0.09375 C 1.992188 0.09375 1.640625 0.0234375 1.296875 -0.109375 C 0.960938 -0.242188 0.6875 -0.445312 0.46875 -0.71875 L 0.96875 -1.125 C 1.132812 -0.925781 1.335938 -0.773438 1.578125 -0.671875 C 1.828125 -0.566406 2.082031 -0.515625 2.34375 -0.515625 C 2.769531 -0.515625 3.101562 -0.625 3.34375 -0.84375 C 3.59375 -1.070312 3.71875 -1.382812 3.71875 -1.78125 C 3.71875 -2.5625 3.289062 -2.953125 2.4375 -2.953125 L 1.921875 -2.953125 L 2.015625 -3.546875 L 2.375 -3.546875 C 2.695312 -3.546875 2.972656 -3.632812 3.203125 -3.8125 C 3.429688 -4 3.546875 -4.269531 3.546875 -4.625 C 3.546875 -4.957031 3.4375 -5.210938 3.21875 -5.390625 C 3 -5.578125 2.71875 -5.671875 2.375 -5.671875 C 2.113281 -5.671875 1.882812 -5.625 1.6875 -5.53125 C 1.488281 -5.445312 1.28125 -5.304688 1.0625 -5.109375 L 0.65625 -5.5625 C 1.15625 -6.039062 1.738281 -6.28125 2.40625 -6.28125 Z M 2.40625 -6.28125 "/>
</g>
<g id="glyph-1-0">
<path d="M 5.359375 -1.90625 C 5.359375 -1.507812 5.253906 -1.160156 5.046875 -0.859375 C 4.847656 -0.554688 4.5625 -0.316406 4.1875 -0.140625 C 3.8125 0.0234375 3.363281 0.109375 2.84375 0.109375 C 2.34375 0.109375 1.890625 0.0351562 1.484375 -0.109375 C 1.078125 -0.265625 0.722656 -0.476562 0.421875 -0.75 L 0.953125 -1.34375 C 1.203125 -1.101562 1.476562 -0.921875 1.78125 -0.796875 C 2.09375 -0.671875 2.445312 -0.609375 2.84375 -0.609375 C 3.300781 -0.609375 3.679688 -0.71875 3.984375 -0.9375 C 4.296875 -1.15625 4.453125 -1.472656 4.453125 -1.890625 C 4.453125 -2.117188 4.40625 -2.304688 4.3125 -2.453125 C 4.226562 -2.609375 4.078125 -2.742188 3.859375 -2.859375 C 3.640625 -2.984375 3.335938 -3.101562 2.953125 -3.21875 C 2.203125 -3.4375 1.644531 -3.691406 1.28125 -3.984375 C 0.914062 -4.285156 0.734375 -4.691406 0.734375 -5.203125 C 0.734375 -5.546875 0.828125 -5.851562 1.015625 -6.125 C 1.203125 -6.394531 1.460938 -6.601562 1.796875 -6.75 C 2.140625 -6.90625 2.523438 -6.984375 2.953125 -6.984375 C 3.410156 -6.984375 3.816406 -6.914062 4.171875 -6.78125 C 4.523438 -6.644531 4.851562 -6.445312 5.15625 -6.1875 L 4.640625 -5.625 C 4.160156 -6.039062 3.609375 -6.25 2.984375 -6.25 C 2.585938 -6.25 2.257812 -6.160156 2 -5.984375 C 1.738281 -5.816406 1.609375 -5.566406 1.609375 -5.234375 C 1.609375 -5.035156 1.660156 -4.863281 1.765625 -4.71875 C 1.878906 -4.582031 2.054688 -4.453125 2.296875 -4.328125 C 2.546875 -4.210938 2.894531 -4.09375 3.34375 -3.96875 C 3.988281 -3.78125 4.484375 -3.535156 4.828125 -3.234375 C 5.179688 -2.941406 5.359375 -2.5 5.359375 -1.90625 Z M 5.359375 -1.90625 "/>
</g>
<g id="glyph-1-1">
<path d="M 3 -5.359375 C 3.726562 -5.359375 4.285156 -5.113281 4.671875 -4.625 C 5.054688 -4.132812 5.25 -3.46875 5.25 -2.625 C 5.25 -1.800781 5.050781 -1.140625 4.65625 -0.640625 C 4.257812 -0.140625 3.703125 0.109375 2.984375 0.109375 C 2.265625 0.109375 1.707031 -0.132812 1.3125 -0.625 C 0.925781 -1.113281 0.734375 -1.78125 0.734375 -2.625 C 0.734375 -3.457031 0.925781 -4.117188 1.3125 -4.609375 C 1.707031 -5.109375 2.269531 -5.359375 3 -5.359375 Z M 3 -4.671875 C 2.539062 -4.671875 2.195312 -4.5 1.96875 -4.15625 C 1.75 -3.820312 1.640625 -3.3125 1.640625 -2.625 C 1.640625 -1.925781 1.75 -1.410156 1.96875 -1.078125 C 2.1875 -0.742188 2.523438 -0.578125 2.984375 -0.578125 C 3.441406 -0.578125 3.78125 -0.742188 4 -1.078125 C 4.226562 -1.410156 4.34375 -1.925781 4.34375 -2.625 C 4.34375 -3.320312 4.226562 -3.835938 4 -4.171875 C 3.78125 -4.503906 3.445312 -4.671875 3 -4.671875 Z M 3 -4.671875 "/>
</g>
<g id="glyph-1-2">
<path d="M 1.828125 -1.53125 C 1.828125 -1.1875 1.898438 -0.9375 2.046875 -0.78125 C 2.191406 -0.625 2.414062 -0.546875 2.71875 -0.546875 C 3 -0.546875 3.269531 -0.625 3.53125 -0.78125 C 3.789062 -0.945312 3.992188 -1.148438 4.140625 -1.390625 L 4.140625 -5.25 L 4.984375 -5.25 L 4.984375 0 L 4.265625 0 L 4.203125 -0.703125 C 3.992188 -0.441406 3.738281 -0.238281 3.4375 -0.09375 C 3.132812 0.0390625 2.828125 0.109375 2.515625 0.109375 C 2.015625 0.109375 1.632812 -0.0195312 1.375 -0.28125 C 1.125 -0.550781 1 -0.9375 1 -1.4375 L 1 -5.25 L 1.828125 -5.25 Z M 1.828125 -1.53125 "/>
</g>
<g id="glyph-1-3">
<path d="M 4.546875 -5.359375 C 4.753906 -5.359375 5 -5.320312 5.28125 -5.25 L 5.15625 -3.46875 L 4.484375 -3.46875 L 4.484375 -4.59375 L 4.4375 -4.59375 C 3.625 -4.59375 3.050781 -4.015625 2.71875 -2.859375 L 2.71875 -0.640625 L 3.78125 -0.640625 L 3.78125 0 L 1.046875 0 L 1.046875 -0.640625 L 1.875 -0.640625 L 1.875 -4.609375 L 1.046875 -4.609375 L 1.046875 -5.25 L 2.5 -5.25 L 2.65625 -4 C 2.875 -4.457031 3.128906 -4.796875 3.421875 -5.015625 C 3.722656 -5.242188 4.097656 -5.359375 4.546875 -5.359375 Z M 4.546875 -5.359375 "/>
</g>
<g id="glyph-1-4">
<path d="M 3.375 -0.609375 C 3.832031 -0.609375 4.289062 -0.757812 4.75 -1.0625 L 5.140625 -0.515625 C 4.921875 -0.328125 4.648438 -0.175781 4.328125 -0.0625 C 4.003906 0.0507812 3.6875 0.109375 3.375 0.109375 C 2.601562 0.109375 2 -0.132812 1.5625 -0.625 C 1.125 -1.113281 0.90625 -1.773438 0.90625 -2.609375 C 0.90625 -3.128906 1.003906 -3.597656 1.203125 -4.015625 C 1.398438 -4.429688 1.679688 -4.757812 2.046875 -5 C 2.421875 -5.238281 2.863281 -5.359375 3.375 -5.359375 C 4.050781 -5.359375 4.640625 -5.15625 5.140625 -4.75 L 4.71875 -4.203125 C 4.257812 -4.503906 3.8125 -4.65625 3.375 -4.65625 C 2.894531 -4.65625 2.515625 -4.476562 2.234375 -4.125 C 1.953125 -3.78125 1.8125 -3.273438 1.8125 -2.609375 C 1.8125 -1.929688 1.953125 -1.425781 2.234375 -1.09375 C 2.515625 -0.769531 2.894531 -0.609375 3.375 -0.609375 Z M 3.375 -0.609375 "/>
</g>
<g id="glyph-1-5">
<path d="M 1.671875 -2.328125 C 1.679688 -1.753906 1.828125 -1.320312 2.109375 -1.03125 C 2.398438 -0.738281 2.757812 -0.59375 3.1875 -0.59375 C 3.445312 -0.59375 3.6875 -0.628906 3.90625 -0.703125 C 4.125 -0.773438 4.351562 -0.894531 4.59375 -1.0625 L 4.984375 -0.5 C 4.734375 -0.300781 4.453125 -0.148438 4.140625 -0.046875 C 3.828125 0.0546875 3.507812 0.109375 3.1875 0.109375 C 2.425781 0.109375 1.832031 -0.132812 1.40625 -0.625 C 0.988281 -1.125 0.78125 -1.789062 0.78125 -2.625 C 0.78125 -3.144531 0.875 -3.613281 1.0625 -4.03125 C 1.25 -4.445312 1.515625 -4.769531 1.859375 -5 C 2.203125 -5.238281 2.609375 -5.359375 3.078125 -5.359375 C 3.734375 -5.359375 4.253906 -5.128906 4.640625 -4.671875 C 5.023438 -4.210938 5.21875 -3.582031 5.21875 -2.78125 C 5.21875 -2.625 5.207031 -2.472656 5.1875 -2.328125 Z M 3.078125 -4.671875 C 2.671875 -4.671875 2.34375 -4.523438 2.09375 -4.234375 C 1.84375 -3.953125 1.703125 -3.53125 1.671875 -2.96875 L 4.390625 -2.96875 C 4.390625 -3.519531 4.269531 -3.941406 4.03125 -4.234375 C 3.800781 -4.523438 3.484375 -4.671875 3.078125 -4.671875 Z M 3.078125 -4.671875 "/>
</g>
<g id="glyph-1-6">
<path d="M 3.34375 -5.359375 C 4.613281 -5.359375 5.25 -4.445312 5.25 -2.625 C 5.25 -1.800781 5.078125 -1.140625 4.734375 -0.640625 C 4.390625 -0.140625 3.890625 0.109375 3.234375 0.109375 C 2.660156 0.109375 2.191406 -0.0859375 1.828125 -0.484375 L 1.828125 2.015625 L 1 2.109375 L 1 -5.25 L 1.71875 -5.25 L 1.78125 -4.515625 C 1.976562 -4.785156 2.207031 -4.992188 2.46875 -5.140625 C 2.738281 -5.285156 3.03125 -5.359375 3.34375 -5.359375 Z M 3.15625 -4.6875 C 2.882812 -4.6875 2.632812 -4.601562 2.40625 -4.4375 C 2.1875 -4.28125 1.992188 -4.082031 1.828125 -3.84375 L 1.828125 -1.25 C 1.972656 -1.039062 2.148438 -0.878906 2.359375 -0.765625 C 2.566406 -0.648438 2.796875 -0.59375 3.046875 -0.59375 C 3.484375 -0.59375 3.804688 -0.757812 4.015625 -1.09375 C 4.234375 -1.425781 4.34375 -1.9375 4.34375 -2.625 C 4.34375 -3.320312 4.242188 -3.835938 4.046875 -4.171875 C 3.859375 -4.515625 3.5625 -4.6875 3.15625 -4.6875 Z M 3.15625 -4.6875 "/>
</g>
<g id="glyph-1-7">
<path d="M 5.171875 -0.265625 C 4.992188 -0.148438 4.773438 -0.0625 4.515625 0 C 4.265625 0.0703125 4.015625 0.109375 3.765625 0.109375 C 3.210938 0.109375 2.78125 -0.03125 2.46875 -0.3125 C 2.15625 -0.601562 2 -0.988281 2 -1.46875 L 2 -4.59375 L 0.78125 -4.59375 L 0.78125 -5.25 L 2 -5.25 L 2 -6.4375 L 2.828125 -6.546875 L 2.828125 -5.25 L 4.65625 -5.25 L 4.546875 -4.59375 L 2.828125 -4.59375 L 2.828125 -1.46875 C 2.828125 -1.175781 2.90625 -0.957031 3.0625 -0.8125 C 3.226562 -0.664062 3.488281 -0.59375 3.84375 -0.59375 C 4.195312 -0.59375 4.53125 -0.675781 4.84375 -0.84375 Z M 5.171875 -0.265625 "/>
</g>
<g id="glyph-1-8">
<path d="M 5.515625 -3.46875 C 5.515625 -2.164062 5.210938 -1.257812 4.609375 -0.75 C 4.015625 -0.25 3.28125 0 2.40625 0 L 0.828125 0 L 0.828125 -6.875 L 2.296875 -6.875 C 3.253906 -6.875 4.03125 -6.628906 4.625 -6.140625 C 5.21875 -5.648438 5.515625 -4.757812 5.515625 -3.46875 Z M 4.578125 -3.46875 C 4.578125 -4.207031 4.476562 -4.773438 4.28125 -5.171875 C 4.082031 -5.566406 3.832031 -5.828125 3.53125 -5.953125 C 3.226562 -6.085938 2.882812 -6.15625 2.5 -6.15625 L 1.6875 -6.15625 L 1.6875 -0.703125 L 2.515625 -0.703125 C 3.109375 -0.703125 3.597656 -0.90625 3.984375 -1.3125 C 4.378906 -1.71875 4.578125 -2.4375 4.578125 -3.46875 Z M 4.578125 -3.46875 "/>
</g>
<g id="glyph-1-9">
<path d="M 2.796875 -0.578125 C 3.191406 -0.578125 3.503906 -0.648438 3.734375 -0.796875 C 3.972656 -0.953125 4.09375 -1.160156 4.09375 -1.421875 C 4.09375 -1.585938 4.0625 -1.722656 4 -1.828125 C 3.9375 -1.941406 3.816406 -2.039062 3.640625 -2.125 C 3.460938 -2.21875 3.191406 -2.3125 2.828125 -2.40625 C 2.210938 -2.5625 1.757812 -2.75 1.46875 -2.96875 C 1.175781 -3.1875 1.03125 -3.503906 1.03125 -3.921875 C 1.03125 -4.359375 1.210938 -4.707031 1.578125 -4.96875 C 1.941406 -5.226562 2.421875 -5.359375 3.015625 -5.359375 C 3.742188 -5.359375 4.382812 -5.164062 4.9375 -4.78125 L 4.5625 -4.203125 C 4.34375 -4.359375 4.113281 -4.476562 3.875 -4.5625 C 3.632812 -4.644531 3.359375 -4.6875 3.046875 -4.6875 C 2.285156 -4.6875 1.90625 -4.457031 1.90625 -4 C 1.90625 -3.84375 1.945312 -3.710938 2.03125 -3.609375 C 2.113281 -3.503906 2.25 -3.414062 2.4375 -3.34375 C 2.625 -3.269531 2.910156 -3.179688 3.296875 -3.078125 C 3.859375 -2.921875 4.28125 -2.722656 4.5625 -2.484375 C 4.851562 -2.253906 5 -1.910156 5 -1.453125 C 5 -0.929688 4.785156 -0.539062 4.359375 -0.28125 C 3.929688 -0.0195312 3.410156 0.109375 2.796875 0.109375 C 1.972656 0.109375 1.285156 -0.125 0.734375 -0.59375 L 1.203125 -1.140625 C 1.421875 -0.972656 1.664062 -0.835938 1.9375 -0.734375 C 2.207031 -0.628906 2.492188 -0.578125 2.796875 -0.578125 Z M 2.796875 -0.578125 "/>
</g>
<g id="glyph-1-10">
<path d="M 2.984375 -7.703125 C 3.171875 -7.703125 3.320312 -7.644531 3.4375 -7.53125 C 3.550781 -7.425781 3.609375 -7.289062 3.609375 -7.125 C 3.609375 -6.945312 3.550781 -6.800781 3.4375 -6.6875 C 3.320312 -6.582031 3.171875 -6.53125 2.984375 -6.53125 C 2.804688 -6.53125 2.660156 -6.582031 2.546875 -6.6875 C 2.441406 -6.800781 2.390625 -6.945312 2.390625 -7.125 C 2.390625 -7.289062 2.441406 -7.425781 2.546875 -7.53125 C 2.660156 -7.644531 2.804688 -7.703125 2.984375 -7.703125 Z M 3.65625 -0.671875 L 5.140625 -0.671875 L 5.140625 0 L 1.203125 0 L 1.203125 -0.671875 L 2.828125 -0.671875 L 2.828125 -4.578125 L 1.25 -4.578125 L 1.25 -5.25 L 3.65625 -5.25 Z M 3.65625 -0.671875 "/>
</g>
<g id="glyph-1-11">
<path d="M 1 -5.25 L 1.71875 -5.25 L 1.78125 -4.515625 C 1.988281 -4.785156 2.25 -4.992188 2.5625 -5.140625 C 2.882812 -5.285156 3.203125 -5.359375 3.515625 -5.359375 C 4.503906 -5.359375 5 -4.84375 5 -3.8125 L 5 0 L 4.15625 0 L 4.15625 -3.1875 C 4.15625 -3.582031 4.132812 -3.878906 4.09375 -4.078125 C 4.050781 -4.285156 3.96875 -4.4375 3.84375 -4.53125 C 3.71875 -4.632812 3.523438 -4.6875 3.265625 -4.6875 C 2.972656 -4.6875 2.703125 -4.597656 2.453125 -4.421875 C 2.203125 -4.253906 1.992188 -4.050781 1.828125 -3.8125 L 1.828125 0 L 1 0 Z M 1 -5.25 "/>
</g>
<g id="glyph-1-12">
<path d="M 4.765625 -1.140625 C 4.765625 -0.941406 4.796875 -0.789062 4.859375 -0.6875 C 4.929688 -0.59375 5.039062 -0.523438 5.1875 -0.484375 L 4.984375 0.125 C 4.472656 0.0507812 4.15625 -0.195312 4.03125 -0.625 C 3.84375 -0.382812 3.609375 -0.203125 3.328125 -0.078125 C 3.046875 0.0429688 2.726562 0.109375 2.375 0.109375 C 1.851562 0.109375 1.441406 -0.0351562 1.140625 -0.328125 C 0.835938 -0.617188 0.6875 -1.007812 0.6875 -1.5 C 0.6875 -2.039062 0.894531 -2.457031 1.3125 -2.75 C 1.738281 -3.039062 2.347656 -3.1875 3.140625 -3.1875 L 3.921875 -3.1875 L 3.921875 -3.625 C 3.921875 -3.988281 3.8125 -4.253906 3.59375 -4.421875 C 3.382812 -4.585938 3.078125 -4.671875 2.671875 -4.671875 C 2.273438 -4.671875 1.820312 -4.578125 1.3125 -4.390625 L 1.078125 -5.03125 C 1.691406 -5.25 2.265625 -5.359375 2.796875 -5.359375 C 3.441406 -5.359375 3.929688 -5.207031 4.265625 -4.90625 C 4.597656 -4.613281 4.765625 -4.203125 4.765625 -3.671875 Z M 2.59375 -0.515625 C 2.851562 -0.515625 3.097656 -0.582031 3.328125 -0.71875 C 3.566406 -0.851562 3.765625 -1.035156 3.921875 -1.265625 L 3.921875 -2.609375 L 3.15625 -2.609375 C 2.601562 -2.609375 2.203125 -2.515625 1.953125 -2.328125 C 1.703125 -2.140625 1.578125 -1.867188 1.578125 -1.515625 C 1.578125 -0.847656 1.914062 -0.515625 2.59375 -0.515625 Z M 2.59375 -0.515625 "/>
</g>
<g id="glyph-1-13">
<path d="M 5.515625 -5.015625 C 5.316406 -4.953125 5.101562 -4.910156 4.875 -4.890625 C 4.644531 -4.867188 4.347656 -4.859375 3.984375 -4.859375 C 4.597656 -4.585938 4.90625 -4.144531 4.90625 -3.53125 C 4.90625 -3 4.726562 -2.566406 4.375 -2.234375 C 4.019531 -1.910156 3.539062 -1.75 2.9375 -1.75 C 2.625 -1.75 2.359375 -1.785156 2.140625 -1.859375 C 2.066406 -1.804688 2.003906 -1.734375 1.953125 -1.640625 C 1.898438 -1.546875 1.875 -1.453125 1.875 -1.359375 C 1.875 -1.054688 2.109375 -0.90625 2.578125 -0.90625 L 3.515625 -0.90625 C 3.859375 -0.90625 4.171875 -0.84375 4.453125 -0.71875 C 4.742188 -0.59375 4.96875 -0.421875 5.125 -0.203125 C 5.289062 0.0117188 5.375 0.253906 5.375 0.515625 C 5.375 1.023438 5.15625 1.414062 4.71875 1.6875 C 4.28125 1.96875 3.664062 2.109375 2.875 2.109375 C 2.0625 2.109375 1.488281 1.984375 1.15625 1.734375 C 0.820312 1.484375 0.65625 1.082031 0.65625 0.53125 L 1.421875 0.53125 C 1.421875 0.75 1.460938 0.921875 1.546875 1.046875 C 1.628906 1.179688 1.773438 1.28125 1.984375 1.34375 C 2.191406 1.40625 2.488281 1.4375 2.875 1.4375 C 3.4375 1.4375 3.851562 1.363281 4.125 1.21875 C 4.394531 1.070312 4.53125 0.851562 4.53125 0.5625 C 4.53125 0.320312 4.421875 0.140625 4.203125 0.015625 C 3.984375 -0.109375 3.695312 -0.171875 3.34375 -0.171875 L 2.40625 -0.171875 C 1.976562 -0.171875 1.648438 -0.265625 1.421875 -0.453125 C 1.203125 -0.648438 1.09375 -0.890625 1.09375 -1.171875 C 1.09375 -1.335938 1.140625 -1.5 1.234375 -1.65625 C 1.335938 -1.820312 1.484375 -1.96875 1.671875 -2.09375 C 1.367188 -2.25 1.144531 -2.441406 1 -2.671875 C 0.851562 -2.910156 0.78125 -3.195312 0.78125 -3.53125 C 0.78125 -3.882812 0.867188 -4.195312 1.046875 -4.46875 C 1.222656 -4.75 1.46875 -4.96875 1.78125 -5.125 C 2.101562 -5.28125 2.46875 -5.359375 2.875 -5.359375 C 3.476562 -5.359375 3.9375 -5.390625 4.25 -5.453125 C 4.5625 -5.523438 4.90625 -5.640625 5.28125 -5.796875 Z M 2.875 -4.75 C 2.46875 -4.75 2.160156 -4.640625 1.953125 -4.421875 C 1.742188 -4.203125 1.640625 -3.90625 1.640625 -3.53125 C 1.640625 -3.164062 1.742188 -2.867188 1.953125 -2.640625 C 2.160156 -2.421875 2.472656 -2.3125 2.890625 -2.3125 C 3.265625 -2.3125 3.546875 -2.414062 3.734375 -2.625 C 3.929688 -2.84375 4.03125 -3.148438 4.03125 -3.546875 C 4.03125 -4.347656 3.644531 -4.75 2.875 -4.75 Z M 2.875 -4.75 "/>
</g>
<g id="glyph-1-14">
<path d="M 4.453125 -5.359375 C 4.753906 -5.359375 5 -5.253906 5.1875 -5.046875 C 5.375 -4.835938 5.46875 -4.457031 5.46875 -3.90625 L 5.46875 0 L 4.703125 0 L 4.703125 -3.765625 C 4.703125 -4.128906 4.675781 -4.375 4.625 -4.5 C 4.582031 -4.632812 4.472656 -4.703125 4.296875 -4.703125 C 3.953125 -4.703125 3.644531 -4.492188 3.375 -4.078125 L 3.375 0 L 2.609375 0 L 2.609375 -3.765625 C 2.609375 -4.128906 2.582031 -4.375 2.53125 -4.5 C 2.488281 -4.632812 2.375 -4.703125 2.1875 -4.703125 C 1.851562 -4.703125 1.550781 -4.492188 1.28125 -4.078125 L 1.28125 0 L 0.515625 0 L 0.515625 -5.25 L 1.15625 -5.25 L 1.21875 -4.640625 C 1.375 -4.867188 1.539062 -5.046875 1.71875 -5.171875 C 1.894531 -5.296875 2.109375 -5.359375 2.359375 -5.359375 C 2.847656 -5.359375 3.160156 -5.128906 3.296875 -4.671875 C 3.453125 -4.890625 3.617188 -5.054688 3.796875 -5.171875 C 3.984375 -5.296875 4.203125 -5.359375 4.453125 -5.359375 Z M 4.453125 -5.359375 "/>
</g>
<g id="glyph-1-15">
<path d="M 3.046875 -1.296875 C 3.046875 -0.828125 3.335938 -0.59375 3.921875 -0.59375 C 4.191406 -0.59375 4.484375 -0.648438 4.796875 -0.765625 L 5.015625 -0.15625 C 4.679688 0.0195312 4.265625 0.109375 3.765625 0.109375 C 3.296875 0.109375 2.921875 -0.0195312 2.640625 -0.28125 C 2.359375 -0.539062 2.21875 -0.890625 2.21875 -1.328125 L 2.21875 -6.703125 L 0.59375 -6.703125 L 0.59375 -7.359375 L 3.046875 -7.359375 Z M 3.046875 -1.296875 "/>
</g>
<g id="glyph-1-16">
<path d="M 1.828125 -4.53125 C 2.035156 -4.789062 2.289062 -4.992188 2.59375 -5.140625 C 2.894531 -5.285156 3.203125 -5.359375 3.515625 -5.359375 C 4.503906 -5.359375 5 -4.84375 5 -3.8125 L 5 0 L 4.15625 0 L 4.15625 -3.796875 C 4.15625 -4.109375 4.082031 -4.332031 3.9375 -4.46875 C 3.789062 -4.613281 3.554688 -4.6875 3.234375 -4.6875 C 2.960938 -4.6875 2.703125 -4.597656 2.453125 -4.421875 C 2.203125 -4.253906 1.992188 -4.054688 1.828125 -3.828125 L 1.828125 0 L 1 0 L 1 -7.359375 L 1.828125 -7.453125 Z M 1.828125 -4.53125 "/>
</g>
<g id="glyph-1-17">
<path d="M 3.5625 -6.984375 C 3.988281 -6.984375 4.351562 -6.925781 4.65625 -6.8125 C 4.96875 -6.707031 5.269531 -6.539062 5.5625 -6.3125 L 5.078125 -5.734375 C 4.671875 -6.078125 4.1875 -6.25 3.625 -6.25 C 3.007812 -6.25 2.503906 -6.023438 2.109375 -5.578125 C 1.722656 -5.128906 1.53125 -4.414062 1.53125 -3.4375 C 1.53125 -2.46875 1.71875 -1.753906 2.09375 -1.296875 C 2.476562 -0.847656 2.988281 -0.625 3.625 -0.625 C 3.96875 -0.625 4.257812 -0.671875 4.5 -0.765625 C 4.75 -0.867188 4.988281 -1.015625 5.21875 -1.203125 L 5.65625 -0.640625 C 5.144531 -0.140625 4.460938 0.109375 3.609375 0.109375 C 3.046875 0.109375 2.535156 -0.0234375 2.078125 -0.296875 C 1.628906 -0.578125 1.273438 -0.984375 1.015625 -1.515625 C 0.753906 -2.046875 0.625 -2.6875 0.625 -3.4375 C 0.625 -4.1875 0.753906 -4.828125 1.015625 -5.359375 C 1.285156 -5.890625 1.644531 -6.289062 2.09375 -6.5625 C 2.539062 -6.84375 3.03125 -6.984375 3.5625 -6.984375 Z M 3.5625 -6.984375 "/>
</g>
<g id="glyph-1-18">
<path d="M 1.890625 0 L 1.0625 0 L 1.0625 -7.359375 L 1.890625 -7.46875 Z M 3.046875 -2.875 L 5.671875 0 L 4.5625 0 L 1.984375 -2.875 L 4.3125 -5.25 L 5.390625 -5.25 Z M 3.046875 -2.875 "/>
</g>
</g>
</defs>
<g fill="rgb(0%, 0%, 0%)" fill-opacity="1">
<use xlink:href="#glyph-0-0" x="9.164" y="4.933"/>
</g>
<g fill="rgb(0%, 0%, 0%)" fill-opacity="1">
<use xlink:href="#glyph-0-1" x="212.667" y="4.884"/>
<use xlink:href="#glyph-0-2" x="218.04684" y="4.884"/>
</g>
<g fill="rgb(0%, 0%, 0%)" fill-opacity="1">
<use xlink:href="#glyph-0-1" x="226.413" y="4.933"/>
<use xlink:href="#glyph-0-3" x="231.79284" y="4.933"/>
</g>
<g fill="rgb(0%, 0%, 0%)" fill-opacity="1">
<use xlink:href="#glyph-0-4" x="432.605" y="4.933"/>
<use xlink:href="#glyph-0-1" x="437.98484" y="4.933"/>
</g>
<g fill="rgb(0%, 0%, 0%)" fill-opacity="1">
<use xlink:href="#glyph-1-0" x="82.074" y="25.645"/>
<use xlink:href="#glyph-1-1" x="88.05156" y="25.645"/>
<use xlink:href="#glyph-1-2" x="94.02912" y="25.645"/>
<use xlink:href="#glyph-1-3" x="100.00668" y="25.645"/>
<use xlink:href="#glyph-1-4" x="105.98424" y="25.645"/>
<use xlink:href="#glyph-1-5" x="111.9618" y="25.645"/>
</g>
<g fill="rgb(0%, 0%, 0%)" fill-opacity="1">
<use xlink:href="#glyph-1-6" x="123.906957" y="25.645"/>
<use xlink:href="#glyph-1-1" x="129.884517" y="25.645"/>
<use xlink:href="#glyph-1-3" x="135.862077" y="25.645"/>
<use xlink:href="#glyph-1-7" x="141.839637" y="25.645"/>
</g>
<path fill="none" stroke-width="0.3985" stroke-linecap="butt" stroke-linejoin="miter" stroke="rgb(0%, 0%, 0%)" stroke-opacity="1" stroke-miterlimit="10" d="M -67.019531 60.743187 L 152.917969 60.743187 " transform="matrix(1, 0, 0, -1, 72, 72.001)"/>
<path fill="none" stroke-width="0.3985" stroke-linecap="butt" stroke-linejoin="miter" stroke="rgb(0%, 0%, 0%)" stroke-opacity="1" stroke-miterlimit="10" d="M -67.019531 36.833031 L 152.917969 36.833031 " transform="matrix(1, 0, 0, -1, 72, 72.001)"/>
<path fill="none" stroke-width="0.3985" stroke-linecap="butt" stroke-linejoin="miter" stroke="rgb(0%, 0%, 0%)" stroke-opacity="1" stroke-miterlimit="10" d="M -67.019531 36.833031 L -67.019531 60.743187 " transform="matrix(1, 0, 0, -1, 72, 72.001)"/>
<path fill="none" stroke-width="0.3985" stroke-linecap="butt" stroke-linejoin="miter" stroke="rgb(0%, 0%, 0%)" stroke-opacity="1" stroke-miterlimit="10" d="M 152.917969 36.833031 L 152.917969 60.743187 " transform="matrix(1, 0, 0, -1, 72, 72.001)"/>
<g fill="rgb(0%, 0%, 0%)" fill-opacity="1">
<use xlink:href="#glyph-1-8" x="287.068" y="26.008"/>
<use xlink:href="#glyph-1-5" x="293.04556" y="26.008"/>
<use xlink:href="#glyph-1-9" x="299.02312" y="26.008"/>
<use xlink:href="#glyph-1-7" x="305.00068" y="26.008"/>
<use xlink:href="#glyph-1-10" x="310.97824" y="26.008"/>
<use xlink:href="#glyph-1-11" x="316.9558" y="26.008"/>
<use xlink:href="#glyph-1-12" x="322.93336" y="26.008"/>
<use xlink:href="#glyph-1-7" x="328.91092" y="26.008"/>
<use xlink:href="#glyph-1-10" x="334.88848" y="26.008"/>
<use xlink:href="#glyph-1-1" x="340.86604" y="26.008"/>
<use xlink:href="#glyph-1-11" x="346.8436" y="26.008"/>
</g>
<g fill="rgb(0%, 0%, 0%)" fill-opacity="1">
<use xlink:href="#glyph-1-6" x="358.788757" y="26.008"/>
<use xlink:href="#glyph-1-1" x="364.766317" y="26.008"/>
<use xlink:href="#glyph-1-3" x="370.743877" y="26.008"/>
<use xlink:href="#glyph-1-7" x="376.721437" y="26.008"/>
</g>
<path fill="none" stroke-width="0.3985" stroke-linecap="butt" stroke-linejoin="miter" stroke="rgb(0%, 0%, 0%)" stroke-opacity="1" stroke-miterlimit="10" d="M 152.917969 60.743187 L 372.859375 60.743187 " transform="matrix(1, 0, 0, -1, 72, 72.001)"/>
<path fill="none" stroke-width="0.3985" stroke-linecap="butt" stroke-linejoin="miter" stroke="rgb(0%, 0%, 0%)" stroke-opacity="1" stroke-miterlimit="10" d="M 152.917969 36.833031 L 372.859375 36.833031 " transform="matrix(1, 0, 0, -1, 72, 72.001)"/>
<path fill="none" stroke-width="0.3985" stroke-linecap="butt" stroke-linejoin="miter" stroke="rgb(0%, 0%, 0%)" stroke-opacity="1" stroke-miterlimit="10" d="M 152.917969 36.833031 L 152.917969 60.743187 " transform="matrix(1, 0, 0, -1, 72, 72.001)"/>
<path fill="none" stroke-width="0.3985" stroke-linecap="butt" stroke-linejoin="miter" stroke="rgb(0%, 0%, 0%)" stroke-opacity="1" stroke-miterlimit="10" d="M 372.859375 36.833031 L 372.859375 60.743187 " transform="matrix(1, 0, 0, -1, 72, 72.001)"/>
<g fill="rgb(0%, 0%, 0%)" fill-opacity="1">
<use xlink:href="#glyph-1-0" x="73.107" y="49.789"/>
<use xlink:href="#glyph-1-5" x="79.08456" y="49.789"/>
<use xlink:href="#glyph-1-13" x="85.06212" y="49.789"/>
<use xlink:href="#glyph-1-14" x="91.03968" y="49.789"/>
<use xlink:href="#glyph-1-5" x="97.01724" y="49.789"/>
<use xlink:href="#glyph-1-11" x="102.9948" y="49.789"/>
<use xlink:href="#glyph-1-7" x="108.97236" y="49.789"/>
</g>
<g fill="rgb(0%, 0%, 0%)" fill-opacity="1">
<use xlink:href="#glyph-1-15" x="120.92748" y="49.789"/>
<use xlink:href="#glyph-1-5" x="126.90504" y="49.789"/>
<use xlink:href="#glyph-1-11" x="132.8826" y="49.789"/>
<use xlink:href="#glyph-1-13" x="138.86016" y="49.789"/>
<use xlink:href="#glyph-1-7" x="144.83772" y="49.789"/>
<use xlink:href="#glyph-1-16" x="150.81528" y="49.789"/>
</g>
<path fill="none" stroke-width="0.3985" stroke-linecap="butt" stroke-linejoin="miter" stroke="rgb(0%, 0%, 0%)" stroke-opacity="1" stroke-miterlimit="10" d="M -67.019531 36.833031 L 152.917969 36.833031 " transform="matrix(1, 0, 0, -1, 72, 72.001)"/>
<path fill="none" stroke-width="0.3985" stroke-linecap="butt" stroke-linejoin="miter" stroke="rgb(0%, 0%, 0%)" stroke-opacity="1" stroke-miterlimit="10" d="M -67.019531 12.922875 L 152.917969 12.922875 " transform="matrix(1, 0, 0, -1, 72, 72.001)"/>
<path fill="none" stroke-width="0.3985" stroke-linecap="butt" stroke-linejoin="miter" stroke="rgb(0%, 0%, 0%)" stroke-opacity="1" stroke-miterlimit="10" d="M -67.019531 12.922875 L -67.019531 36.833031 " transform="matrix(1, 0, 0, -1, 72, 72.001)"/>
<path fill="none" stroke-width="0.3985" stroke-linecap="butt" stroke-linejoin="miter" stroke="rgb(0%, 0%, 0%)" stroke-opacity="1" stroke-miterlimit="10" d="M 152.917969 12.922875 L 152.917969 36.833031 " transform="matrix(1, 0, 0, -1, 72, 72.001)"/>
<g fill="rgb(0%, 0%, 0%)" fill-opacity="1">
<use xlink:href="#glyph-1-17" x="310.978" y="50.801"/>
<use xlink:href="#glyph-1-16" x="316.95556" y="50.801"/>
<use xlink:href="#glyph-1-5" x="322.93312" y="50.801"/>
<use xlink:href="#glyph-1-4" x="328.91068" y="50.801"/>
<use xlink:href="#glyph-1-18" x="334.88824" y="50.801"/>
<use xlink:href="#glyph-1-9" x="340.8658" y="50.801"/>
<use xlink:href="#glyph-1-2" x="346.84336" y="50.801"/>
<use xlink:href="#glyph-1-14" x="352.82092" y="50.801"/>
</g>
<path fill="none" stroke-width="0.3985" stroke-linecap="butt" stroke-linejoin="miter" stroke="rgb(0%, 0%, 0%)" stroke-opacity="1" stroke-miterlimit="10" d="M 152.917969 36.833031 L 372.859375 36.833031 " transform="matrix(1, 0, 0, -1, 72, 72.001)"/>
<path fill="none" stroke-width="0.3985" stroke-linecap="butt" stroke-linejoin="miter" stroke="rgb(0%, 0%, 0%)" stroke-opacity="1" stroke-miterlimit="10" d="M 152.917969 12.922875 L 372.859375 12.922875 " transform="matrix(1, 0, 0, -1, 72, 72.001)"/>
<path fill="none" stroke-width="0.3985" stroke-linecap="butt" stroke-linejoin="miter" stroke="rgb(0%, 0%, 0%)" stroke-opacity="1" stroke-miterlimit="10" d="M 152.917969 12.922875 L 152.917969 36.833031 " transform="matrix(1, 0, 0, -1, 72, 72.001)"/>
<path fill="none" stroke-width="0.3985" stroke-linecap="butt" stroke-linejoin="miter" stroke="rgb(0%, 0%, 0%)" stroke-opacity="1" stroke-miterlimit="10" d="M 372.859375 12.922875 L 372.859375 36.833031 " transform="matrix(1, 0, 0, -1, 72, 72.001)"/>
</svg>